<?xml version="1.0" encoding="utf-8"?>
<svg viewBox="160.237 169.639 232.982 310.917" xmlns="http://www.w3.org/2000/svg">
  <defs>
    <linearGradient id="gradient_1" gradientUnits="userSpaceOnUse" x1="672.74274" y1="1405.1086" x2="723.25726" y2="1390.8914" gradientTransform="matrix(0.227729, 0, 0, 0.227729, 160.315598, 77.061935)">
      <stop offset="0" stop-color="#BA5204"/>
      <stop offset="1" stop-color="#A15D0E"/>
    </linearGradient>
    <linearGradient id="gradient_2" gradientUnits="userSpaceOnUse" x1="777.83649" y1="733.99353" x2="1109.9657" y2="1331.6733" gradientTransform="matrix(0.227729, 0, 0, 0.227729, 160.315598, 77.061935)">
      <stop offset="0" stop-color="#011017"/>
      <stop offset="1" stop-color="#053236"/>
    </linearGradient>
  </defs>
  <path fill="#F7A034" d="M 228.339 366.455 C 229.448 364.246 231.125 361.338 232.905 359.626 L 229.543 368.73 C 229.09 368.029 228.387 367.314 228.339 366.455 Z"/>
  <path fill="#FDFB94" d="M 238.597 353.946 C 240.572 352.976 242.041 352.418 244.258 352.316 C 248.735 356.968 252.26 361.819 252.137 368.598 C 252.081 371.695 251.021 376.266 249.155 378.732 L 248.901 378.826 L 248.492 378.395 C 247.963 379.231 248.373 380.361 248.175 381.308 C 247.839 382.922 244.903 386.896 243.63 387.728 C 243.555 388.046 243.436 388.238 243.587 388.538 C 243.788 390.155 244.258 391.736 244.679 393.305 C 244.104 393.111 243.748 392.498 243.377 392.02 C 241.928 390.16 240.6 388.144 239.309 386.172 C 240.363 384.97 241.583 383.749 242.405 382.378 C 245.636 376.979 246.828 370.379 245.274 364.256 C 244.292 360.384 242.132 356.05 238.597 353.946 Z"/>
  <path fill="#721500" d="M 233.609 388.745 L 232.775 377.537 C 233.453 378.004 234.027 378.921 234.53 379.57 C 236.189 381.72 237.555 384.1 239.309 386.172 C 240.6 388.144 241.928 390.16 243.377 392.02 C 243.748 392.498 244.104 393.111 244.679 393.305 C 244.832 393.724 244.923 393.981 244.905 394.43 L 244.927 395.179 C 245.553 396.09 245.747 397.083 246.083 398.112 L 247.794 402.901 C 249.049 406.069 250.584 409.366 252.432 412.233 C 253.838 414.415 255.546 416.419 257.148 418.457 L 247.478 417.212 L 241.376 415.813 C 240.558 414.456 239.849 412.951 239.27 411.475 C 238.784 410.236 238.468 408.096 237.561 407.171 C 237.914 406.21 236.988 403.402 236.759 402.266 C 236.175 399.369 235.511 396.384 235.315 393.437 L 234.698 393.223 C 234.12 391.829 234.09 390.201 233.609 388.745 Z"/>
  <path fill="#FB7208" d="M 233.609 388.745 L 232.775 377.537 C 233.453 378.004 234.027 378.921 234.53 379.57 C 236.189 381.72 237.555 384.1 239.309 386.172 C 240.6 388.144 241.928 390.16 243.377 392.02 C 243.748 392.498 244.104 393.111 244.679 393.305 C 244.832 393.724 244.923 393.981 244.905 394.43 L 244.927 395.179 L 232.958 379.229 L 233.763 382.831 C 234.198 386.343 235.19 389.909 235.315 393.437 L 234.698 393.223 C 234.12 391.829 234.09 390.201 233.609 388.745 Z"/>
  <path fill="#983B07" d="M 233.763 382.831 C 235.235 384.339 235.739 386.839 236.342 388.823 L 238.376 395.268 C 239.906 400.023 241.387 404.823 243.25 409.462 C 243.942 411.184 244.772 412.823 245.721 414.417 C 246.091 415.037 247.409 416.635 247.478 417.212 L 241.376 415.813 C 240.558 414.456 239.849 412.951 239.27 411.475 C 238.784 410.236 238.468 408.096 237.561 407.171 C 237.914 406.21 236.988 403.402 236.759 402.266 C 236.175 399.369 235.511 396.384 235.315 393.437 C 235.19 389.909 234.198 386.343 233.763 382.831 Z"/>
  <path fill="#721500" d="M 243.63 387.728 C 244.903 386.896 247.839 382.922 248.175 381.308 C 248.373 380.361 247.963 379.231 248.492 378.395 L 248.901 378.826 L 249.013 379.224 C 253.123 383.783 256.324 389.918 259.3 395.256 C 259.736 396.147 260.389 397.021 261.064 397.743 L 260.952 398.59 C 260.542 400.667 260.48 402.712 260.445 404.821 L 266.8 410.182 L 270.189 413.124 L 269.336 419.211 L 265.273 419.115 C 264.124 419.143 261.193 419.27 260.322 418.726 C 259.634 418.694 258.986 418.649 258.309 418.51 L 257.148 418.457 C 255.546 416.419 253.838 414.415 252.432 412.233 C 250.584 409.366 249.049 406.069 247.794 402.901 L 246.083 398.112 C 245.747 397.083 245.553 396.09 244.927 395.179 L 244.905 394.43 C 244.923 393.981 244.832 393.724 244.679 393.305 C 244.258 391.736 243.788 390.155 243.587 388.538 C 243.436 388.238 243.555 388.046 243.63 387.728 Z"/>
  <path fill="#FB7208" d="M 258.356 412.68 L 257.56 403.796 C 260.701 408.567 262.223 414.349 265.273 419.115 C 264.124 419.143 261.193 419.27 260.322 418.726 C 259.634 418.694 258.986 418.649 258.309 418.51 L 258.597 418.186 L 258.356 412.68 Z"/>
  <path fill="#983B07" d="M 243.587 388.538 L 252.584 405.106 C 254.192 408.023 255.855 411.587 258.125 414.037 L 258.356 412.68 L 258.597 418.186 L 258.309 418.51 L 257.148 418.457 C 255.546 416.419 253.838 414.415 252.432 412.233 C 250.584 409.366 249.049 406.069 247.794 402.901 L 246.083 398.112 C 245.747 397.083 245.553 396.09 244.927 395.179 L 244.905 394.43 C 244.923 393.981 244.832 393.724 244.679 393.305 C 244.258 391.736 243.788 390.155 243.587 388.538 Z"/>
  <path fill="#F7A034" d="M 243.63 387.728 C 244.903 386.896 247.839 382.922 248.175 381.308 C 248.373 380.361 247.963 379.231 248.492 378.395 L 248.901 378.826 L 249.013 379.224 C 253.123 383.783 256.324 389.918 259.3 395.256 C 259.736 396.147 260.389 397.021 261.064 397.743 L 260.952 398.59 C 260.542 400.667 260.48 402.712 260.445 404.821 C 259.729 404.14 259.007 403.475 258.389 402.701 L 249.988 394.279 L 243.63 387.728 Z"/>
  <path fill="#F7D67B" d="M 243.63 387.728 C 244.903 386.896 247.839 382.922 248.175 381.308 C 248.373 380.361 247.963 379.231 248.492 378.395 L 248.901 378.826 L 248.527 379.151 C 248.33 382.556 248.948 385.979 249.467 389.34 C 249.7 390.847 250.177 392.769 249.988 394.279 L 243.63 387.728 Z"/>
  <path fill="#CD4805" d="M 249.013 379.224 C 253.123 383.783 256.324 389.918 259.3 395.256 C 259.736 396.147 260.389 397.021 261.064 397.743 L 260.952 398.59 C 260.542 400.667 260.48 402.712 260.445 404.821 C 259.729 404.14 259.007 403.475 258.389 402.701 C 258.042 401.33 257.281 400.029 256.741 398.725 L 250.557 383.842 C 249.995 382.33 249.241 380.832 249.013 379.224 Z"/>
  <path fill="#F7D67B" d="M 244.258 352.316 C 245.374 352.516 246.48 352.698 247.554 353.076 C 249.955 353.889 252.312 355.21 254.32 356.754 L 254.785 357.132 C 258.745 360.5 262.936 364.205 265.671 368.68 L 266.015 369.083 L 266.492 369.91 L 270.209 375.82 L 272.06 378.851 L 272.517 379.393 L 269.282 382.273 L 266.967 384.931 L 266.711 385.295 C 265.235 387.416 263.903 389.584 262.928 391.984 L 261.064 397.743 C 260.389 397.021 259.736 396.147 259.3 395.256 C 256.324 389.918 253.123 383.783 249.013 379.224 L 248.901 378.826 L 249.155 378.732 C 251.021 376.266 252.081 371.695 252.137 368.598 C 252.26 361.819 248.735 356.968 244.258 352.316 Z"/>
  <path fill="#FB7208" d="M 265.671 368.68 L 266.015 369.083 L 266.492 369.91 L 270.209 375.82 L 272.06 378.851 L 272.517 379.393 L 269.282 382.273 L 266.967 384.931 C 266.425 382.913 265.178 370.035 265.671 368.68 Z"/>
  <path fill="#CD4805" d="M 266.492 369.91 L 270.209 375.82 L 272.06 378.851 L 272.517 379.393 L 269.282 382.273 C 268.804 379.411 267.979 376.489 267.276 373.668 C 266.975 372.458 266.407 371.16 266.492 369.91 Z"/>
  <path fill="#F7A034" d="M 259.3 395.256 C 259.47 394.033 259.133 392.662 258.991 391.442 L 258.328 384.986 L 257.84 370.866 L 258.956 372.645 L 266.711 385.295 C 265.235 387.416 263.903 389.584 262.928 391.984 L 261.064 397.743 C 260.389 397.021 259.736 396.147 259.3 395.256 Z"/>
  <path fill="#CD4805" d="M 258.956 372.645 L 266.711 385.295 C 265.235 387.416 263.903 389.584 262.928 391.984 C 262.232 389.417 261.879 386.737 261.316 384.136 L 259.638 376.66 C 259.346 375.348 258.884 373.998 258.956 372.645 Z"/>
  <path fill="#F7A034" d="M 198.23 368.949 C 197.501 367.931 197.04 366.697 196.528 365.558 L 201.901 369.322 L 205.233 371.878 L 217.626 381.023 L 214.547 365.554 L 216.631 368.141 L 221.474 374.082 C 222.273 375.034 223.168 376.311 224.186 377.017 C 225.017 378.5 226.383 379.762 227.457 381.076 L 233.609 388.745 C 234.09 390.201 234.12 391.829 234.698 393.223 L 235.315 393.437 C 235.511 396.384 236.175 399.369 236.759 402.266 C 236.988 403.402 237.914 406.21 237.561 407.171 C 238.468 408.096 238.784 410.236 239.27 411.475 C 239.849 412.951 240.558 414.456 241.376 415.813 L 247.478 417.212 L 257.148 418.457 L 258.309 418.51 C 258.986 418.649 259.634 418.694 260.322 418.726 C 258.242 420.682 256.143 422.477 253.687 423.957 C 251.248 423.952 248.655 423.447 246.261 422.985 C 240.358 421.846 234.684 420.063 229.215 417.581 L 224.098 414.848 C 215.993 409.685 209.132 404.195 204.892 395.37 C 203.713 391.446 203.556 388.131 204.561 384.161 L 205.17 382.191 C 203.471 379.896 202.14 377.056 200.796 374.531 L 198.23 368.949 Z"/>
  <path fill="#E66905" d="M 198.23 368.949 C 199.331 369.625 200.059 370.734 200.949 371.652 L 206.241 376.885 L 215.06 384.737 C 216.387 385.881 218.691 387.434 219.695 388.834 C 220.04 389.315 220.23 390.508 220.409 391.128 L 221.893 395.937 C 222.15 396.768 222.322 397.743 222.69 398.526 L 221.357 397.743 C 220.946 397.251 220.247 396.793 219.732 396.402 C 218.564 395.511 215.884 394.407 214.432 394.607 C 213.62 394.024 212.814 393.373 211.886 392.988 C 210.238 390.795 208.767 388.194 207.386 385.819 C 206.682 384.608 206.065 383.269 205.17 382.191 C 203.471 379.896 202.14 377.056 200.796 374.531 L 198.23 368.949 Z"/>
  <path fill="#E66905" d="M 216.631 368.141 L 221.474 374.082 C 222.273 375.034 223.168 376.311 224.186 377.017 C 225.017 378.5 226.383 379.762 227.457 381.076 L 233.609 388.745 C 234.09 390.201 234.12 391.829 234.698 393.223 L 235.315 393.437 C 235.511 396.384 236.175 399.369 236.759 402.266 C 236.988 403.402 237.914 406.21 237.561 407.171 C 234.193 405.629 230.85 403.206 227.651 401.298 C 225.797 393.762 223.098 386.172 220.446 378.876 C 219.178 375.389 217.363 371.784 216.631 368.141 Z"/>
  <path fill="#F7D67B" d="M 205.17 382.191 C 206.065 383.269 206.682 384.608 207.386 385.819 C 208.767 388.194 210.238 390.795 211.886 392.988 C 212.814 393.373 213.62 394.024 214.432 394.607 C 215.884 394.407 218.564 395.511 219.732 396.402 C 220.247 396.793 220.946 397.251 221.357 397.743 L 222.69 398.526 L 227.651 401.298 C 230.85 403.206 234.193 405.629 237.561 407.171 C 238.468 408.096 238.784 410.236 239.27 411.475 C 239.849 412.951 240.558 414.456 241.376 415.813 L 247.478 417.212 L 257.148 418.457 L 258.309 418.51 C 258.986 418.649 259.634 418.694 260.322 418.726 C 258.242 420.682 256.143 422.477 253.687 423.957 C 251.248 423.952 248.655 423.447 246.261 422.985 C 240.358 421.846 234.684 420.063 229.215 417.581 L 224.098 414.848 C 215.993 409.685 209.132 404.195 204.892 395.37 C 203.713 391.446 203.556 388.131 204.561 384.161 L 205.17 382.191 Z"/>
  <path fill="#0B3721" d="M 211.886 392.988 C 212.814 393.373 213.62 394.024 214.432 394.607 C 214.959 395.047 215.858 395.605 216.259 396.128 C 216.36 396.261 216.413 397.244 216.442 397.456 C 216.622 398.741 216.973 400.057 217.104 401.334 L 217.108 401.519 C 214.805 399.467 212.845 395.912 211.886 392.988 Z"/>
  <path fill="#983B07" d="M 214.432 394.607 C 215.884 394.407 218.564 395.511 219.732 396.402 C 220.247 396.793 220.946 397.251 221.357 397.743 C 221.432 398.841 222.554 400.196 223.102 401.159 L 228.533 410.639 C 224.517 408.615 219.666 405.263 217.108 401.519 L 217.104 401.334 C 216.973 400.057 216.622 398.741 216.442 397.456 C 216.413 397.244 216.36 396.261 216.259 396.128 C 215.858 395.605 214.959 395.047 214.432 394.607 Z"/>
  <path fill="#721500" d="M 228.533 410.639 L 223.102 401.159 C 222.554 400.196 221.432 398.841 221.357 397.743 L 222.69 398.526 L 227.651 401.298 C 230.85 403.206 234.193 405.629 237.561 407.171 C 238.468 408.096 238.784 410.236 239.27 411.475 C 239.849 412.951 240.558 414.456 241.376 415.813 C 236.866 414.556 232.665 412.835 228.533 410.639 Z"/>
  <path fill="#399382" d="M 264.141 300.956 L 278.962 283.506 L 279.431 283.591 L 279.398 295.032 C 279.39 297.109 279.213 299.443 279.516 301.488 C 279.768 303.189 280.338 304.932 280.732 306.613 L 282.647 315.232 C 283.061 317.111 283.585 319.12 283.664 321.039 L 283.671 321.176 L 278.67 312.11 C 278.594 312.003 278.395 311.935 278.277 311.873 C 278.295 312.465 278.319 313.005 278.189 313.586 C 277.766 315.474 277.785 317.644 277.568 319.573 C 276.835 326.072 275.814 332.906 275.797 339.438 C 273.972 339.253 272.116 339.422 270.408 340.132 C 262.81 343.496 258.657 350.155 254.785 357.132 L 254.32 356.754 C 252.312 355.21 249.955 353.889 247.554 353.076 C 246.48 352.698 245.374 352.516 244.258 352.316 C 242.041 352.418 240.572 352.976 238.597 353.946 C 236.467 355.381 234.267 357.428 232.905 359.626 C 231.125 361.338 229.448 364.246 228.339 366.455 C 228.387 367.314 229.09 368.029 229.543 368.73 L 227.896 376.539 L 227.457 381.076 C 226.383 379.762 225.017 378.5 224.186 377.017 C 223.168 376.311 222.273 375.034 221.474 374.082 L 216.631 368.141 L 214.547 365.554 L 217.626 381.023 L 205.233 371.878 L 232.084 339.176 L 248.104 320.067 L 249.167 318.719 L 251.816 315.483 L 264.141 300.956 Z"/>
  <path fill="#175962" d="M 247.554 353.076 L 257.63 332.289 L 254.32 356.754 C 252.312 355.21 249.955 353.889 247.554 353.076 Z"/>
  <path fill="#F7A034" d="M 224.186 377.017 C 223.445 374.977 223.096 372.736 222.693 370.605 L 220.365 354.925 L 221.671 356.982 L 228.339 366.455 C 228.387 367.314 229.09 368.029 229.543 368.73 L 227.896 376.539 L 227.457 381.076 C 226.383 379.762 225.017 378.5 224.186 377.017 Z"/>
  <path fill="#CD4805" d="M 221.671 356.982 L 228.339 366.455 C 228.387 367.314 229.09 368.029 229.543 368.73 L 227.896 376.539 C 227.368 375.813 227.277 374.765 227.025 373.916 L 225.027 367.337 C 223.959 363.914 222.482 360.459 221.671 356.982 Z"/>
  <path fill="#FBF4C4" d="M 264.141 300.956 L 278.962 283.506 L 279.431 283.591 L 279.398 295.032 C 279.39 297.109 279.213 299.443 279.516 301.488 C 279.768 303.189 280.338 304.932 280.732 306.613 L 282.647 315.232 C 283.061 317.111 283.585 319.12 283.664 321.039 L 283.671 321.176 L 278.67 312.11 C 278.594 312.003 278.395 311.935 278.277 311.873 L 265.415 336.133 L 267.601 310.215 L 248.253 331.087 L 248.72 323.9 C 248.806 322.214 248.787 320.368 249.167 318.719 L 251.816 315.483 L 264.141 300.956 Z"/>
  <path fill="#04222E" d="M 279.431 283.591 C 282.361 285.93 284.285 289.639 287.017 292.206 L 293.25 299.525 L 306.709 315.239 C 308.764 317.671 311.124 320.094 312.918 322.709 L 314.215 324.337 L 339.122 354.383 C 338.302 357.619 337.152 360.819 336.135 364 C 335.274 366.692 334.493 370.063 332.82 372.39 C 332.468 372.456 332.338 372.374 332.029 372.224 C 332.633 368.081 332.24 363.502 331.978 359.346 L 331.598 359.453 C 332.53 361.466 330.298 366.624 329.535 368.705 C 327.673 373.779 325.533 378.527 322.895 383.248 C 321.992 379.352 320.878 375.71 318.97 372.176 L 316.546 368.09 C 315.505 366.731 314.342 365.688 313.131 364.492 L 312.922 364.399 L 312.863 364.331 C 311.335 362.794 308.878 362.031 306.783 361.958 L 306.505 361.924 C 302.585 362.486 299.827 364.472 296.469 366.346 L 296.218 365.856 C 295.552 364.729 295.262 362.541 294.86 361.231 L 292.411 355.574 C 289.816 350.257 286.607 345.889 281.986 342.179 C 280.168 341.07 278.522 340.112 276.41 339.67 L 275.797 339.438 C 275.814 332.906 276.835 326.072 277.568 319.573 C 277.785 317.644 277.766 315.474 278.189 313.586 C 278.319 313.005 278.295 312.465 278.277 311.873 C 278.395 311.935 278.594 312.003 278.67 312.11 L 283.671 321.176 L 283.664 321.039 C 283.585 319.12 283.061 317.111 282.647 315.232 L 280.732 306.613 C 280.338 304.932 279.768 303.189 279.516 301.488 C 279.213 299.443 279.39 297.109 279.398 295.032 L 279.431 283.591 Z"/>
  <path fill="#F7A034" d="M 313.131 364.492 L 313.229 364.438 C 314.209 363.834 315.264 361.382 315.738 360.282 C 316.114 362.789 316.615 365.556 316.546 368.09 C 315.505 366.731 314.342 365.688 313.131 364.492 Z"/>
  <path fill="#3B7B6B" d="M 278.277 311.873 C 278.395 311.935 278.594 312.003 278.67 312.11 C 278.355 313.155 278.817 314.604 278.998 315.667 L 279.867 321.518 L 281.363 335.245 C 281.581 337.518 281.939 339.907 281.986 342.179 C 280.168 341.07 278.522 340.112 276.41 339.67 L 275.797 339.438 C 275.814 332.906 276.835 326.072 277.568 319.573 C 277.785 317.644 277.766 315.474 278.189 313.586 C 278.319 313.005 278.295 312.465 278.277 311.873 Z"/>
  <path fill="#F7A034" d="M 331.598 359.453 C 332.53 361.466 330.298 366.624 329.535 368.705 C 327.673 373.779 325.533 378.527 322.895 383.248 C 321.992 379.352 320.878 375.71 318.97 372.176 L 325.936 361.999 C 326.254 362.343 326.118 363.663 326.123 364.185 C 326.101 365.408 325.907 366.979 326.173 368.157 L 331.598 359.453 Z"/>
  <path fill="#CD4805" d="M 326.173 368.157 C 326.085 368.573 325.112 369.53 324.818 369.903 L 321.683 374.182 C 321.871 372.663 323.476 370.252 324.167 368.776 L 326.123 364.185 C 326.101 365.408 325.907 366.979 326.173 368.157 Z"/>
  <path fill="#F7A034" d="M 294.86 361.231 C 295.36 359.678 296.651 358.061 297.536 356.702 L 302.211 349.362 C 302.512 351.614 301.555 354.24 301.608 356.547 L 311.497 345.035 L 310.248 349.622 C 309.622 352.439 309.007 355.222 308.087 357.961 C 307.666 359.214 306.773 360.696 306.505 361.924 C 302.585 362.486 299.827 364.472 296.469 366.346 L 296.218 365.856 C 295.552 364.729 295.262 362.541 294.86 361.231 Z"/>
  <path fill="#CD4805" d="M 296.218 365.856 C 296.61 365.33 297.433 364.902 297.976 364.515 L 301.223 361.96 C 305.259 358.535 307.701 354.176 310.248 349.622 C 309.622 352.439 309.007 355.222 308.087 357.961 C 307.666 359.214 306.773 360.696 306.505 361.924 C 302.585 362.486 299.827 364.472 296.469 366.346 L 296.218 365.856 Z"/>
  <path fill="#77A17A" d="M 279.431 283.591 C 282.361 285.93 284.285 289.639 287.017 292.206 L 293.25 299.525 L 306.709 315.239 C 308.764 317.671 311.124 320.094 312.918 322.709 L 310.201 324.077 C 309.315 323.608 308.308 322.155 307.622 321.39 C 305.358 318.867 303.178 316.209 300.781 313.814 L 307.848 332.779 L 290.139 313.584 L 292.505 337.035 L 283.671 321.176 L 283.664 321.039 C 283.585 319.12 283.061 317.111 282.647 315.232 L 280.732 306.613 C 280.338 304.932 279.768 303.189 279.516 301.488 C 279.213 299.443 279.39 297.109 279.398 295.032 L 279.431 283.591 Z"/>
  <path fill="#F7D67B" d="M 270.408 340.132 C 272.116 339.422 273.972 339.253 275.797 339.438 L 276.41 339.67 C 278.522 340.112 280.168 341.07 281.986 342.179 C 286.607 345.889 289.816 350.257 292.411 355.574 L 294.86 361.231 C 295.262 362.541 295.552 364.729 296.218 365.856 L 296.469 366.346 C 299.827 364.472 302.585 362.486 306.505 361.924 L 306.783 361.958 C 308.878 362.031 311.335 362.794 312.863 364.331 L 312.922 364.399 L 313.131 364.492 C 314.342 365.688 315.505 366.731 316.546 368.09 L 318.97 372.176 C 320.878 375.71 321.992 379.352 322.895 383.248 L 323.04 384.307 C 323.534 386.042 323.527 387.914 323.585 389.707 L 323.734 396.837 L 328.963 391.56 L 325.333 402.216 L 345.595 384.958 C 346.216 383.993 346.561 382.827 346.96 381.756 C 348.761 384.635 349.508 387.632 349.109 391.03 C 346.49 401.05 338.459 407.982 329.789 413.072 L 319.334 418.327 C 312.08 420.994 305.046 422.789 297.401 423.877 C 294.643 424.271 291.749 424.722 288.962 424.79 L 282.306 425.05 L 272.935 425.244 L 253.687 424.075 L 253.687 423.957 C 256.143 422.477 258.242 420.682 260.322 418.726 C 261.193 419.27 264.124 419.143 265.273 419.115 L 269.336 419.211 L 270.189 413.124 L 266.8 410.182 L 260.445 404.821 C 260.48 402.712 260.542 400.667 260.952 398.59 L 261.064 397.743 L 262.928 391.984 C 263.903 389.584 265.235 387.416 266.711 385.295 L 266.967 384.931 L 269.282 382.273 L 272.517 379.393 L 272.06 378.851 L 270.209 375.82 L 266.492 369.91 L 266.015 369.083 L 265.671 368.68 C 262.936 364.205 258.745 360.5 254.785 357.132 C 258.657 350.155 262.81 343.496 270.408 340.132 Z"/>
  <path fill="#E66905" d="M 272.06 378.851 C 273.211 376.806 273.58 373.809 274.234 371.516 L 274.522 371.397 L 274.929 372.438 C 275.454 373.679 276.778 376.086 276.527 377.405 L 276.215 377.614 L 274.986 377.887 C 274.151 378.352 273.263 378.789 272.517 379.393 L 272.06 378.851 Z"/>
  <path fill="#CD4805" d="M 274.986 377.887 C 274.847 376.478 274.284 373.686 274.929 372.438 C 275.454 373.679 276.778 376.086 276.527 377.405 L 276.215 377.614 L 274.986 377.887 Z"/>
  <path fill="#FB7208" d="M 281.791 377.04 L 288.836 360.881 L 289.14 361.505 L 290.631 370.882 L 285.944 375.594 L 284.159 377.903 C 283.329 377.678 282.536 377.484 281.791 377.04 Z"/>
  <path fill="#CD4805" d="M 285.944 375.594 L 288.303 364.456 C 288.438 363.807 288.481 362.349 288.762 361.844 C 288.817 361.746 289.047 361.589 289.14 361.505 L 290.631 370.882 L 285.944 375.594 Z"/>
  <path fill="#FDFB94" d="M 276.527 377.405 C 276.687 377.395 276.621 377.407 276.779 377.361 C 278.443 376.885 279.82 376.92 281.509 377.184 C 285.524 381.133 288.64 385.475 288.698 391.328 C 288.723 393.913 288.102 397.162 286.586 399.289 L 284.737 393.812 C 284.581 393.122 284.562 392.526 284.086 391.993 L 283.96 392.462 L 282.754 393.15 C 282.952 391.861 283.099 390.531 283.005 389.224 C 282.625 383.947 280.064 380.948 276.215 377.614 L 276.527 377.405 Z"/>
  <path fill="#FDFB94" d="M 270.408 340.132 C 272.116 339.422 273.972 339.253 275.797 339.438 L 276.41 339.67 C 279.88 343.432 281.058 348.465 280.84 353.477 C 280.554 360.047 277.509 365.299 274.029 370.659 C 272.822 372.518 271.978 374.212 270.316 375.722 L 270.209 375.82 L 266.492 369.91 L 266.015 369.083 L 266.118 369.017 C 270.642 365.932 273.599 359.762 274.559 354.554 C 275.286 350.605 274.861 346.308 272.631 342.888 C 272.02 341.949 271.16 341.234 270.525 340.305 L 270.408 340.132 Z"/>
  <path fill="#FDFAF8" d="M 270.408 340.132 L 270.525 340.305 C 271.16 341.234 272.02 341.949 272.631 342.888 C 274.861 346.308 275.286 350.605 274.559 354.554 C 273.599 359.762 270.642 365.932 266.118 369.017 L 266.015 369.083 L 265.671 368.68 C 262.936 364.205 258.745 360.5 254.785 357.132 C 258.657 350.155 262.81 343.496 270.408 340.132 Z"/>
  <path fill="#FDFAF8" d="M 306.505 361.924 L 306.783 361.958 C 308.671 367.421 307.854 372.804 305.354 377.931 C 303.085 382.583 299.933 386.008 295.03 387.803 C 291.81 383.697 288.565 380.691 284.159 377.903 L 285.944 375.594 L 290.631 370.882 C 292.5 369.213 294.359 367.71 296.469 366.346 C 299.827 364.472 302.585 362.486 306.505 361.924 Z"/>
  <path fill="#FDFAF8" d="M 274.986 377.887 L 276.215 377.614 C 280.064 380.948 282.625 383.947 283.005 389.224 C 283.099 390.531 282.952 391.861 282.754 393.15 L 283.96 392.462 L 284.086 391.993 C 284.562 392.526 284.581 393.122 284.737 393.812 L 286.586 399.289 L 289.056 409.168 C 289.219 409.808 289.448 411.484 289.877 411.935 C 290.887 411.122 291.743 410.289 292.594 409.312 C 293.526 408.05 293.952 406.313 294.542 404.857 C 295.898 401.521 297.314 397.682 299.147 394.575 L 299.491 395.502 L 299.591 396.158 L 300.238 399.273 C 300.678 401.799 300.841 404.821 301.616 407.226 L 296.607 412.502 L 290.563 418.662 L 290.795 418.892 C 288.403 421.507 284.968 422.862 282.306 425.05 L 272.935 425.244 L 253.687 424.075 L 253.687 423.957 C 256.143 422.477 258.242 420.682 260.322 418.726 C 261.193 419.27 264.124 419.143 265.273 419.115 L 269.336 419.211 L 270.189 413.124 L 266.8 410.182 L 260.445 404.821 C 260.48 402.712 260.542 400.667 260.952 398.59 L 261.064 397.743 L 262.928 391.984 C 263.903 389.584 265.235 387.416 266.711 385.295 L 266.967 384.931 L 269.282 382.273 L 272.517 379.393 C 273.263 378.789 274.151 378.352 274.986 377.887 Z"/>
  <path fill="#FDFB94" d="M 260.952 398.59 L 261.054 402.008 C 261.45 402.557 261.728 403.031 262.452 403.17 C 265.879 403.83 269.979 399.982 271.833 397.463 C 272.336 396.778 272.722 395.591 273.375 395.117 L 273.683 395.653 C 273.587 395.73 273.294 395.91 273.244 396.003 C 273.022 396.411 272.95 397.379 272.85 397.857 L 271.716 403.099 C 270.644 405.295 269.023 408.986 266.8 410.182 L 260.445 404.821 C 260.48 402.712 260.542 400.667 260.952 398.59 Z"/>
  <path fill="#FB7208" d="M 271.716 403.099 L 272.85 397.857 C 272.95 397.379 273.022 396.411 273.244 396.003 C 273.294 395.91 273.587 395.73 273.683 395.653 L 274.043 396.812 L 276.655 406.44 L 278.194 411.268 L 279.851 409.826 L 279.843 410.02 C 279.792 411.184 279.442 412.309 279.394 413.456 C 279.331 414.994 280.602 417.685 281.109 419.168 C 279.618 419.359 278.01 419.266 276.502 419.277 C 274.162 419.004 271.7 419.268 269.336 419.211 L 270.189 413.124 L 266.8 410.182 C 269.023 408.986 270.644 405.295 271.716 403.099 Z"/>
  <path fill="#F7D67B" d="M 266.8 410.182 C 269.023 408.986 270.644 405.295 271.716 403.099 L 270.189 413.124 L 266.8 410.182 Z"/>
  <path fill="#721500" d="M 276.502 419.277 L 274.679 404.331 C 274.392 402.159 273.783 399.654 273.807 397.477 C 273.81 397.24 273.924 397.012 274.043 396.812 L 276.655 406.44 L 278.194 411.268 L 279.851 409.826 L 279.843 410.02 C 279.792 411.184 279.442 412.309 279.394 413.456 C 279.331 414.994 280.602 417.685 281.109 419.168 C 279.618 419.359 278.01 419.266 276.502 419.277 Z"/>
  <path fill="#721500" d="M 283.96 392.462 L 284.086 391.993 C 284.562 392.526 284.581 393.122 284.737 393.812 L 286.586 399.289 L 289.056 409.168 C 289.219 409.808 289.448 411.484 289.877 411.935 C 290.887 411.122 291.743 410.289 292.594 409.312 C 292.455 412.372 290.385 415.331 290.068 418.4 C 289.959 418.507 289.673 418.867 289.552 418.915 C 289.189 419.056 288.249 418.979 287.831 418.999 L 282.906 419.195 L 282.541 419.193 L 281.109 419.168 C 280.602 417.685 279.331 414.994 279.394 413.456 C 279.442 412.309 279.792 411.184 279.843 410.02 L 279.851 409.826 L 278.194 411.268 L 276.655 406.44 C 279.498 402.202 281.64 398.217 282.754 393.15 L 283.96 392.462 Z"/>
  <path fill="#FB7208" d="M 283.96 392.462 L 284.086 391.993 C 284.562 392.526 284.581 393.122 284.737 393.812 C 284.105 396.276 284.287 399.041 284.133 401.576 L 283.228 411.628 C 283.02 414.108 282.996 416.754 282.541 419.193 L 281.109 419.168 C 280.602 417.685 279.331 414.994 279.394 413.456 C 279.442 412.309 279.792 411.184 279.843 410.02 L 279.851 409.826 L 278.194 411.268 L 276.655 406.44 C 279.498 402.202 281.64 398.217 282.754 393.15 L 283.96 392.462 Z"/>
  <path fill="#F7D67B" d="M 282.754 393.15 L 283.96 392.462 L 281.617 402.279 L 280.678 407.385 C 280.52 408.246 280.52 409.225 279.851 409.826 L 278.194 411.268 L 276.655 406.44 C 279.498 402.202 281.64 398.217 282.754 393.15 Z"/>
  <path fill="#E66905" d="M 299.147 394.575 L 299.491 395.502 L 299.591 396.158 L 300.238 399.273 C 300.678 401.799 300.841 404.821 301.616 407.226 L 296.607 412.502 L 290.563 418.662 L 290.795 418.892 C 288.403 421.507 284.968 422.862 282.306 425.05 L 272.935 425.244 L 253.687 424.075 L 253.687 423.957 C 256.143 422.477 258.242 420.682 260.322 418.726 C 261.193 419.27 264.124 419.143 265.273 419.115 L 269.336 419.211 C 271.7 419.268 274.162 419.004 276.502 419.277 C 278.01 419.266 279.618 419.359 281.109 419.168 L 282.541 419.193 L 282.906 419.195 L 287.831 418.999 C 288.249 418.979 289.189 419.056 289.552 418.915 C 289.673 418.867 289.959 418.507 290.068 418.4 C 290.385 415.331 292.455 412.372 292.594 409.312 C 293.526 408.05 293.952 406.313 294.542 404.857 C 295.898 401.521 297.314 397.682 299.147 394.575 Z"/>
  <path fill="#983B07" d="M 296.607 412.502 L 299.276 396.236 L 299.591 396.158 L 300.238 399.273 C 300.678 401.799 300.841 404.821 301.616 407.226 L 296.607 412.502 Z"/>
  <path fill="#721500" d="M 306.783 361.958 C 308.878 362.031 311.335 362.794 312.863 364.331 L 312.922 364.399 L 313.131 364.492 C 314.342 365.688 315.505 366.731 316.546 368.09 L 318.97 372.176 C 320.878 375.71 321.992 379.352 322.895 383.248 L 323.04 384.307 C 323.534 386.042 323.527 387.914 323.585 389.707 L 323.734 396.837 L 328.963 391.56 L 325.333 402.216 L 345.595 384.958 C 346.216 383.993 346.561 382.827 346.96 381.756 C 348.761 384.635 349.508 387.632 349.109 391.03 C 346.49 401.05 338.459 407.982 329.789 413.072 L 319.334 418.327 C 312.08 420.994 305.046 422.789 297.401 423.877 C 294.643 424.271 291.749 424.722 288.962 424.79 L 282.306 425.05 C 284.968 422.862 288.403 421.507 290.795 418.892 L 290.563 418.662 L 296.607 412.502 L 301.616 407.226 C 300.841 404.821 300.678 401.799 300.238 399.273 L 299.591 396.158 L 299.491 395.502 L 299.147 394.575 C 299.125 394.2 298.567 393.352 298.373 393.011 C 297.352 391.214 296.201 389.504 295.03 387.803 C 299.933 386.008 303.085 382.583 305.354 377.931 C 307.854 372.804 308.671 367.421 306.783 361.958 Z"/>
  <path fill="#E66905" d="M 309.235 397.866 C 310.265 396.964 311.171 395.782 312.079 394.753 L 306.433 413.108 L 304.808 404.06 C 304.773 402.712 308.216 399.109 309.235 397.866 Z"/>
  <path fill="#7A653F" d="M 345.595 384.958 C 346.216 383.993 346.561 382.827 346.96 381.756 C 348.761 384.635 349.508 387.632 349.109 391.03 C 346.49 401.05 338.459 407.982 329.789 413.072 L 319.334 418.327 C 312.08 420.994 305.046 422.789 297.401 423.877 C 294.643 424.271 291.749 424.722 288.962 424.79 L 282.306 425.05 C 284.968 422.862 288.403 421.507 290.795 418.892 C 293.633 418.758 296.544 418.264 299.35 417.806 C 304.832 416.913 310.327 415.693 315.493 413.604 C 324.745 409.865 334.976 404.135 340.533 395.534 C 342.566 392.387 344.123 388.42 345.595 384.958 Z"/>
  <path fill="#F7D67B" d="M 306.783 361.958 C 308.878 362.031 311.335 362.794 312.863 364.331 L 312.922 364.399 L 313.131 364.492 C 314.342 365.688 315.505 366.731 316.546 368.09 L 318.97 372.176 C 320.878 375.71 321.992 379.352 322.895 383.248 L 323.04 384.307 C 323.534 386.042 323.527 387.914 323.585 389.707 L 323.734 396.837 L 315.243 405.855 L 315.072 405.853 C 315.22 404.507 315.261 402.862 315.634 401.576 L 316.248 389.481 L 312.079 394.753 C 311.171 395.782 310.265 396.964 309.235 397.866 C 308.216 399.109 304.773 402.712 304.808 404.06 C 304.074 404.211 302.847 405.941 302.245 406.52 L 301.616 407.226 C 300.841 404.821 300.678 401.799 300.238 399.273 L 299.591 396.158 L 299.491 395.502 L 299.147 394.575 C 299.125 394.2 298.567 393.352 298.373 393.011 C 297.352 391.214 296.201 389.504 295.03 387.803 C 299.933 386.008 303.085 382.583 305.354 377.931 C 307.854 372.804 308.671 367.421 306.783 361.958 Z"/>
  <path fill="url(#gradient_1)" d="M 323.04 384.307 C 323.534 386.042 323.527 387.914 323.585 389.707 L 323.734 396.837 L 315.243 405.855 L 315.072 405.853 C 315.22 404.507 315.261 402.862 315.634 401.576 C 319.827 397.21 321.571 389.993 323.04 384.307 Z"/>
  <path fill="#FDFB94" d="M 306.783 361.958 C 308.878 362.031 311.335 362.794 312.863 364.331 L 312.922 364.399 C 313.166 370.58 312.798 376.227 310.234 381.95 C 309.958 382.567 309.403 383.979 308.93 384.453 L 308.81 384.53 L 308.575 385.111 L 309.235 397.866 C 308.216 399.109 304.773 402.712 304.808 404.06 C 304.074 404.211 302.847 405.941 302.245 406.52 L 301.616 407.226 C 300.841 404.821 300.678 401.799 300.238 399.273 L 299.591 396.158 L 299.491 395.502 L 299.147 394.575 C 299.125 394.2 298.567 393.352 298.373 393.011 C 297.352 391.214 296.201 389.504 295.03 387.803 C 299.933 386.008 303.085 382.583 305.354 377.931 C 307.854 372.804 308.671 367.421 306.783 361.958 Z"/>
  <path fill="#FB7208" d="M 303.632 392.64 C 304.863 390.775 305.85 388.568 306.863 386.575 C 307.232 385.849 307.697 384.539 308.339 384.057 L 308.81 384.53 L 308.575 385.111 L 309.235 397.866 C 308.216 399.109 304.773 402.712 304.808 404.06 C 304.074 404.211 302.847 405.941 302.245 406.52 L 301.616 407.226 C 300.841 404.821 300.678 401.799 300.238 399.273 L 299.591 396.158 L 299.491 395.502 L 299.744 395.386 C 301.262 394.828 302.43 393.692 303.632 392.64 Z"/>
  <path fill="#F7D67B" d="M 299.491 395.502 L 299.744 395.386 C 301.262 394.828 302.43 393.692 303.632 392.64 L 300.473 399.248 L 300.238 399.273 L 299.591 396.158 L 299.491 395.502 Z"/>
  <path fill="#983B07" d="M 302.245 406.52 C 304.57 401.701 305.548 395.659 306.911 390.465 C 307.374 388.702 307.674 386.698 308.575 385.111 L 309.235 397.866 C 308.216 399.109 304.773 402.712 304.808 404.06 C 304.074 404.211 302.847 405.941 302.245 406.52 Z"/>
  <path fill="#431006" d="M 349.109 391.03 C 349.153 397.338 347.21 402.956 345.044 408.815 C 344.234 411.006 343.491 413.338 342.484 415.444 C 341.855 417.007 341.226 418.644 340.389 420.108 C 344.979 422.554 349.392 425.08 353.506 428.286 C 350.503 434.061 346.575 439.431 341.414 443.476 L 341.037 443.758 C 341.031 444.869 340.899 446.049 341.736 446.917 C 342.572 447.782 343.924 448.333 344.99 448.859 C 348.426 450.56 352.055 451.931 355.63 453.313 C 356.47 453.637 358.317 454.106 358.903 454.746 L 326.052 464.215 L 325.826 464.217 C 322.166 463.409 317.997 462.234 314.249 462.266 C 312.666 462.279 310.951 462.942 309.453 463.427 C 305.386 464.743 301.554 466.362 297.686 468.166 L 289.937 466.319 C 288.902 465.948 282.803 470.32 281.859 469.737 L 273.618 469.849 L 262.552 463.215 L 259.139 461.186 L 246.928 453.89 C 245.102 452.772 243.069 451.731 241.382 450.419 L 240.531 450.171 L 239.641 449.857 C 238.845 448.734 237.053 447.782 235.95 446.88 C 233.432 444.821 231.121 442.503 228.792 440.237 C 227.838 439.308 226.349 438.181 225.941 436.901 C 225.827 436.309 223.405 434.269 222.842 433.708 C 220.83 431.729 218.632 429.056 217.203 426.615 L 216.598 426.116 L 216.522 425.886 C 215.924 424.734 215.211 423.513 214.322 422.563 L 214.305 422.358 C 217.714 420.671 221.268 417.387 224.098 414.848 L 229.215 417.581 C 234.684 420.063 240.358 421.846 246.261 422.985 C 248.655 423.447 251.248 423.952 253.687 423.957 L 253.687 424.075 L 272.935 425.244 L 282.306 425.05 L 288.962 424.79 C 291.749 424.722 294.643 424.271 297.401 423.877 C 305.046 422.789 312.08 420.994 319.334 418.327 L 329.789 413.072 C 338.459 407.982 346.49 401.05 349.109 391.03 Z"/>
  <path fill="#01060D" d="M 339.207 422.497 C 339.613 424.337 334.401 434.33 333.124 436.329 L 330.863 439.54 C 327.47 443.414 323.489 447.053 319.072 449.747 C 310.303 455.097 299.716 457.294 289.581 457.971 C 287.49 458.112 285.368 458.059 283.274 458.039 C 282.055 458.027 280.645 458.128 279.492 457.7 L 280.335 457.381 C 285.423 457.367 290.774 456.21 295.661 454.867 C 306.614 451.851 316.31 446.195 324.949 438.889 C 330.538 434.164 335.572 428.885 339.207 422.497 Z"/>
  <path fill="#29140D" d="M 340.389 420.108 C 344.979 422.554 349.392 425.08 353.506 428.286 C 350.503 434.061 346.575 439.431 341.414 443.476 L 341.321 441.77 C 340.176 440.454 337.98 440.561 336.319 440.365 L 330.863 439.54 L 333.124 436.329 C 334.401 434.33 339.613 424.337 339.207 422.497 C 339.213 421.782 340.017 420.739 340.389 420.108 Z"/>
  <path fill="#2D1608" d="M 225.941 436.901 C 228.581 439.16 231.265 441.656 234.169 443.569 C 239.423 446.96 244.419 449.788 250.286 452.018 L 260.39 455.119 C 265.585 456.554 271.239 457.36 276.625 457.529 C 277.87 457.567 279.102 457.363 280.335 457.381 L 279.492 457.7 C 280.645 458.128 282.055 458.027 283.274 458.039 C 285.368 458.059 287.49 458.112 289.581 457.971 C 299.716 457.294 310.303 455.097 319.072 449.747 C 323.489 447.053 327.47 443.414 330.863 439.54 L 336.319 440.365 C 337.98 440.561 340.176 440.454 341.321 441.77 L 341.414 443.476 L 341.037 443.758 C 320.374 460.528 291.325 464.468 265.561 461.792 L 259.139 461.186 L 246.928 453.89 C 245.102 452.772 243.069 451.731 241.382 450.419 L 240.531 450.171 L 239.641 449.857 C 238.845 448.734 237.053 447.782 235.95 446.88 C 233.432 444.821 231.121 442.503 228.792 440.237 C 227.838 439.308 226.349 438.181 225.941 436.901 Z"/>
  <path fill="#29140D" d="M 259.139 461.186 L 265.561 461.792 C 291.325 464.468 320.374 460.528 341.037 443.758 C 341.031 444.869 340.899 446.049 341.736 446.917 C 342.572 447.782 343.924 448.333 344.99 448.859 C 348.426 450.56 352.055 451.931 355.63 453.313 C 356.47 453.637 358.317 454.106 358.903 454.746 L 326.052 464.215 L 325.826 464.217 C 322.166 463.409 318.297 463.658 314.664 464.578 C 313.373 464.905 312.821 465.045 309.916 465.98 C 307.068 466.897 301.751 467.702 297.686 468.166 L 282.832 471.02 C 283.134 471.175 273.647 470.086 273.647 470.086 L 262.552 463.215 L 259.139 461.186 Z"/>
  <path fill="#721500" d="M 224.098 414.848 L 229.215 417.581 C 234.684 420.063 240.358 421.846 246.261 422.985 C 248.655 423.447 251.248 423.952 253.687 423.957 L 253.687 424.075 L 272.935 425.244 L 282.306 425.05 L 288.962 424.79 C 291.749 424.722 294.643 424.271 297.401 423.877 C 305.046 422.789 312.08 420.994 319.334 418.327 C 312.44 433.169 300.274 445.678 284.772 451.348 C 277.381 454.051 268.234 455.27 260.39 455.119 L 250.286 452.018 C 244.419 449.788 239.423 446.96 234.169 443.569 C 231.265 441.656 228.581 439.16 225.941 436.901 C 225.827 436.309 223.405 434.269 222.842 433.708 C 220.83 431.729 218.632 429.056 217.203 426.615 L 216.598 426.116 L 216.522 425.886 C 215.924 424.734 215.211 423.513 214.322 422.563 L 214.305 422.358 C 217.714 420.671 221.268 417.387 224.098 414.848 Z"/>
  <path fill="#983B07" d="M 282.306 425.05 L 288.962 424.79 C 287.046 427.605 285.135 430.44 282.876 432.998 C 274.128 442.897 262.981 448.868 250.286 452.018 C 244.419 449.788 239.423 446.96 234.169 443.569 C 237.673 443.344 241.381 442.344 244.723 441.305 C 254.846 438.167 265.327 432.736 272.935 425.244 L 282.306 425.05 Z"/>
  <path fill="#CD4805" d="M 224.098 414.848 L 229.215 417.581 C 234.684 420.063 240.358 421.846 246.261 422.985 C 248.655 423.447 251.248 423.952 253.687 423.957 L 253.687 424.075 L 272.935 425.244 C 265.327 432.736 254.846 438.167 244.723 441.305 C 241.381 442.344 237.673 443.344 234.169 443.569 C 231.265 441.656 228.581 439.16 225.941 436.901 C 225.827 436.309 223.405 434.269 222.842 433.708 C 220.83 431.729 218.632 429.056 217.203 426.615 L 216.598 426.116 L 216.522 425.886 C 215.924 424.734 215.211 423.513 214.322 422.563 L 214.305 422.358 C 217.714 420.671 221.268 417.387 224.098 414.848 Z"/>
  <path fill="#FB7208" d="M 224.098 414.848 L 229.215 417.581 C 234.684 420.063 240.358 421.846 246.261 422.985 C 248.655 423.447 251.248 423.952 253.687 423.957 L 253.687 424.075 L 253.505 424.16 C 251.225 425.241 249.072 426.783 246.806 427.963 C 239.262 431.886 231.335 433.658 222.842 433.708 C 220.83 431.729 218.632 429.056 217.203 426.615 L 216.598 426.116 L 216.522 425.886 C 215.924 424.734 215.211 423.513 214.322 422.563 L 214.305 422.358 C 217.714 420.671 221.268 417.387 224.098 414.848 Z"/>
  <path fill="#CD4805" d="M 224.098 414.848 L 229.215 417.581 C 226.378 420.088 223.447 422.333 220.286 424.41 C 219.46 424.952 217.608 425.747 217.203 426.615 L 216.598 426.116 L 216.522 425.886 C 215.924 424.734 215.211 423.513 214.322 422.563 L 214.305 422.358 C 217.714 420.671 221.268 417.387 224.098 414.848 Z"/>
  <path fill="#01060D" d="M 210.484 317.444 L 231.462 338.691 L 232.084 339.176 L 205.233 371.878 L 201.901 369.322 L 196.528 365.558 C 197.04 366.697 197.501 367.931 198.23 368.949 L 200.796 374.531 C 202.14 377.056 203.471 379.896 205.17 382.191 L 204.561 384.161 C 203.556 388.131 203.713 391.446 204.892 395.37 C 209.132 404.195 215.993 409.685 224.098 414.848 C 221.268 417.387 217.714 420.671 214.305 422.358 L 214.322 422.563 L 202.736 434.619 C 200.875 436.596 198.797 438.568 197.141 440.704 C 196.876 441.048 201.525 450.89 201.14 451.099 C 199.129 452.197 191.772 450.977 189.66 451.892 L 176.562 451.546 L 160.368 451.274 L 160.316 408.777 L 160.316 389.889 L 160.316 371.475 L 160.316 370.907 L 160.316 364.215 L 160.576 364.176 L 190.691 336.96 L 202.255 326.129 L 210.115 317.983 L 210.484 317.444 Z"/>
  <path fill="#FB7208" d="M 204.892 395.37 C 209.132 404.195 215.993 409.685 224.098 414.848 C 221.268 417.387 217.714 420.671 214.305 422.358 C 209.626 413.953 206.139 404.955 204.892 395.37 Z"/>
  <path fill="#175962" d="M 200.796 374.531 C 202.14 377.056 203.471 379.896 205.17 382.191 L 204.561 384.161 L 204.153 383.228 C 203.543 383.492 203.03 385.186 202.761 385.835 L 200.103 392.255 L 189.233 420.079 L 181.189 395.81 L 200.796 374.531 Z"/>
  <path fill="#21C197" d="M 210.484 317.444 L 231.462 338.691 L 232.084 339.176 L 205.233 371.878 L 201.901 369.322 L 196.528 365.558 C 197.04 366.697 197.501 367.931 198.23 368.949 L 200.796 374.531 L 181.189 395.81 L 173.54 371.142 L 162.248 403.869 C 161.663 405.518 161.115 407.217 160.316 408.777 L 160.316 389.889 L 160.316 371.475 L 160.316 370.907 L 160.316 364.215 L 160.576 364.176 L 190.691 336.96 L 202.255 326.129 L 210.115 317.983 L 210.484 317.444 Z"/>
  <path fill="#167874" d="M 160.316 389.889 C 161.005 393.364 161.155 397.003 161.6 400.521 C 161.72 401.473 161.704 403.083 162.248 403.869 C 161.663 405.518 161.115 407.217 160.316 408.777 L 160.316 389.889 Z"/>
  <path fill="#FBF4C4" d="M 210.115 317.983 C 210.459 320.01 209.36 323.15 208.97 325.182 L 206.914 336.675 L 204.496 351.749 C 204.177 353.586 203.369 355.572 203.314 357.424 L 203.296 357.645 L 203.216 357.583 C 202.08 356.602 200.686 347.725 200.311 345.882 L 193.93 355.344 L 196.88 342.562 L 160.316 371.475 L 160.316 370.907 L 160.316 364.215 L 160.576 364.176 L 190.691 336.96 L 202.255 326.129 L 210.115 317.983 Z"/>
  <path fill="#FDFB94" d="M 160.316 364.215 L 160.576 364.176 C 160.517 366.344 160.817 368.803 160.316 370.907 L 160.316 364.215 Z"/>
  <path fill="#77A17A" d="M 210.484 317.444 L 231.462 338.691 L 232.084 339.176 L 205.233 371.878 L 201.901 369.322 L 203.296 357.645 L 203.314 357.424 C 203.369 355.572 204.177 353.586 204.496 351.749 L 206.914 336.675 L 208.97 325.182 C 209.36 323.15 210.459 320.01 210.115 317.983 L 210.484 317.444 Z"/>
  <path fill="#04222E" d="M 231.462 338.691 L 232.084 339.176 L 205.233 371.878 L 201.901 369.322 L 203.296 357.645 L 203.314 357.424 C 204.858 355.654 206.194 353.466 207.546 351.535 L 216.229 338.595 L 217.84 348.875 L 217.967 348.843 L 222.44 340.649 L 227.593 342.956 L 231.462 338.691 Z"/>
  <path fill="#546E47" d="M 183.792 253.894 L 197.271 242.279 L 201.731 238.293 C 202.287 237.804 202.955 237.035 203.577 236.68 C 203.726 236.595 204.089 236.566 204.269 236.526 C 205.937 237.564 207.426 239.809 208.794 241.281 L 215.596 248.421 C 216.974 250.246 218.701 251.884 220.273 253.545 L 228.369 261.981 L 246.918 282.081 L 264.141 300.956 L 251.816 315.483 L 249.167 318.719 L 248.104 320.067 L 232.084 339.176 L 231.462 338.691 L 210.484 317.444 L 210.115 317.983 L 202.255 326.129 L 190.691 336.96 L 160.576 364.176 L 160.316 364.215 L 160.316 340.055 L 160.316 326.156 L 160.316 325.571 L 160.316 309.049 L 160.316 308.498 L 160.316 277.162 L 160.316 273.901 L 161.187 274.562 C 170.189 276.173 182.175 254.67 183.792 253.894 Z" style="transform-box: fill-box; transform-origin: 50% 50%;" transform="matrix(1, -0.000265, 0.000265, 1, 0.000016, 0.00003)"/>
  <path fill="#512A0E" d="M 160.507 309.093 C 161.916 306.986 163.934 305.123 165.658 303.255 L 175.903 292.088 L 166.537 312.809 L 162.319 321.998 C 161.721 323.289 161.158 325.034 160.316 326.156 L 160.316 325.571 L 160.316 309.049 L 160.507 309.093 Z"/>
  <path fill="#512A0E" d="M 160.316 340.055 L 183.912 299.99 L 177.772 332.82 L 189.354 304.45 L 190.691 336.96 L 160.576 364.176 L 160.316 364.215 L 160.316 340.055 Z"/>
  <path fill="#FBF4C4" d="M 183.792 253.894 L 197.271 242.279 L 201.731 238.293 C 202.287 237.804 202.955 237.035 203.577 236.68 C 203.726 236.595 204.089 236.566 204.269 236.526 L 203.094 253.344 C 202.915 259.755 203.394 266.292 203.627 272.704 L 203.978 281.567 C 204.03 282.654 204.346 284.435 203.873 285.404 L 195.407 262.039 L 173.457 282.56 C 173.67 280.543 186.502 260.493 188.492 257.705 C 187.73 257.985 186.726 258.977 186.055 259.488 L 179.79 264.171 L 167.468 272.562 C 165.174 274.067 162.605 275.467 160.488 277.205 L 160.316 277.162 L 160.316 273.901 C 160.511 274.212 181.924 255.035 183.792 253.894 Z"/>
  <path fill="#2D1608" d="M 204.269 236.526 C 205.937 237.564 207.426 239.809 208.794 241.281 L 215.596 248.421 C 216.974 250.246 218.701 251.884 220.273 253.545 L 228.369 261.981 L 246.918 282.081 L 264.141 300.956 L 251.816 315.483 L 249.167 318.719 L 248.104 320.067 L 232.084 339.176 L 231.462 338.691 L 210.484 317.444 L 210.115 317.983 L 202.255 326.129 C 202.157 324.733 202.399 323.166 202.483 321.761 L 202.972 313.319 L 204.417 286.169 L 203.873 285.404 C 204.346 284.435 204.03 282.654 203.978 281.567 L 203.627 272.704 C 203.394 266.292 202.915 259.755 203.094 253.344 L 204.269 236.526 Z"/>
  <path fill="#29140D" d="M 248.104 320.067 L 243.036 299.153 L 249.679 311.794 C 250.261 312.9 250.7 314.581 251.684 315.38 L 251.816 315.483 L 249.167 318.719 L 248.104 320.067 Z"/>
  <path fill="#77A17A" d="M 204.269 236.526 C 205.937 237.564 207.426 239.809 208.794 241.281 L 215.596 248.421 C 216.974 250.246 218.701 251.884 220.273 253.545 L 228.369 261.981 L 233.234 287.503 L 211.469 257.407 C 211.2 256.931 210.942 256.332 210.581 255.926 L 204.417 286.169 L 203.873 285.404 C 204.346 284.435 204.03 282.654 203.978 281.567 L 203.627 272.704 C 203.394 266.292 202.915 259.755 203.094 253.344 L 204.269 236.526 Z"/>
  <path fill="#512A0E" d="M 204.417 286.169 L 210.581 255.926 C 210.942 256.332 211.2 256.931 211.469 257.407 L 211.479 257.587 C 211.589 259.141 212.427 260.874 212.9 262.373 L 215.189 270.228 L 229.602 321.11 C 228.549 320.374 227.57 318.976 226.772 317.963 C 220.924 310.53 217.54 301.691 214.847 292.731 C 214.401 299.242 213.801 305.511 212.255 311.876 C 211.822 313.659 211.389 315.834 210.484 317.444 L 210.115 317.983 L 202.255 326.129 C 202.157 324.733 202.399 323.166 202.483 321.761 L 202.972 313.319 L 204.417 286.169 Z"/>
  <path fill="#FB7208" d="M 202.746 452.44 L 185.639 451.591 L 214.648 422.165 C 214.648 422.165 217.635 427.343 217.598 428.124 L 202.746 452.44 Z"/>
  <path fill="#CD4805" d="M 202.406 452.303 L 216.781 428.566 C 217.492 433.308 218.286 437.914 219.977 442.423 C 220.394 443.533 218.345 452.472 218.931 453.485 L 202.406 452.303 Z"/>
  <path fill="#721500" d="M 216.598 426.116 L 217.203 426.615 C 218.632 429.056 220.83 431.729 222.842 433.708 C 223.405 434.269 225.827 436.309 225.941 436.901 C 226.349 438.181 227.715 439.115 228.841 439.827 C 231.498 441.507 233.813 444.655 235.95 446.88 C 237.374 448.362 266.541 465.143 271.953 468.908 L 218.946 453.436 C 218.36 452.423 220.394 443.533 219.977 442.423 C 218.286 437.914 217.492 433.308 216.781 428.566 C 216.818 427.785 216.661 426.901 216.598 426.116 Z"/>
  <path fill="#175962" d="M 333.466 182.519 L 333.845 182.114 C 335.065 183.241 335.994 184.901 337.041 186.212 L 348.9 202.353 C 349.922 201.391 368.308 237.215 375.059 239.375 C 375.059 239.375 394.799 269.186 393.518 269.781 L 393.51 380.017 L 393.51 392.697 L 393.51 449.847 L 393.51 450.492 L 385.881 450.713 C 385.189 450.767 384.132 450.722 383.483 450.934 L 376.469 451.585 L 358.903 454.746 C 358.317 454.106 356.47 453.637 355.63 453.313 C 352.055 451.931 348.426 450.56 344.99 448.859 C 343.924 448.333 342.572 447.782 341.736 446.917 C 340.899 446.049 341.031 444.869 341.037 443.758 L 341.414 443.476 C 346.575 439.431 350.503 434.061 353.506 428.286 C 349.392 425.08 344.979 422.554 340.389 420.108 C 341.226 418.644 341.855 417.007 342.484 415.444 C 343.491 413.338 344.234 411.006 345.044 408.815 C 347.21 402.956 349.153 397.338 349.109 391.03 C 349.508 387.632 348.761 384.635 346.96 381.756 C 346.561 382.827 346.216 383.993 345.595 384.958 L 325.333 402.216 L 328.963 391.56 L 323.734 396.837 L 323.585 389.707 C 323.527 387.914 323.534 386.042 323.04 384.307 L 322.895 383.248 C 325.533 378.527 327.673 373.779 329.535 368.705 C 330.298 366.624 332.53 361.466 331.598 359.453 L 331.978 359.346 C 332.24 363.502 332.633 368.081 332.029 372.224 C 332.338 372.374 332.468 372.456 332.82 372.39 C 334.493 370.063 335.274 366.692 336.135 364 C 337.152 360.819 338.302 357.619 339.122 354.383 L 314.215 324.337 L 312.918 322.709 C 311.124 320.094 308.764 317.671 306.709 315.239 L 293.25 299.525 L 287.017 292.206 C 284.285 289.639 282.361 285.93 279.431 283.591 L 278.962 283.506 L 264.141 300.956 L 246.918 282.081 L 272.08 259.234 L 291.468 240.097 L 291.815 240.156 C 292.39 238.704 294.474 236.701 295.621 235.627 L 306.823 220.123 L 314.489 209.205 C 316.174 206.836 318.119 204.44 319.527 201.898 L 319.666 201.794 C 321.604 199.805 323.204 196.953 324.806 194.668 L 333.466 182.519 Z"/>
  <path fill="#77A17A" d="M 333.466 182.519 L 333.845 182.114 C 335.065 183.241 335.994 184.901 337.041 186.212 L 348.9 202.353 L 356.897 213.256 L 365.603 225.431 L 372.019 234.809 C 373.532 236.925 375.494 239.108 376.629 241.435 L 363.258 233.544 C 361.971 232.785 359.865 231.125 358.446 230.839 L 364.228 241.494 C 367.005 246.457 370.191 251.604 371.757 257.103 C 370.742 256.487 369.796 255.345 368.943 254.506 L 363.727 249.438 L 347.975 234.794 L 347.936 256.837 L 346.104 254.173 L 335.75 239.387 C 334.917 238.189 333.234 234.774 332.017 234.182 C 332.323 233.249 332.236 231.968 332.28 230.982 L 332.562 223.839 C 332.973 211.527 332.734 198.997 333.811 186.731 L 333.812 182.85 L 333.466 182.519 Z"/>
  <path fill="#AFC592" d="M 332.017 234.182 C 332.323 233.249 332.236 231.968 332.28 230.982 L 332.562 223.839 C 332.973 211.527 332.734 198.997 333.811 186.731 C 334.168 189.233 334.248 191.712 334.438 194.225 L 335.528 211.791 C 335.674 214.071 335.602 216.46 335.951 218.709 C 336.47 222.06 337.761 225.493 338.741 228.748 L 345.181 250.122 C 345.429 251.051 346.547 253.458 346.104 254.173 L 335.75 239.387 C 334.917 238.189 333.234 234.774 332.017 234.182 Z"/>
  <path fill="url(#gradient_2)" d="M 371.757 257.103 C 370.191 251.604 367.005 246.457 364.228 241.494 L 358.446 230.839 C 359.865 231.125 361.971 232.785 363.258 233.544 L 376.629 241.435 L 380.657 249.014 C 384.723 250.212 393.041 276.859 393.417 270.695 L 393.51 380.017 L 393.51 392.697 C 392.652 391.251 392.121 389.388 391.524 387.803 L 387.596 376.915 L 379.183 353.01 C 378.654 353.691 378.433 355.14 378.177 355.98 L 375.973 362.85 L 372.278 374.64 C 371.617 376.685 371.044 378.944 370.132 380.889 L 369.248 383.396 L 350.706 280.557 L 372.62 313.144 L 360.002 264.49 C 360.731 265.064 361.315 266.131 361.86 266.886 L 365.386 271.729 L 384.45 297.002 C 386.074 299.077 387.656 301.797 389.557 303.571 L 371.757 257.103 Z"/>
  <path fill="#04222E" d="M 370.132 380.889 C 369.798 379.921 369.777 378.58 369.66 377.55 L 368.851 368.202 L 365.598 334.489 L 372.917 354.559 C 373.869 357.21 374.636 360.15 375.878 362.661 L 375.973 362.85 L 372.278 374.64 C 371.617 376.685 371.044 378.944 370.132 380.889 Z"/>
  <path fill="#01060D" d="M 339.122 354.383 L 344.275 337.29 L 354.6 367.562 L 354.692 367.41 C 355.36 366.269 355.474 364.816 355.798 363.545 L 358.13 353.805 C 359.029 355.693 359.585 357.906 360.304 359.888 L 364.79 372.711 C 365.752 375.603 366.612 378.753 367.858 381.52 C 368.235 382.358 368.231 383.214 369.11 383.69 L 369.248 383.396 L 370.132 380.889 C 371.044 378.944 371.617 376.685 372.278 374.64 L 375.973 362.85 L 378.177 355.98 C 378.433 355.14 378.654 353.691 379.183 353.01 L 387.596 376.915 L 391.524 387.803 C 392.121 389.388 392.652 391.251 393.51 392.697 L 393.51 449.847 L 393.51 450.492 L 385.881 450.713 C 385.189 450.767 384.132 450.722 383.483 450.934 L 376.469 451.585 L 358.903 454.746 C 358.317 454.106 356.47 453.637 355.63 453.313 C 352.055 451.931 348.426 450.56 344.99 448.859 C 343.924 448.333 342.572 447.782 341.736 446.917 C 340.899 446.049 341.031 444.869 341.037 443.758 L 341.414 443.476 C 346.575 439.431 350.503 434.061 353.506 428.286 C 349.392 425.08 344.979 422.554 340.389 420.108 C 341.226 418.644 341.855 417.007 342.484 415.444 C 343.491 413.338 344.234 411.006 345.044 408.815 C 347.21 402.956 349.153 397.338 349.109 391.03 C 349.508 387.632 348.761 384.635 346.96 381.756 C 346.561 382.827 346.216 383.993 345.595 384.958 L 325.333 402.216 L 328.963 391.56 L 323.734 396.837 L 323.585 389.707 C 323.527 387.914 323.534 386.042 323.04 384.307 L 322.895 383.248 C 325.533 378.527 327.673 373.779 329.535 368.705 C 330.298 366.624 332.53 361.466 331.598 359.453 L 331.978 359.346 C 332.24 363.502 332.633 368.081 332.029 372.224 C 332.338 372.374 332.468 372.456 332.82 372.39 C 334.493 370.063 335.274 366.692 336.135 364 C 337.152 360.819 338.302 357.619 339.122 354.383 Z"/>
  <path fill="#0A394D" d="M 354.6 367.562 L 354.692 367.41 C 355.36 366.269 355.474 364.816 355.798 363.545 L 358.13 353.805 C 359.029 355.693 359.585 357.906 360.304 359.888 L 364.79 372.711 C 365.752 375.603 366.612 378.753 367.858 381.52 C 368.235 382.358 368.231 383.214 369.11 383.69 C 369.031 385.106 368.186 387.01 367.761 388.379 L 364.604 398.417 L 354.6 367.562 Z"/>
  <path fill="#7A653F" d="M 342.484 415.444 C 344.569 416.237 346.509 417.428 348.46 418.501 C 356.702 423.039 364.149 428.737 371.795 434.177 L 393.51 449.847 L 393.51 450.492 L 385.881 450.713 C 385.189 450.767 384.132 450.722 383.483 450.934 L 376.469 451.585 L 359.289 433.292 C 357.472 431.52 355.464 429.901 353.506 428.286 C 349.392 425.08 344.979 422.554 340.389 420.108 C 341.226 418.644 341.855 417.007 342.484 415.444 Z"/>
  <path fill="#CD4805" d="M 331.598 359.453 L 331.978 359.346 C 332.24 363.502 332.633 368.081 332.029 372.224 C 331.841 373.538 331.554 374.92 331.525 376.243 L 340.896 365.936 C 341.879 364.873 343.417 362.661 344.695 362.065 L 344.344 363.486 C 343.228 369.5 340.418 375.576 337.925 381.151 L 334.896 387.438 C 334.408 388.475 333.764 389.631 333.671 390.788 C 335.15 389.146 347.258 376.23 348.557 375.908 L 348.248 377.129 C 347.91 378.352 347.597 380.72 346.96 381.756 C 346.561 382.827 346.216 383.993 345.595 384.958 L 325.333 402.216 L 328.963 391.56 L 323.734 396.837 L 323.585 389.707 C 323.527 387.914 323.534 386.042 323.04 384.307 L 322.895 383.248 C 325.533 378.527 327.673 373.779 329.535 368.705 C 330.298 366.624 332.53 361.466 331.598 359.453 Z"/>
  <path fill="#F7A034" d="M 333.671 390.788 C 335.15 389.146 347.258 376.23 348.557 375.908 L 348.248 377.129 C 345.954 379.411 344.001 382.055 341.734 384.391 C 339.107 387.097 336.094 389.506 333.276 392.016 L 333.048 391.893 L 333.671 390.788 Z"/>
  <path fill="#F7A034" d="M 331.525 376.243 L 340.896 365.936 C 341.879 364.873 343.417 362.661 344.695 362.065 L 344.344 363.486 L 339.914 371.11 C 337.426 375.125 334.49 378.696 331.185 382.059 C 330.196 383.066 329.109 384.437 327.953 385.227 L 331.525 376.243 Z"/>
  <path fill="#512A0E" d="M 353.506 428.286 C 355.464 429.901 357.472 431.52 359.289 433.292 L 376.469 451.585 L 358.903 454.746 C 358.317 454.106 356.47 453.637 355.63 453.313 C 352.055 451.931 348.426 450.56 344.99 448.859 C 343.924 448.333 342.572 447.782 341.736 446.917 C 340.899 446.049 341.031 444.869 341.037 443.758 L 341.414 443.476 C 346.575 439.431 350.503 434.061 353.506 428.286 Z"/>
  <path fill="#167874" d="M 333.466 182.519 L 333.812 182.85 L 333.811 186.731 C 332.734 198.997 332.973 211.527 332.562 223.839 L 332.28 230.982 C 332.236 231.968 332.323 233.249 332.017 234.182 C 331.943 244.056 332.962 253.781 333.959 263.594 L 336.534 288.344 L 338.467 306.071 C 338.635 307.975 339.037 310.061 338.845 311.964 C 338.602 314.36 337.482 317.011 336.841 319.356 L 332.038 336.734 L 321.776 307.296 L 318.835 298.541 C 318.52 297.596 318.186 295.852 317.524 295.112 C 316.871 297.209 316.893 299.844 316.657 302.052 L 314.912 319.211 C 314.76 320.673 314.83 323.037 314.215 324.337 L 312.918 322.709 C 311.124 320.094 308.764 317.671 306.709 315.239 L 293.25 299.525 L 287.017 292.206 C 284.285 289.639 282.361 285.93 279.431 283.591 L 278.962 283.506 L 264.141 300.956 L 246.918 282.081 L 272.08 259.234 L 291.468 240.097 L 291.815 240.156 C 292.39 238.704 294.474 236.701 295.621 235.627 L 306.823 220.123 L 314.489 209.205 C 316.174 206.836 318.119 204.44 319.527 201.898 L 319.666 201.794 C 321.604 199.805 323.204 196.953 324.806 194.668 L 333.466 182.519 Z"/>
  <path fill="#175962" d="M 287.017 292.206 L 305.785 273.542 L 309.992 269.175 C 310.332 268.811 310.995 267.891 311.431 267.719 L 305.98 277.2 L 299.848 287.889 C 297.573 291.689 295.028 295.462 293.25 299.525 L 287.017 292.206 Z"/>
  <path fill="#FBF4C4" d="M 333.466 182.519 L 333.812 182.85 L 333.811 186.731 C 332.734 198.997 332.973 211.527 332.562 223.839 L 332.28 230.982 C 332.236 231.968 332.323 233.249 332.017 234.182 L 302.528 264.598 L 313.995 235.014 L 285.199 259.949 L 285.096 259.896 L 291.815 240.156 C 292.39 238.704 294.474 236.701 295.621 235.627 L 306.823 220.123 L 314.489 209.205 C 316.174 206.836 318.119 204.44 319.527 201.898 L 319.666 201.794 C 321.604 199.805 323.204 196.953 324.806 194.668 L 333.466 182.519 Z"/>
  <path fill="#721500" d="M 209.028 194.029 L 209.005 193.892 C 208.786 192.744 208 191.629 207.479 190.589 C 205.772 187.181 204.653 183.533 204.914 179.682 C 204.989 178.567 205.026 177.264 205.62 176.285 L 205.799 176.021 L 206.097 176.128 L 214.044 197.703 L 213.762 198.02 C 212.05 197.762 211.294 195.605 209.88 195.228 C 209.487 195.017 209.244 194.412 209.028 194.029 Z"/>
  <path fill="#901F01" d="M 283.455 214.751 C 285.912 213.319 288.178 211.27 290.247 209.326 C 293.293 206.464 296.241 203.355 298.687 199.956 C 297.587 205.424 294.65 209.96 290.444 213.632 C 288.958 214.93 287.16 216.151 285.815 217.575 C 285.168 217.687 285.002 218.069 284.48 218.349 C 283.532 218.856 282.159 219.245 281.108 219.44 L 283.741 215.521 L 283.579 214.977 L 283.455 214.751 Z"/>
  <path fill="#721500" d="M 285.71 217.542 L 285.905 217.492 C 287.496 217.066 289.074 216.153 290.551 215.424 C 296.856 212.315 302.105 208.65 307.467 204.105 C 304.378 211.562 298.509 216.519 291.135 219.583 L 286.65 221.322 C 289.656 220.813 301.665 218.023 303.901 219.3 C 303.884 219.759 303.929 219.83 303.582 220.149 C 298.884 224.463 291.817 224.978 285.92 226.165 C 282.86 225.679 279.821 225.138 276.926 223.999 L 281.003 219.407 C 282.054 219.212 283.427 218.823 284.375 218.316 C 284.897 218.036 285.063 217.654 285.71 217.542 Z"/>
  <path fill="#431006" d="M 277.031 224.032 C 279.926 225.171 282.965 225.712 286.025 226.198 L 286.164 226.264 C 289.061 227.532 296.508 225.906 298.515 227.823 C 298.279 228.595 298.067 228.864 297.346 229.262 C 292.741 231.806 286.139 231.969 281.037 231.604 C 283.221 232.65 285.487 233.538 287.748 234.401 C 288.645 234.742 290.163 235.126 290.64 236.021 C 290.529 236.508 290.521 236.613 290.093 236.892 C 287.93 238.303 282.393 237.49 279.884 236.922 L 274.599 235.331 L 270.137 230.955 C 272.679 229.055 275.218 226.648 277.031 224.032 Z"/>
  <path fill="#721500" d="M 182.569 193.803 C 182.059 192.869 181.078 191.422 181.35 190.327 L 181.432 190.094 C 183.225 189.829 191.174 195.192 193.353 196.294 C 195.182 197.218 197.139 197.922 199.014 198.755 C 194.374 194.778 190.754 191.126 187.866 185.677 C 187.03 184.1 186.014 181.925 185.868 180.137 L 185.853 178.975 L 186.051 178.808 C 188.528 182.441 191.956 185.356 195.152 188.356 C 197.722 190.767 200.325 193.457 203.333 195.312 C 199.477 190.595 196.196 186.137 194.858 180.068 C 194.494 178.421 194.197 176.799 194.356 175.103 L 194.669 173.112 C 197.683 179.631 201.544 186.08 205.801 191.857 C 206.339 192.589 207.164 194.026 207.94 194.45 L 207.063 198.422 C 206.782 198.491 206.001 198.584 205.799 198.733 C 205.545 198.919 205.179 199.67 204.993 199.963 C 203.859 201.743 203.031 203.439 200.619 203.308 C 197.081 203.114 193.841 201.455 190.416 200.984 L 190.355 200.926 C 190.07 200.043 186.892 198.2 186.037 197.452 C 184.763 196.337 183.662 195.091 182.569 193.803 Z"/>
  <path fill="#F7A034" d="M 214.044 197.703 L 216.878 201.622 C 216.4 199.901 215.529 198.254 214.865 196.594 C 213.265 192.599 212.944 188.633 214.174 184.502 C 215.297 186.457 215.978 188.664 216.872 190.732 C 217.941 193.204 219.217 195.59 220.527 197.942 C 220.675 198.207 221.23 199.418 221.45 199.532 C 224.378 204.561 227.942 209.283 232.216 213.251 C 234.383 215.263 237.133 217.327 240.016 218.117 C 241.479 218.518 243.195 218.513 244.704 218.426 C 248.202 217.083 251.511 215.325 255.229 217.008 C 257.209 217.905 258.859 219.745 260.669 220.968 C 259.084 221.632 257.55 222.28 255.878 222.698 C 253.774 223.223 250.699 223.073 248.888 224.217 L 248.775 224.287 C 246.445 225.752 245.789 229.33 243.493 231.159 C 242.605 231.865 241.569 232.342 240.488 232.666 C 236.527 233.854 232.233 234.18 228.192 235.238 C 226.773 235.609 225.274 236.027 223.924 236.6 C 223.103 236.949 222.189 237.579 221.341 237.789 L 221.735 237.257 C 222.449 236.682 223.131 235.736 223.735 235.036 L 228.644 228.747 C 226.638 228.553 224.626 228.133 222.763 227.348 C 221.732 226.914 220.311 226.387 219.879 225.318 C 220.421 224.452 221.46 224.223 222.373 223.9 C 219.36 223.552 216.849 223.282 214.339 221.458 C 215.41 220.683 216.551 220.2 217.759 219.686 C 215.218 218.878 213.012 218.02 210.923 216.325 L 210.923 216.155 L 212.859 216.242 C 212.616 215.729 210.612 214.821 209.985 214.319 C 208.87 213.424 208.003 212.348 207.216 211.164 L 210.301 211.617 C 209.285 210.256 207.988 209.117 206.984 207.735 C 206.273 206.756 205.815 205.614 205.365 204.497 C 206.02 204.812 206.702 205.211 207.426 205.321 L 206.359 200.723 L 206.71 200.719 L 207.063 198.422 L 207.94 194.45 L 208.304 193.751 L 209.028 194.029 C 209.244 194.412 209.487 195.017 209.88 195.228 C 211.294 195.605 212.05 197.762 213.762 198.02 L 214.044 197.703 Z"/>
  <path fill="#431006" d="M 252.073 218.714 L 252.505 218.642 C 253.22 218.55 253.765 218.743 254.327 219.185 C 254.739 219.509 254.762 219.566 254.827 220.08 L 254.078 220.606 C 253.341 220.818 252.884 220.955 252.129 220.714 C 251.512 220.129 251.525 220.083 251.486 219.283 L 252.073 218.714 Z"/>
  <path fill="#431006" d="M 214.044 197.703 L 216.878 201.622 C 216.4 199.901 215.529 198.254 214.865 196.594 C 213.265 192.599 212.944 188.633 214.174 184.502 C 215.297 186.457 215.978 188.664 216.872 190.732 C 217.941 193.204 219.217 195.59 220.527 197.942 C 220.675 198.207 221.23 199.418 221.45 199.532 C 224.378 204.561 227.942 209.283 232.216 213.251 C 234.383 215.263 237.133 217.327 240.016 218.117 C 241.479 218.518 243.195 218.513 244.704 218.426 C 242.686 219.446 240.029 220.291 237.74 219.822 C 235.834 219.432 233.952 218.712 232.237 217.804 C 229.273 216.234 226.518 213.998 223.802 212.035 C 221.992 210.727 219.553 209.26 218.107 207.56 C 214.937 203.833 212.519 199.344 209.88 195.228 C 211.294 195.605 212.05 197.762 213.762 198.02 L 214.044 197.703 Z"/>
  <path fill="#901F01" d="M 190.355 200.926 L 190.416 200.984 C 193.841 201.455 197.081 203.114 200.619 203.308 C 203.031 203.439 203.859 201.743 204.993 199.963 C 205.179 199.67 205.545 198.919 205.799 198.733 C 206.001 198.584 206.782 198.491 207.063 198.422 L 206.71 200.719 L 206.359 200.723 L 207.426 205.321 C 206.702 205.211 206.02 204.812 205.365 204.497 C 205.815 205.614 206.273 206.756 206.984 207.735 C 207.988 209.117 209.285 210.256 210.301 211.617 L 207.216 211.164 C 208.003 212.348 208.87 213.424 209.985 214.319 C 210.612 214.821 212.616 215.729 212.859 216.242 L 210.923 216.155 L 210.923 216.325 C 213.012 218.02 215.218 218.878 217.759 219.686 C 216.551 220.2 215.41 220.683 214.339 221.458 C 216.849 223.282 219.36 223.552 222.373 223.9 C 221.46 224.223 220.421 224.452 219.879 225.318 C 220.311 226.387 221.732 226.914 222.763 227.348 C 224.626 228.133 226.638 228.553 228.644 228.747 L 223.735 235.036 C 223.131 235.736 222.449 236.682 221.735 237.257 C 219.708 236.662 217.9 235.479 216.096 234.41 C 215.77 234.216 214.887 233.823 214.681 233.536 C 214.556 233.363 214.585 232.927 214.453 232.773 C 214.06 232.31 212.567 231.863 211.959 231.498 C 210.849 230.832 209.788 230.02 208.752 229.246 C 208.146 228.794 207.608 227.888 207.084 227.565 C 205.277 226.451 202.505 226.761 201.236 224.617 C 200.975 224.176 201.046 224.087 201.159 223.619 C 201.544 223.328 201.885 223.103 202.338 222.93 L 202.455 222.887 C 201.993 222.401 200.372 222.12 199.683 221.893 C 198.264 221.426 196.928 220.879 195.658 220.085 C 194.544 219.389 193.654 218.805 193.346 217.461 C 193.936 216.806 194.167 216.758 194.98 216.49 L 195.013 216.209 C 192.779 215.182 189.976 213.937 188.264 212.122 C 187.652 211.473 187.65 211.129 187.694 210.288 C 187.855 210.079 188.042 209.82 188.264 209.674 C 189.748 208.699 192.772 209.723 194.401 210.059 C 190.834 208.326 186.189 206.195 184.066 202.659 C 184.031 201.988 183.945 201.836 184.393 201.296 C 186.041 200.508 188.222 200.768 189.987 200.898 L 190.355 200.926 Z"/>
  <path fill="#29140D" d="M 270.41 218.937 L 283.455 214.751 L 283.579 214.977 L 283.741 215.521 L 281.108 219.44 L 277.031 224.032 C 275.218 226.648 272.679 229.055 270.137 230.955 L 274.599 235.331 L 274.758 235.49 C 276.24 236.947 280.49 239.168 280.722 241.17 C 280.521 241.461 280.329 241.759 280.094 242.024 C 279.007 242.329 278.029 242.577 276.888 242.6 L 272.742 243.695 C 272.056 243.881 271.345 244.199 270.631 244.142 C 270.075 244.999 269.59 245.581 268.55 245.799 C 267.865 245.942 267.196 245.85 266.604 245.465 C 265.233 244.573 264.286 242.464 263.573 241.037 C 263.002 243.576 262.285 247.902 259.889 249.397 C 259.345 249.737 258.364 250.028 257.722 249.884 C 257.138 249.753 256.757 249.408 256.478 248.888 C 255.471 247.006 256.902 243.789 257.555 241.959 C 255.852 244.482 252.931 249.304 249.791 249.999 C 249.39 250.087 248.957 250.022 248.557 249.955 C 248.131 249.454 247.853 249.126 247.878 248.432 C 247.906 247.684 248.252 246.792 248.472 246.073 C 246.828 247.414 244.737 249.311 242.46 249.09 C 242.032 249.048 241.805 248.798 241.473 248.546 C 241.173 246.907 242.073 245.458 242.874 244.084 C 241.043 245.215 238.33 246.966 236.058 246.44 C 235.525 246.316 234.956 245.911 234.664 245.446 C 234.321 244.9 234.306 244.33 234.493 243.725 C 234.548 243.547 234.657 243.388 234.755 243.231 C 233.391 243.068 231.895 243.412 230.507 243.414 C 228.364 246.332 226.318 249.738 223.67 252.215 C 222.934 252.903 222.098 253.522 221.076 253.68 C 220.695 253.739 220.32 253.652 219.952 253.556 C 219.447 253.071 219.352 253.055 219.339 252.36 C 219.333 252.043 219.351 251.81 219.455 251.506 L 219.122 251.409 C 217.837 252.335 216.549 253.313 215.133 254.03 C 214.931 254.133 213.183 254.907 213.169 254.946 L 211.214 255.088 L 210.773 254.311 C 210.719 253.528 211.32 252.874 211.74 252.258 C 212.97 251.517 214.118 250.46 215.214 249.534 C 216.848 248.153 218.826 246.572 219.866 244.675 C 219.859 244.448 219.901 244.087 219.844 243.878 C 219.705 243.365 216.539 243.073 215.76 242.056 L 216.038 240.868 C 217.736 240.112 219.372 239.16 220.869 238.058 L 221.086 237.986 L 221.341 237.789 C 222.189 237.579 223.103 236.949 223.924 236.6 C 225.274 236.027 226.773 235.609 228.192 235.238 C 232.233 234.18 236.527 233.854 240.488 232.666 C 241.569 232.342 242.605 231.865 243.493 231.159 C 245.789 229.33 246.445 225.752 248.775 224.287 L 248.888 224.217 C 250.699 223.073 253.774 223.223 255.878 222.698 C 257.55 222.28 259.084 221.632 260.669 220.968 L 261.21 221.383 L 262.862 222.683 C 265.006 220.932 267.871 219.993 270.41 218.937 Z"/>
  <path fill="#983B07" d="M 270.41 218.937 L 283.455 214.751 L 283.579 214.977 C 281.433 218.158 278.317 221.145 275.663 223.95 C 274.83 224.83 273.712 226.263 272.638 226.832 C 270.512 227.958 267.191 228.445 264.822 228.905 L 253.924 230.75 L 260.358 224.905 C 261.003 224.344 262.514 223.374 262.862 222.683 C 265.006 220.932 267.871 219.993 270.41 218.937 Z"/>
  <path fill="#CD4805" d="M 260.669 220.968 L 261.21 221.383 L 253.122 229.974 C 250.992 232.413 249.104 235.187 246.669 237.336 C 243.352 240.261 238.057 241.32 233.758 241.464 C 229.319 241.613 224.645 240.782 221.086 237.986 L 221.341 237.789 C 222.189 237.579 223.103 236.949 223.924 236.6 C 225.274 236.027 226.773 235.609 228.192 235.238 C 232.233 234.18 236.527 233.854 240.488 232.666 C 241.569 232.342 242.605 231.865 243.493 231.159 C 245.789 229.33 246.445 225.752 248.775 224.287 L 248.888 224.217 C 250.699 223.073 253.774 223.223 255.878 222.698 C 257.55 222.28 259.084 221.632 260.669 220.968 Z"/>
  <path fill="#431006" d="M 207.899 254.209 C 206.631 254.792 205.316 255.368 203.942 255.643 C 202.821 255.866 200.867 256.155 199.886 255.453 C 199.316 255.045 199.28 254.851 199.167 254.163 C 199.504 253.281 200.624 252.813 201.403 252.356 C 200.427 252.093 199.361 252.281 198.382 251.964 C 197.634 251.723 197.453 251.494 197.09 250.823 C 197.092 250.458 197.107 250.09 197.256 249.751 C 198.301 247.375 212.89 242.089 216.038 240.868 L 215.76 242.056 C 216.539 243.073 219.705 243.365 219.844 243.878 C 219.901 244.087 219.859 244.448 219.866 244.675 C 218.826 246.572 216.848 248.153 215.214 249.534 C 214.118 250.46 212.97 251.517 211.74 252.258 C 210.394 252.754 209.151 253.514 207.899 254.209 Z"/>
  <path fill="#FDFAF8" d="M 238.785 353.988 L 240.528 355.229 C 241.049 356.121 242.045 356.803 242.585 357.681 C 244.611 360.975 245.852 365.641 246.043 369.331 C 246.323 374.738 243.07 383.211 239.23 386.117 L 237.259 383.601 C 234.977 380.462 232.236 376.82 228.724 371.785 C 230.456 364.11 231.383 356.668 238.785 353.988 Z" style=""/>
  <path fill="#FDFAF8" d="M 230.054 371.387 L 230.957 372.708 C 231.104 373.058 231.384 373.325 231.536 373.67 C 232.106 374.962 232.968 376.763 232.878 378.209 C 232.748 380.288 234.095 387.416 233.508 388.65 L 229.907 384.027 C 228.706 382.666 228.228 382.294 227.4 380.978 C 227.891 377.959 228.6 367.26 230.054 371.387 Z" style=""/>
</svg>