<?xml version="1.0" encoding="utf-8"?>
<svg viewBox="35.622 -42.389 331.346 549.474" xmlns="http://www.w3.org/2000/svg">
  <defs>
    <linearGradient id="gradient_1" gradientUnits="userSpaceOnUse" x1="423.62943" y1="1071.6398" x2="331.88748" y2="1274.1263" gradientTransform="matrix(0.326327, 0, 0, 0.326327, 34.57169, -50.222565)">
      <stop offset="0" stop-color="#D1C966"/>
      <stop offset="1" stop-color="#3B8075"/>
    </linearGradient>
    <linearGradient id="gradient_2" gradientUnits="userSpaceOnUse" x1="677.07983" y1="1268.6522" x2="734.12524" y2="1059.6174" gradientTransform="matrix(0.326327, 0, 0, 0.326327, 34.57169, -50.222565)">
      <stop offset="0" stop-color="#377C74"/>
      <stop offset="1" stop-color="#A4B978"/>
    </linearGradient>
    <linearGradient id="gradient_3" gradientUnits="userSpaceOnUse" x1="580.94342" y1="1062.0227" x2="504.22208" y2="1273.3939" gradientTransform="matrix(0.326327, 0, 0, 0.326327, 34.57169, -50.222565)">
      <stop offset="0" stop-color="#C3C468"/>
      <stop offset="1" stop-color="#337A73"/>
    </linearGradient>
  </defs>
  <path fill="#FAF5C2" d="M 52.372 57.771 C 52.802 55.334 53.364 52.627 54.755 50.55 L 55.508 50.34 C 56.288 51.044 56.361 51.854 56.633 52.863 C 57.335 55.466 57.707 58.112 58.476 60.707 C 56.536 59.602 54.467 58.544 52.372 57.771 Z"/>
  <path fill="#FAF5C2" d="M 64.024 25.824 L 64.828 24.395 L 70.17 22.858 C 71.211 22.545 72.135 22.03 73.179 22.379 C 72.545 23.527 71.64 24.8 71.669 26.147 L 71.403 25.572 C 69.612 26.794 68.185 28.613 66.247 29.601 C 65.406 29.597 65.059 29.674 64.344 29.185 C 63.928 27.985 63.912 27.083 64.024 25.824 Z"/>
  <path fill="#02060C" d="M 200.2 409.834 C 205.974 409.146 361.312 317.161 368.165 312.821 L 368.045 392.039 C 368.042 395.328 367.787 398.869 368.189 402.125 L 368.225 402.413 L 368.186 461.801 L 332.682 471.183 L 254.575 492.211 L 221.635 501.133 L 208.573 504.755 C 206.369 505.401 204.095 505.933 201.973 506.818 L 200.536 506.818 L 35.377 461.706 L 35.273 458.528 L 96.131 467.446 L 119 470.869 C 122.316 471.313 125.916 471.989 129.251 471.986 C 145.315 474.267 161.31 473.585 177.305 471.085 L 200.2 409.834 Z"/>
  <path fill="#0B2028" d="M 90.497 115.241 L 155.62 165.562 L 164.42 172.008 C 165.809 173.012 167.974 174.157 169.008 175.504 C 169.903 176.668 170.511 178.617 171.113 179.982 L 175.656 190.602 C 176.428 192.499 177.056 194.562 177.952 196.394 C 179.081 198.703 180.935 200.806 182.299 203.008 C 185.529 208.219 188.424 213.76 190.79 219.407 L 191.262 220.9 L 193.574 228.035 L 194.863 231.608 L 186.54 239.923 C 185.135 241.327 183.435 242.749 182.225 244.315 L 181.615 245.276 C 181.46 245.385 181.089 245.578 180.987 245.718 C 180.511 246.373 180.237 248.494 180 249.375 C 178.364 255.449 177.099 261.783 175.219 267.766 L 174.923 268.63 C 174.512 272.356 173.033 276.336 172.111 279.994 C 171.019 284.328 170.209 288.949 168.853 293.194 L 168.547 294.656 L 167.86 298.552 L 167.119 296.836 C 165.834 301.786 164.601 306.672 162.769 311.465 C 159.681 319.548 154.778 327.573 148.757 333.789 C 146.449 336.171 143.756 337.986 141.424 340.247 L 141.272 340.322 C 137.854 342.016 134.853 343.794 131.18 345.002 C 130.048 340.156 127.995 335.219 125.664 330.839 C 124.761 329.749 124.209 328.154 123.572 326.884 L 119.785 319.486 C 117.113 319.199 114.135 319.441 111.434 319.431 L 92.6 319.454 L 92.429 319.372 L 67.883 319.568 C 65.75 315.107 64.257 309.798 62.768 305.066 C 60.719 298.559 58.492 291.997 57.129 285.307 C 55.513 277.374 55.05 268.711 54.63 260.626 L 35.231 270.685 C 35.2 271.762 35.271 272.975 35.079 274.028 C 34.696 271.705 34.907 269.178 35.083 266.845 C 35.532 260.872 36.831 255.087 37.834 249.201 L 42.831 221.174 L 51.442 171.771 L 58.106 217.421 L 88.203 122.109 L 89.508 118.091 C 89.972 117.294 90.212 116.128 90.497 115.241 Z"/>
  <path fill="#387572" d="M 89.508 118.091 C 91.455 119.023 93.304 120.152 95.176 121.224 C 95.679 121.511 96.69 121.92 97.076 122.312 C 97.613 122.858 98.17 124.83 98.517 125.593 L 104.198 137.993 L 133.143 201.852 L 116.846 227.506 L 98.964 162.566 L 93.1 140.301 L 89.878 127.708 C 89.442 126.021 89.158 123.536 88.203 122.109 L 89.508 118.091 Z"/>
  <path fill="#9EAB8A" d="M 90.497 115.241 L 155.62 165.562 L 133.143 201.852 L 104.198 137.993 L 98.517 125.593 C 98.17 124.83 97.613 122.858 97.076 122.312 C 96.69 121.92 95.679 121.511 95.176 121.224 C 93.304 120.152 91.455 119.023 89.508 118.091 C 89.972 117.294 90.212 116.128 90.497 115.241 Z"/>
  <path fill="#CF6429" d="M 54.63 260.626 C 54.176 257.122 54.142 253.498 53.9 249.968 L 52.499 222.959 C 52.362 218.857 51.727 214.104 52.228 210.061 L 59.077 236.475 L 69.063 271 C 72.218 281.143 75.559 291.233 80.25 300.785 C 78.551 291.882 76.487 283.196 75.83 274.12 C 75.493 269.464 75.848 264.769 76.171 260.121 C 77.127 246.368 79.536 232.48 82.215 218.965 L 86.245 259.804 L 91.425 287.262 L 93.377 278.944 L 100.206 256.193 C 100.934 253.957 101.493 250.982 102.605 248.961 C 103.05 263.194 104.602 276.571 108.184 290.375 C 110.19 296.937 112.327 303.48 115.08 309.775 C 116.514 313.054 118.457 316.184 119.785 319.486 C 117.113 319.199 114.135 319.441 111.434 319.431 L 92.6 319.454 L 92.429 319.372 L 67.883 319.568 C 65.75 315.107 64.257 309.798 62.768 305.066 C 60.719 298.559 58.492 291.997 57.129 285.307 C 55.513 277.374 55.05 268.711 54.63 260.626 Z"/>
  <path fill="#02060C" d="M 193.574 228.035 L 194.863 231.608 L 186.54 239.923 C 185.135 241.327 183.435 242.749 182.225 244.315 L 181.615 245.276 C 181.46 245.385 181.089 245.578 180.987 245.718 C 180.511 246.373 180.237 248.494 180 249.375 C 178.364 255.449 177.099 261.783 175.219 267.766 L 174.923 268.63 C 174.512 272.356 173.033 276.336 172.111 279.994 C 171.019 284.328 170.209 288.949 168.853 293.194 L 168.547 294.656 L 167.86 298.552 L 167.119 296.836 C 165.834 301.786 164.601 306.672 162.769 311.465 C 159.681 319.548 154.778 327.573 148.757 333.789 C 146.449 336.171 143.756 337.986 141.424 340.247 L 141.272 340.322 C 137.854 342.016 134.853 343.794 131.18 345.002 C 130.048 340.156 127.995 335.219 125.664 330.839 C 124.761 329.749 124.209 328.154 123.572 326.884 L 119.785 319.486 C 118.457 316.184 116.514 313.054 115.08 309.775 C 112.327 303.48 110.19 296.937 108.184 290.375 C 114.19 281.492 120.663 273.477 128.098 265.753 C 142.853 250.718 161.124 239.604 180.812 232.317 C 185.027 230.756 189.224 229.189 193.574 228.035 Z"/>
  <path fill="white" d="M 127.942 314.043 L 129.111 309.38 C 131.667 300.207 136.306 287.115 145.193 282.21 C 147.587 280.892 150.525 280.268 153.194 281.104 C 159.185 282.98 162.784 288.237 165.551 293.521 C 163.204 295.847 161.089 298.406 158.679 300.661 C 150.131 308.656 140.167 313.329 128.511 314.539 L 127.942 314.043 Z"/>
  <path fill="#FAF5C2" d="M 165.551 293.521 L 167.119 296.836 C 165.834 301.786 164.601 306.672 162.769 311.465 C 159.681 319.548 154.778 327.573 148.757 333.789 C 146.449 336.171 143.756 337.986 141.424 340.247 L 141.272 340.322 C 137.854 342.016 134.853 343.794 131.18 345.002 C 130.048 340.156 127.995 335.219 125.664 330.839 C 125.941 325.138 126.671 319.617 127.942 314.043 L 128.511 314.539 C 140.167 313.329 150.131 308.656 158.679 300.661 C 161.089 298.406 163.204 295.847 165.551 293.521 Z"/>
  <path fill="#ECA55A" d="M 35.079 274.028 C 35.271 272.975 35.2 271.762 35.231 270.685 L 54.63 260.626 C 55.05 268.711 55.513 277.374 57.129 285.307 C 58.492 291.997 60.719 298.559 62.768 305.066 C 64.257 309.798 65.75 315.107 67.883 319.568 L 92.429 319.372 L 92.6 319.454 L 111.434 319.431 C 114.135 319.441 117.113 319.199 119.785 319.486 L 123.572 326.884 C 124.209 328.154 124.761 329.749 125.664 330.839 C 127.995 335.219 130.048 340.156 131.18 345.002 C 134.853 343.794 137.854 342.016 141.272 340.322 L 141.424 340.247 C 143.756 337.986 146.449 336.171 148.757 333.789 C 154.778 327.573 159.681 319.548 162.769 311.465 C 164.601 306.672 165.834 301.786 167.119 296.836 L 167.86 298.552 L 171.231 308.055 L 181.952 321.741 C 181.145 329.482 181.961 336.798 183.505 344.385 C 184.646 348.33 186.004 352.044 187.966 355.66 C 188.906 357.396 189.99 359.031 191.146 360.63 C 191.629 361.295 192.717 362.379 192.834 363.123 L 201.269 363.058 C 201.797 364.79 201.441 367.466 201.444 369.349 L 201.46 384.527 C 201.462 387.065 201.275 389.823 201.531 392.339 C 201.115 398.278 201.443 404.449 201.446 410.414 C 201.447 412.18 201.805 414.79 201.285 416.448 L 201.443 416.497 L 201.553 466.813 L 177.305 471.085 C 161.31 473.585 145.315 474.267 129.251 471.986 C 125.916 471.989 122.316 471.313 119 470.869 L 96.131 467.446 L 35.273 458.528 L 35.274 415.678 L 35.311 382.807 L 35.169 316.713 L 35.157 277.697 L 35.079 274.028 Z"/>
  <path fill="#02060C" d="M 35.079 274.028 C 35.271 272.975 35.2 271.762 35.231 270.685 L 54.63 260.626 C 55.05 268.711 55.513 277.374 57.129 285.307 C 58.492 291.997 60.719 298.559 62.768 305.066 C 64.257 309.798 65.75 315.107 67.883 319.568 L 75.281 337.598 L 68.968 333.143 C 55.115 322.365 43.086 309.086 37.868 291.954 C 36.471 287.366 35.751 282.448 35.157 277.697 L 35.079 274.028 Z"/>
  <path fill="#2E150B" d="M 67.883 319.568 L 92.429 319.372 L 92.6 319.454 L 111.434 319.431 C 114.135 319.441 117.113 319.199 119.785 319.486 L 123.572 326.884 C 124.209 328.154 124.761 329.749 125.664 330.839 C 127.995 335.219 130.048 340.156 131.18 345.002 L 134.212 361.912 L 106.343 353.591 C 97.715 350.566 89.357 346.421 81.537 341.703 C 79.461 340.45 77.105 339.197 75.281 337.598 L 67.883 319.568 Z"/>
  <path fill="#5B240F" d="M 67.883 319.568 L 92.429 319.372 L 92.6 319.454 C 92.675 321.829 93.958 324.907 94.714 327.184 C 97.796 336.468 101.051 345.305 106.343 353.591 C 97.715 350.566 89.357 346.421 81.537 341.703 C 79.461 340.45 77.105 339.197 75.281 337.598 L 67.883 319.568 Z"/>
  <path fill="url(#gradient_1)" d="M 167.119 296.836 L 167.86 298.552 L 171.231 308.055 L 181.952 321.741 C 181.145 329.482 181.961 336.798 183.505 344.385 C 184.646 348.33 186.004 352.044 187.966 355.66 C 188.906 357.396 189.99 359.031 191.146 360.63 C 191.629 361.295 192.717 362.379 192.834 363.123 L 163.66 362.663 L 134.212 361.912 L 131.18 345.002 C 134.853 343.794 137.854 342.016 141.272 340.322 L 141.424 340.247 C 143.756 337.986 146.449 336.171 148.757 333.789 C 154.778 327.573 159.681 319.548 162.769 311.465 C 164.601 306.672 165.834 301.786 167.119 296.836 Z"/>
  <path fill="#2E150B" d="M 171.231 308.055 L 181.952 321.741 C 181.145 329.482 181.961 336.798 183.505 344.385 C 184.646 348.33 186.004 352.044 187.966 355.66 C 188.906 357.396 189.99 359.031 191.146 360.63 C 191.629 361.295 192.717 362.379 192.834 363.123 L 163.66 362.663 C 167.488 358.296 170.574 353.007 172.021 347.368 C 176.297 334.553 174.786 320.785 171.231 308.055 Z"/>
  <path fill="#606A48" d="M 35.169 316.713 L 35.249 316.827 C 36.066 318.064 36.303 320.129 36.765 321.562 C 37.416 323.579 38.213 325.582 39.038 327.534 C 43.35 337.748 54.558 355.559 66.055 358.133 L 77.332 360.088 C 82.773 361.149 88.142 362.738 93.213 364.989 C 100.794 368.351 107.759 373.422 114.815 377.768 C 120.805 381.456 126.841 385.055 133.249 387.986 C 147.463 394.48 163.448 397.772 179.081 396.823 C 184.939 396.467 190.68 395.514 196.339 393.971 C 198.034 393.51 199.955 393.122 201.531 392.339 C 201.115 398.278 201.443 404.449 201.446 410.414 C 201.447 412.18 201.805 414.79 201.285 416.448 C 191.752 417.822 182.106 420.817 173.41 424.903 C 167.408 427.723 161.933 431.24 155.351 432.65 C 151.723 433.423 148.644 433.113 145.056 432.249 C 134.82 429.785 125.396 424.241 115.24 421.424 C 107.081 419.16 98.32 419.972 90.473 416.262 C 85.706 414.01 81.39 410.897 77.04 407.947 L 60.04 396.721 L 44.368 387.731 C 41.362 386.109 38.177 384.664 35.311 382.807 L 35.169 316.713 Z"/>
  <path fill="#0B2028" d="M 35.311 382.807 C 38.177 384.664 41.362 386.109 44.368 387.731 L 60.04 396.721 L 77.04 407.947 C 81.39 410.897 85.706 414.01 90.473 416.262 C 98.32 419.972 107.081 419.16 115.24 421.424 C 125.396 424.241 134.82 429.785 145.056 432.249 C 148.644 433.113 151.723 433.423 155.351 432.65 C 161.933 431.24 167.408 427.723 173.41 424.903 C 182.106 420.817 191.752 417.822 201.285 416.448 L 201.443 416.497 L 201.553 466.813 L 177.305 471.085 C 161.31 473.585 145.315 474.267 129.251 471.986 C 125.916 471.989 122.316 471.313 119 470.869 L 96.131 467.446 L 35.273 458.528 L 35.274 415.678 L 35.311 382.807 Z"/>
  <path fill="#0B2028" d="M 198.972 49.317 L 244.861 -35.909 L 264.559 10.847 C 264.727 10.332 264.867 9.409 265.311 9.122 L 272.769 29.199 L 290.07 76.217 L 294.316 88.056 C 294.859 89.561 295.351 91.596 296.191 92.916 L 299.929 82.188 L 306.683 62.344 L 309.726 53.328 C 310.145 52.146 310.52 50.577 311.18 49.525 C 313.409 54.756 315.059 60.392 316.899 65.778 L 327.533 97.526 L 330.882 107.571 C 331.224 108.584 331.537 110.256 332.172 111.087 L 341.059 71.979 L 368.499 270.331 L 368.359 277.596 L 368.349 307.223 L 368.319 313.795 C 368.316 314.738 368.456 315.942 368.241 316.859 L 368.13 316.987 C 367.295 318.031 366.939 319.561 366.443 320.805 L 363.943 326.254 C 360.016 333.995 355.351 341.151 349.717 347.763 C 341.143 357.827 329.238 365.055 318.566 372.704 L 293.604 390.857 C 273.652 404.42 252.425 413.067 228.445 416.197 C 222.582 416.96 216.671 417.019 210.768 416.908 C 207.676 416.853 204.507 416.915 201.443 416.497 L 201.285 416.448 C 201.805 414.79 201.447 412.18 201.446 410.414 C 201.443 404.449 201.115 398.278 201.531 392.339 C 201.275 389.823 201.462 387.065 201.46 384.527 L 201.444 369.349 C 201.441 367.466 201.797 364.79 201.269 363.058 L 192.834 363.123 C 192.717 362.379 191.629 361.295 191.146 360.63 C 189.99 359.031 188.906 357.396 187.966 355.66 C 186.004 352.044 184.646 348.33 183.505 344.385 C 181.961 336.798 181.145 329.482 181.952 321.741 L 171.231 308.055 L 167.86 298.552 L 168.547 294.656 L 168.853 293.194 C 170.209 288.949 171.019 284.328 172.111 279.994 C 173.033 276.336 174.512 272.356 174.923 268.63 L 175.219 267.766 C 177.099 261.783 178.364 255.449 180 249.375 C 180.237 248.494 180.511 246.373 180.987 245.718 C 181.089 245.578 181.46 245.385 181.615 245.276 L 182.225 244.315 C 183.435 242.749 185.135 241.327 186.54 239.923 L 194.863 231.608 L 193.574 228.035 L 191.262 220.9 L 190.79 219.407 C 188.424 213.76 185.529 208.219 182.299 203.008 C 180.935 200.806 179.081 198.703 177.952 196.394 C 177.056 194.562 176.428 192.499 175.656 190.602 L 171.113 179.982 C 170.511 178.617 169.903 176.668 169.008 175.504 C 167.974 174.157 165.809 173.012 164.42 172.008 L 155.62 165.562 L 90.497 115.241 L 67.38 96.634 C 64.297 94.097 60.256 91.391 57.737 88.331 C 55.165 85.208 53.332 80.917 52.126 77.099 C 50.634 72.231 50.492 67.43 51.304 62.42 L 52.372 57.771 C 54.467 58.544 56.536 59.602 58.476 60.707 L 64.893 64.672 L 65.182 64.488 C 64.696 62.549 64.673 60.495 64.608 58.503 C 64.365 51.066 65.928 43.672 68.29 36.657 L 71.546 27.984 L 71.669 26.147 C 71.64 24.8 72.545 23.527 73.179 22.379 C 72.135 22.03 71.211 22.545 70.17 22.858 L 64.828 24.395 L 64.024 25.824 C 63.125 25.506 62.615 25.431 61.674 25.648 L 61.489 25.692 L 61.266 25.391 C 62.728 20.638 64.404 15.798 67.423 11.796 C 72.622 5.042 79.282 -1.14 88.152 -2.24 C 96.443 -3.268 106.594 0.881 113.011 5.97 C 119.263 10.929 122.833 18.166 126.524 25.07 C 128.866 29.449 131.358 34.27 135.39 37.348 C 140.745 41.436 148.075 44.034 154.208 46.838 C 160.238 49.594 165.284 52.778 172.172 51.984 C 176.027 51.54 179.991 50.359 183.717 49.299 C 186.395 48.538 189.07 47.594 191.89 47.709 C 194.309 47.807 196.679 48.599 198.972 49.317 Z"/>
  <path fill="#ECA55A" d="M 347.617 203.593 C 348.238 200.457 348.569 196.883 349.664 193.891 L 349.743 199.337 C 349.685 200.317 349.901 203.824 349.446 204.556 C 348.956 204.291 348.395 203.892 347.828 203.918 L 347.617 203.593 Z"/>
  <path fill="#02060C" d="M 245.167 112.419 L 246.844 114.026 L 272.614 141.264 L 260.153 140.837 C 259.103 140.813 257.122 140.538 256.21 141.021 C 255.39 140.48 245.951 115.353 245.167 112.419 Z"/>
  <path fill="#CF6429" d="M 218.088 209.863 C 218.392 213.723 217.92 217.886 217.746 221.768 C 217.68 223.257 217.854 225.293 217.435 226.706 L 189.937 240.674 L 184.537 243.476 C 183.824 243.845 183.051 244.38 182.225 244.315 C 183.435 242.749 185.135 241.327 186.54 239.923 L 194.863 231.608 L 193.574 228.035 L 191.262 220.9 L 203.915 216.738 C 206.841 215.769 209.81 214.399 212.923 214.38 L 218.088 209.863 Z"/>
  <path fill="#2E150B" d="M 191.262 220.9 L 203.915 216.738 C 206.841 215.769 209.81 214.399 212.923 214.38 L 194.863 231.608 L 193.574 228.035 L 191.262 220.9 Z"/>
  <path fill="#02060C" d="M 281.808 247.505 L 299.864 256.011 C 304.742 259.084 308.798 262.016 312.87 266.113 L 307.341 293.605 L 294.973 275.059 C 294.231 273.686 293.798 271.956 293.25 270.479 C 292.311 267.951 291.261 265.455 290.054 263.043 L 284.729 252.943 C 283.804 251.27 282.273 249.326 281.808 247.505 Z"/>
  <path fill="white" d="M 259.097 282.05 C 262.034 281.055 264.563 280.866 267.422 282.275 C 270.796 283.943 273.236 286.805 275.467 289.742 C 270.337 298.934 263.402 309.148 252.761 312.164 C 248.209 313.453 244.31 313.443 239.662 313.061 L 240.678 309.217 C 243.668 298.876 249.363 287.451 259.097 282.05 Z"/>
  <path fill="#CF6429" d="M 181.615 245.276 L 218.827 233.07 L 221.453 244.928 C 222.001 247.621 222.664 250.449 222.859 253.189 L 221.707 253.681 L 189.553 263.481 L 180.794 266.276 C 179.315 266.773 177.808 267.444 176.299 267.821 C 175.778 267.952 175.729 267.964 175.219 267.766 C 177.099 261.783 178.364 255.449 180 249.375 C 180.237 248.494 180.511 246.373 180.987 245.718 C 181.089 245.578 181.46 245.385 181.615 245.276 Z"/>
  <path fill="#02060C" d="M 256.229 141.195 L 280.835 168.48 L 259.761 168.106 L 282.653 197.201 L 267.673 196.915 C 266.037 196.895 264.142 196.584 262.541 196.765 L 262.646 196.926 C 264.678 199.964 267.427 202.799 269.84 205.546 L 278.21 215.272 C 281.251 218.733 284.533 222.312 287.181 226.087 L 277.495 225.803 C 273.643 225.005 268.806 225.569 264.864 225.6 L 261.93 196.185 C 261.862 189.259 260.532 182.028 259.862 175.115 L 257.772 153.648 C 257.329 149.7 256.954 145.816 256.114 141.925 L 256.229 141.195 Z"/>
  <path fill="#02060C" d="M 174.875 163.101 C 186.306 168.063 199.877 169.761 211.717 165.073 C 217.889 162.629 222.837 159.281 228.144 155.369 L 224.796 172.077 L 220.361 195.09 L 218.82 205.192 C 218.608 206.682 218.599 208.465 218.088 209.863 L 212.923 214.38 C 209.81 214.399 206.841 215.769 203.915 216.738 L 191.262 220.9 L 190.79 219.407 L 217.496 209.332 L 208.727 194.839 C 207.852 193.379 206.794 190.978 205.566 189.831 L 181.146 194.869 L 203.155 185.194 L 200.644 180.737 C 200.452 180.379 200.043 179.325 199.763 179.09 C 199.44 178.819 198.327 178.569 197.872 178.408 L 193.298 176.676 C 187.858 174.305 183.385 170.834 179.013 166.9 C 177.692 165.711 176.245 164.655 175.065 163.319 L 174.875 163.101 Z"/>
  <path fill="url(#gradient_2)" d="M 275.467 289.742 C 277.154 292.101 278.642 294.477 279.916 297.084 C 283.779 305.089 286.619 313.081 288.12 321.852 C 287.559 322.834 285.801 323.471 284.869 324.202 C 283.731 325.093 282.684 326.137 281.7 327.194 C 279.221 329.86 277.731 332.902 275.939 336.018 C 273.157 343.419 270.052 352.785 271.659 360.803 L 250.472 362.604 C 245.592 356.74 242.403 351.202 239.971 343.958 C 237.723 334.954 237.167 325.83 238.966 316.7 L 239.662 313.061 C 244.31 313.443 248.209 313.453 252.761 312.164 C 263.402 309.148 270.337 298.934 275.467 289.742 Z"/>
  <path fill="#FAF5C2" d="M 275.467 289.742 C 277.154 292.101 278.642 294.477 279.916 297.084 C 276.877 308.29 272.808 319.294 265.651 328.575 C 263.837 330.927 261.523 332.849 259.71 335.144 C 258.387 336.119 257.157 337.222 255.789 338.133 C 250.899 341.386 245.843 343.305 239.971 343.958 C 237.723 334.954 237.167 325.83 238.966 316.7 L 239.662 313.061 C 244.31 313.443 248.209 313.453 252.761 312.164 C 263.402 309.148 270.337 298.934 275.467 289.742 Z"/>
  <path fill="#CF6429" d="M 349.743 199.337 C 350.052 202.11 349.952 204.949 349.96 207.738 L 349.858 220.585 C 349.804 222.874 350.034 225.637 349.614 227.868 L 349.444 232.86 C 347.99 235.949 347.784 240.306 347.076 243.724 L 344.319 254.491 C 338.322 274.771 328.719 293.906 317.116 311.527 C 315.422 314.102 313.857 317.196 311.917 319.545 L 296.86 319.676 C 297.594 315.916 297.728 311.824 297.781 308 C 297.878 300.892 297.404 293.814 296.48 286.766 L 295.471 279.544 C 295.257 278.075 294.91 276.538 294.973 275.059 L 307.341 293.605 L 312.87 266.113 L 317.785 231.284 L 318.752 219.94 C 318.901 217.777 318.827 215.341 319.343 213.255 L 327.534 253.644 C 328.304 257.042 329.044 260.425 330.06 263.76 C 330.381 264.814 330.679 266.312 331.317 267.185 L 347.617 203.593 L 347.828 203.918 C 348.395 203.892 348.956 204.291 349.446 204.556 C 349.901 203.824 349.685 200.317 349.743 199.337 Z"/>
  <path fill="#CF6429" d="M 225.282 260.458 C 225.436 260.573 225.633 260.645 225.745 260.801 C 226.576 261.959 227.088 265.2 227.518 266.7 L 232.833 284.876 L 217.593 286.563 C 219.463 289.092 221.222 291.775 222.561 294.627 L 222.178 294.79 L 221.073 292.757 C 218.849 294.757 217.014 297.678 215.092 299.985 C 210.189 305.869 203.667 311.531 195.959 313.009 C 193.891 313.404 191.571 313.335 189.473 313.221 C 187.485 313.113 185.626 312.712 183.701 312.235 L 181.952 321.741 L 171.231 308.055 L 167.86 298.552 L 168.547 294.656 L 168.853 293.194 C 170.209 288.949 171.019 284.328 172.111 279.994 C 173.033 276.336 174.512 272.356 174.923 268.63 L 225.282 260.458 Z"/>
  <path fill="#0B2028" d="M 168.853 293.194 L 193.579 289.02 L 189.978 294.93 L 168.547 294.656 L 168.853 293.194 Z"/>
  <path fill="#CF6429" d="M 168.547 294.656 L 189.978 294.93 L 183.701 312.235 L 181.952 321.741 L 171.231 308.055 L 167.86 298.552 L 168.547 294.656 Z"/>
  <path fill="white" d="M 193.579 289.02 C 194.787 287.337 196.05 285.653 197.547 284.217 C 199.883 281.975 203.238 279.72 206.612 279.857 C 211.253 280.043 214.656 283.339 217.593 286.563 C 219.463 289.092 221.222 291.775 222.561 294.627 L 222.178 294.79 L 221.073 292.757 C 218.849 294.757 217.014 297.678 215.092 299.985 C 210.189 305.869 203.667 311.531 195.959 313.009 C 193.891 313.404 191.571 313.335 189.473 313.221 C 187.485 313.113 185.626 312.712 183.701 312.235 L 189.978 294.93 L 193.579 289.02 Z"/>
  <path fill="url(#gradient_3)" d="M 183.701 312.235 C 185.626 312.712 187.485 313.113 189.473 313.221 C 191.571 313.335 193.891 313.404 195.959 313.009 C 203.667 311.531 210.189 305.869 215.092 299.985 C 217.014 297.678 218.849 294.757 221.073 292.757 L 222.178 294.79 L 222.561 294.627 C 222.857 295.12 223.175 295.609 223.412 296.131 C 225.947 301.744 228.222 307.634 229.608 313.645 C 231.378 321.581 232.516 329.658 231.261 337.774 C 231.132 338.612 231.052 340.104 230.676 340.828 C 229.666 348.569 225.179 357.487 219.758 363.08 L 201.269 363.058 L 192.834 363.123 C 192.717 362.379 191.629 361.295 191.146 360.63 C 189.99 359.031 188.906 357.396 187.966 355.66 C 186.004 352.044 184.646 348.33 183.505 344.385 C 181.961 336.798 181.145 329.482 181.952 321.741 L 183.701 312.235 Z"/>
  <path fill="#FAF5C2" d="M 183.701 312.235 C 185.626 312.712 187.485 313.113 189.473 313.221 C 191.571 313.335 193.891 313.404 195.959 313.009 C 203.667 311.531 210.189 305.869 215.092 299.985 C 217.014 297.678 218.849 294.757 221.073 292.757 L 222.178 294.79 L 222.561 294.627 C 222.857 295.12 223.175 295.609 223.412 296.131 C 221.617 305.167 217.646 314.06 212.953 321.937 C 211.569 324.261 209.567 326.486 208.383 328.872 C 202.315 336.589 195.05 342.982 184.97 344.235 L 183.505 344.385 C 181.961 336.798 181.145 329.482 181.952 321.741 L 183.701 312.235 Z"/>
  <path fill="#2E150B" d="M 52.126 77.099 C 53.6 77.292 54.941 78.788 56.141 79.648 L 67.875 88.325 L 117.6 123.758 L 134.913 134.309 C 138.14 136.131 141.717 137.74 144.738 139.873 C 147.763 142.01 150.575 144.575 153.481 146.88 L 170.429 160.01 L 172.553 161.622 L 174.875 163.101 L 175.065 163.319 C 176.245 164.655 177.692 165.711 179.013 166.9 C 183.385 170.834 187.858 174.305 193.298 176.676 L 197.872 178.408 C 198.327 178.569 199.44 178.819 199.763 179.09 C 200.043 179.325 200.452 180.379 200.644 180.737 L 203.155 185.194 L 181.146 194.869 L 205.566 189.831 C 206.794 190.978 207.852 193.379 208.727 194.839 L 217.496 209.332 L 190.79 219.407 C 188.424 213.76 185.529 208.219 182.299 203.008 C 180.935 200.806 179.081 198.703 177.952 196.394 C 177.056 194.562 176.428 192.499 175.656 190.602 L 171.113 179.982 C 170.511 178.617 169.903 176.668 169.008 175.504 C 167.974 174.157 165.809 173.012 164.42 172.008 L 155.62 165.562 L 90.497 115.241 L 67.38 96.634 C 64.297 94.097 60.256 91.391 57.737 88.331 C 55.165 85.208 53.332 80.917 52.126 77.099 Z"/>
  <path fill="#02060C" d="M 170.429 160.01 L 172.553 161.622 C 168.427 162.159 163.927 163.216 159.779 163.175 C 160.417 162.624 162 162.431 162.856 162.208 L 170.429 160.01 Z"/>
  <path fill="#5B240F" d="M 349.444 232.86 L 347.874 262.278 L 368.499 270.331 L 368.359 277.596 C 367.719 278.503 368.352 279.838 367.801 280.869 C 367.216 281.962 367.125 284.132 366.841 285.398 C 366.025 289.053 365.232 292.682 364.012 296.226 C 359.646 308.907 351.026 319.398 341.194 328.297 C 337.14 331.968 332.756 335.584 328.052 338.397 C 329.437 331.936 332.767 325.354 335.474 319.359 L 312.423 319.721 L 291.164 356.384 L 271.659 360.803 C 270.052 352.785 273.157 343.419 275.939 336.018 C 277.731 332.902 279.221 329.86 281.7 327.194 C 282.684 326.137 283.731 325.093 284.869 324.202 C 285.801 323.471 287.559 322.834 288.12 321.852 C 288.254 321.924 288.37 322.064 288.522 322.064 C 289.221 322.068 291.302 320.903 292.088 320.638 C 293.637 320.119 295.249 319.904 296.86 319.676 L 311.917 319.545 C 313.857 317.196 315.422 314.102 317.116 311.527 C 328.719 293.906 338.322 274.771 344.319 254.491 L 347.076 243.724 C 347.784 240.306 347.99 235.949 349.444 232.86 Z"/>
  <path fill="#02060C" d="M 347.874 262.278 L 368.499 270.331 L 368.359 277.596 C 367.719 278.503 368.352 279.838 367.801 280.869 C 367.216 281.962 367.125 284.132 366.841 285.398 C 366.025 289.053 365.232 292.682 364.012 296.226 C 359.646 308.907 351.026 319.398 341.194 328.297 C 337.14 331.968 332.756 335.584 328.052 338.397 C 329.437 331.936 332.767 325.354 335.474 319.359 L 360.351 276.731 C 359.511 277.123 358.699 277.938 357.982 278.532 L 353.39 282.406 L 341.76 292.085 C 342.442 289.67 343.351 287.353 343.968 284.902 C 345.84 277.469 346.982 269.882 347.874 262.278 Z"/>
  <path fill="#9EAB8A" d="M 198.972 49.317 L 244.861 -35.909 L 264.559 10.847 L 251.022 90.68 L 248.046 108.089 C 247.716 109.911 247.589 112.351 246.844 114.026 L 245.167 112.419 C 244.209 111.089 243.628 109.314 242.974 107.809 L 238.94 98.013 L 235.382 89.395 C 234.627 87.324 221.188 77.379 218.493 75.225 C 217.605 74.269 217.177 72.582 216.712 71.354 C 215.846 69.071 214.96 66.802 213.898 64.602 C 212.544 61.799 210.942 59.257 209.179 56.698 C 206.194 53.165 203.327 50.941 198.972 49.317 Z"/>
  <path fill="#2E150B" d="M 328.052 338.397 C 332.756 335.584 337.14 331.968 341.194 328.297 C 351.026 319.398 359.646 308.907 364.012 296.226 C 365.232 292.682 366.025 289.053 366.841 285.398 C 367.125 284.132 367.216 281.962 367.801 280.869 C 368.352 279.838 367.719 278.503 368.359 277.596 L 368.349 307.223 L 368.319 313.795 C 368.316 314.738 368.456 315.942 368.241 316.859 L 368.13 316.987 C 367.295 318.031 366.939 319.561 366.443 320.805 L 363.943 326.254 C 360.016 333.995 355.351 341.151 349.717 347.763 C 341.143 357.827 329.238 365.055 318.566 372.704 L 293.604 390.857 C 273.652 404.42 252.425 413.067 228.445 416.197 C 222.582 416.96 216.671 417.019 210.768 416.908 C 207.676 416.853 204.507 416.915 201.443 416.497 L 201.285 416.448 C 201.805 414.79 201.447 412.18 201.446 410.414 C 201.443 404.449 201.115 398.278 201.531 392.339 C 201.275 389.823 201.462 387.065 201.46 384.527 L 201.444 369.349 C 201.441 367.466 201.797 364.79 201.269 363.058 L 219.758 363.08 C 225.179 357.487 229.666 348.569 230.676 340.828 C 231.052 340.104 231.132 338.612 231.261 337.774 C 232.516 329.658 231.378 321.581 229.608 313.645 C 231.419 313.462 233.601 314.634 235.285 315.264 C 236.49 315.714 237.851 316.07 238.966 316.7 C 237.167 325.83 237.723 334.954 239.971 343.958 C 242.403 351.202 245.592 356.74 250.472 362.604 L 271.659 360.803 L 291.164 356.384 L 312.423 319.721 L 335.474 319.359 C 332.767 325.354 329.437 331.936 328.052 338.397 Z"/>
  <path fill="#CF6429" d="M 242.909 362.806 L 243.714 363.071 C 242.182 365.029 240.135 366.725 238.339 368.448 C 229.145 377.263 219.511 385.065 207.651 390.081 C 205.767 390.877 203.543 391.964 201.531 392.339 C 201.275 389.823 201.462 387.065 201.46 384.527 L 201.444 369.349 C 201.441 367.466 201.797 364.79 201.269 363.058 L 219.758 363.08 L 235.374 362.996 C 237.824 362.956 240.49 363.123 242.909 362.806 Z"/>
  <path fill="#2A555F" d="M 67.423 11.796 C 72.622 5.042 79.282 -1.14 88.152 -2.24 C 96.443 -3.268 106.594 0.881 113.011 5.97 C 119.263 10.929 122.833 18.166 126.524 25.07 C 128.866 29.449 131.358 34.27 135.39 37.348 C 140.745 41.436 148.075 44.034 154.208 46.838 C 160.238 49.594 165.284 52.778 172.172 51.984 C 176.027 51.54 179.991 50.359 183.717 49.299 C 186.395 48.538 189.07 47.594 191.89 47.709 C 194.309 47.807 196.679 48.599 198.972 49.317 C 203.327 50.941 206.194 53.165 209.179 56.698 C 210.942 59.257 212.544 61.799 213.898 64.602 C 214.96 66.802 215.846 69.071 216.712 71.354 C 217.177 72.582 217.605 74.269 218.493 75.225 C 218.401 76.61 219.443 78.998 219.869 80.393 L 226.511 100.402 L 239.107 138.214 L 223.76 131.943 C 223.182 131.714 221.393 130.735 220.894 130.747 C 220.414 130.758 219.202 131.401 218.697 131.597 L 212.601 133.84 C 205.144 136.271 197.281 137.422 189.451 137.45 C 184.549 137.467 179.679 137.083 175.115 135.147 C 170.581 133.223 166.391 130.647 162.171 128.134 L 144.961 117.905 L 75.079 76.831 L 56.313 65.211 C 55.102 64.477 52.88 62.693 51.577 62.46 L 51.304 62.42 L 52.372 57.771 C 54.467 58.544 56.536 59.602 58.476 60.707 L 64.893 64.672 L 65.182 64.488 C 64.696 62.549 64.673 60.495 64.608 58.503 C 64.365 51.066 65.928 43.672 68.29 36.657 L 71.546 27.984 L 71.669 26.147 C 71.64 24.8 72.545 23.527 73.179 22.379 C 72.135 22.03 71.211 22.545 70.17 22.858 L 64.828 24.395 L 64.024 25.824 C 63.125 25.506 62.615 25.431 61.674 25.648 L 61.489 25.692 L 61.266 25.391 C 62.728 20.638 64.404 15.798 67.423 11.796 Z"/>
  <path fill="#02060C" d="M 73.179 22.379 L 73.865 22.153 C 74.889 22.713 75.812 23.223 76.697 23.99 L 76.833 24.101 C 79.462 25.059 82.364 27.256 84.506 29.063 L 88.426 32.121 C 90.503 33.947 92.823 35.874 94.515 38.071 L 100.087 44.635 L 105.699 50.637 C 106.532 51.546 109.545 54.3 109.696 55.334 C 111.404 56.034 113.839 59.416 115.142 60.862 L 118.896 64.74 L 124.015 69.537 L 135.713 80.974 C 138.401 83.511 141.234 85.999 143.737 88.719 C 147.55 92.861 150.205 98.511 154.695 102.034 C 156.613 103.539 159.415 104.181 161.819 104.242 C 165.885 104.344 169.219 103.081 172.732 101.141 C 174.845 99.975 176.511 98.86 178.971 98.501 C 179.434 98.433 180.395 98.213 180.837 98.304 C 181.368 98.413 182.258 99.07 182.74 99.369 L 187.161 102.163 L 206.734 114.575 C 211.063 117.306 215.571 119.889 219.74 122.852 L 188.328 112.95 L 182.358 111.083 C 181.623 110.846 180.492 110.292 179.751 110.233 C 179.297 110.196 178.428 110.495 177.962 110.591 L 172.983 111.74 L 157.988 115.296 C 156.775 115.618 153.959 116.78 152.811 116.64 C 152.245 116.572 145.464 112.34 144.468 111.78 L 139.099 108.775 C 138.345 108.352 137.349 107.925 136.751 107.293 C 134.857 106.595 131.561 104.852 130.121 103.442 C 127.92 102.913 125.405 100.69 123.249 99.715 L 116.442 95.682 C 114.926 94.464 113.128 93.515 111.439 92.558 C 110.699 92.139 109.648 91.73 109.227 90.974 C 108.595 91.028 107.783 90.411 107.253 90.094 L 102.364 87.158 L 96.744 83.868 C 95.688 83.252 94.404 82.672 93.563 81.772 C 91.587 81.38 88.559 79.067 86.74 78.011 C 84.96 76.946 81.748 75.673 80.471 74.135 C 78.541 73.453 75.285 71.642 73.808 70.24 L 73.57 70.187 C 72.74 69.855 71.851 69.168 71.085 68.689 C 69.451 67.668 65.976 66.07 65.182 64.488 C 64.696 62.549 64.673 60.495 64.608 58.503 C 64.365 51.066 65.928 43.672 68.29 36.657 L 71.546 27.984 L 71.669 26.147 C 71.64 24.8 72.545 23.527 73.179 22.379 Z"/>
  <path fill="#FAF5C2" d="M 118.896 64.74 L 124.015 69.537 L 116.889 76.008 C 117.254 72.066 117.689 68.522 118.896 64.74 Z"/>
  <path fill="#FAF5C2" d="M 88.426 32.121 C 90.503 33.947 92.823 35.874 94.515 38.071 L 87.921 44.63 C 87.292 40.54 87.726 36.171 88.426 32.121 Z"/>
  <path fill="#FAF5C2" d="M 88.274 74.914 C 89.384 72.849 90.426 70.347 91.931 68.557 C 93.069 72.641 93.586 77.533 93.563 81.772 C 91.587 81.38 88.559 79.067 86.74 78.011 C 87.125 76.958 87.762 75.916 88.274 74.914 Z"/>
  <path fill="#FAF5C2" d="M 130.121 103.442 C 132.12 100.17 134.292 96.74 136.881 93.903 C 137.219 94.636 137.117 95.915 137.138 96.731 C 137.23 100.263 136.874 103.769 136.751 107.293 C 134.857 106.595 131.561 104.852 130.121 103.442 Z"/>
  <path fill="#FAF5C2" d="M 109.696 55.334 C 111.404 56.034 113.839 59.416 115.142 60.862 L 107.155 69.019 C 107.532 64.355 107.84 59.685 109.696 55.334 Z"/>
  <path fill="#FAF5C2" d="M 116.442 95.682 C 118.047 92.054 119.77 88.248 122.074 85.005 C 123.258 89.681 123.23 94.906 123.249 99.715 L 116.442 95.682 Z"/>
  <path fill="#FAF5C2" d="M 100.087 44.635 L 105.699 50.637 C 103.233 53.689 100.702 56.259 97.696 58.785 C 97.922 53.8 98.443 49.35 100.087 44.635 Z"/>
  <path fill="#FAF5C2" d="M 76.833 24.101 C 79.462 25.059 82.364 27.256 84.506 29.063 C 82.014 31.896 78.783 34.573 75.676 36.721 C 75.963 32.517 76.029 28.242 76.833 24.101 Z"/>
  <path fill="#FAF5C2" d="M 102.364 87.158 C 103.588 84.899 105.099 82.889 106.675 80.866 C 107.539 79.756 108.362 78.554 109.479 77.685 L 109.93 77.859 C 110.301 78.913 110.137 80.141 110.1 81.244 C 109.991 84.514 109.636 87.731 109.227 90.974 C 108.595 91.028 107.783 90.411 107.253 90.094 L 102.364 87.158 Z"/>
  <path fill="#5B240F" d="M 65.182 64.488 C 64.696 62.549 64.673 60.495 64.608 58.503 C 64.365 51.066 65.928 43.672 68.29 36.657 L 71.546 27.984 C 72.15 34.41 73.149 40.505 75.28 46.627 C 77.228 52.219 80.026 57.644 82.596 62.975 L 88.274 74.914 C 87.762 75.916 87.125 76.958 86.74 78.011 C 84.96 76.946 81.748 75.673 80.471 74.135 C 78.541 73.453 75.285 71.642 73.808 70.24 L 73.57 70.187 C 72.74 69.855 71.851 69.168 71.085 68.689 C 69.451 67.668 65.976 66.07 65.182 64.488 Z"/>
  <path fill="#FAF5C2" d="M 73.808 70.24 C 75.071 68.266 78.244 62.291 80.453 61.702 C 81.15 62.711 80.529 72.175 80.471 74.135 C 78.541 73.453 75.285 71.642 73.808 70.24 Z"/>
  <path fill="#387572" d="M 67.423 11.796 C 72.622 5.042 79.282 -1.14 88.152 -2.24 C 96.443 -3.268 106.594 0.881 113.011 5.97 C 119.263 10.929 122.833 18.166 126.524 25.07 C 128.866 29.449 131.358 34.27 135.39 37.348 C 140.745 41.436 148.075 44.034 154.208 46.838 C 160.238 49.594 165.284 52.778 172.172 51.984 C 176.027 51.54 179.991 50.359 183.717 49.299 C 186.395 48.538 189.07 47.594 191.89 47.709 C 194.309 47.807 196.679 48.599 198.972 49.317 C 203.327 50.941 206.194 53.165 209.179 56.698 C 209.032 59.388 208.984 62.194 209.131 64.887 C 209.177 65.74 209.694 67.379 209.461 68.122 C 209.422 68.247 209.105 68.541 209.006 68.657 L 209.058 68.839 C 209.885 71.606 211.196 74.23 212.017 77.037 C 213.877 83.392 213.999 90.143 214.138 96.714 L 200.251 94.124 C 197.54 93.638 194.437 93.365 191.851 92.408 C 189.595 91.574 187.301 89.958 185.416 88.479 C 182.814 88.776 179.125 87.585 176.566 86.958 L 169.814 85.398 C 169.231 85.261 167.963 85.116 167.494 84.838 C 166.493 84.243 165.169 82.445 164.321 81.569 L 153.357 70.174 C 151.911 68.698 150.402 66.859 148.781 65.605 C 147.557 64.659 145.424 64.245 143.93 63.764 L 132.544 60.115 C 131.534 59.774 129.852 59.401 129.053 58.728 C 127.315 57.265 125.706 55.392 124.082 53.782 C 121.077 50.803 117.875 47.932 115.076 44.76 C 107.223 35.861 100.154 25.972 90.57 18.833 C 86.351 15.69 82.143 13.444 77.007 12.109 C 75.554 11.731 74.094 11.293 72.584 11.239 C 70.87 11.178 69.114 11.548 67.423 11.796 Z"/>
  <path fill="#02060C" d="M 102.27 10.568 C 102.889 10.337 103.664 10.319 104.313 10.443 C 106.468 10.853 109.314 13.221 110.42 15.05 C 111.207 16.351 111.429 17.857 111.058 19.331 C 110.783 20.424 110.217 20.887 109.308 21.447 C 108.557 21.695 107.768 21.866 106.975 21.772 C 104.945 21.53 103.228 20.027 102.058 18.43 C 100.891 16.838 100.264 14.569 100.659 12.608 C 100.858 11.618 101.473 11.092 102.27 10.568 Z"/>
  <path fill="#02060C" d="M 185.416 88.479 C 177.044 81.673 172.421 71.804 168.481 62.006 C 177.321 58.795 188.658 54.53 197.984 57.592 C 203.322 59.345 206.575 63.867 209.006 68.657 L 209.058 68.839 C 209.885 71.606 211.196 74.23 212.017 77.037 C 213.877 83.392 213.999 90.143 214.138 96.714 L 200.251 94.124 C 197.54 93.638 194.437 93.365 191.851 92.408 C 189.595 91.574 187.301 89.958 185.416 88.479 Z"/>
  <path fill="#5B240F" d="M 182.879 71.168 L 183.755 68.944 C 185.007 66.335 187.594 64.284 190.303 63.353 C 193.429 62.279 196.537 63.053 199.379 64.489 C 201.806 66.162 203.62 69.122 204.157 72.021 C 204.796 75.464 204.236 79.034 202.173 81.937 C 200.429 84.39 197.671 86.228 194.669 86.677 C 192.011 87.075 188.976 86.185 186.854 84.553 C 184.112 82.445 182.755 79.488 182.336 76.13 C 182.142 74.574 182.417 72.66 182.879 71.168 Z"/>
  <path fill="#ECA55A" d="M 182.879 71.168 L 183.755 68.944 C 185.007 66.335 187.594 64.284 190.303 63.353 C 193.429 62.279 196.537 63.053 199.379 64.489 C 197.931 68.535 195.59 72.83 191.562 74.791 C 189.943 75.579 187.682 76.204 185.919 75.527 C 184.87 75.126 183.939 74.239 183.51 73.191 L 182.879 71.168 Z"/>
</svg>