<?xml version="1.0" encoding="utf-8"?>
<svg viewBox="-59.611 -64.46 309.944 550.931" xmlns="http://www.w3.org/2000/svg">
  <path fill="#02060C" d="M 237.109 55.905 L 243.889 37.654 C 244.489 36.041 245.437 32.318 246.564 31.103 L 243.697 53.654 C 243.321 56.549 242.361 60.071 242.513 62.967 C 243.392 64.44 243.522 66.69 243.901 68.368 L 247.441 87.133 C 247.816 89.677 248.364 92.359 248.489 94.919 L 249.807 111.473 C 249.911 113.359 250.224 115.396 250.083 117.264 L 248.429 196.468 L 248.167 203.294 C 248.185 204.841 244.666 208.323 243.638 209.637 L 235.592 220.141 C 235.119 215.957 234.101 211.724 233.308 207.581 C 232.758 204.701 232.439 201.565 231.487 198.797 C 230.934 196.511 230.553 194.114 229.645 191.938 L 229.557 191.217 C 228.309 191.117 225.856 192.481 224.572 192.912 L 217.181 195.474 C 214.499 191.538 211.417 188.011 207.586 185.152 L 209.938 181.805 C 206.08 183.137 201.957 184.806 197.933 185.476 C 195.356 186.57 191.563 187.062 188.784 187.316 C 195.111 184.053 199.056 179.881 201.792 173.312 C 203.417 168.635 204.114 163.553 204.79 158.666 L 204.932 158.667 C 205.851 156.928 206.137 154.87 206.603 152.979 C 207.573 149.039 208.703 144.803 209.131 140.772 C 209.992 138.647 210.345 136.134 210.858 133.892 L 215.076 115.173 C 215.979 111.894 217.431 108.734 218.705 105.583 L 223.733 92.413 L 235.79 59.231 L 237.109 55.905 Z"/>
  <path fill="#387572" d="M 201.792 173.312 L 211.909 168.988 C 209.861 174.647 206.694 178.864 201.96 182.533 C 200.661 183.54 199.148 184.384 197.933 185.476 C 195.356 186.57 191.563 187.062 188.784 187.316 C 195.111 184.053 199.056 179.881 201.792 173.312 Z"/>
  <path fill="#0B2028" d="M 224.572 192.912 C 229.023 185.172 232.891 176.938 236.452 168.749 C 237.922 165.369 238.94 161.173 240.809 158.076 C 241.501 163.562 245.318 201.406 247.95 203.168 L 248.167 203.294 C 248.185 204.841 244.666 208.323 243.638 209.637 L 235.592 220.141 C 235.119 215.957 234.101 211.724 233.308 207.581 C 232.758 204.701 232.439 201.565 231.487 198.797 C 230.934 196.511 230.553 194.114 229.645 191.938 L 229.557 191.217 C 228.309 191.117 225.856 192.481 224.572 192.912 Z"/>
  <path fill="#2A555F" d="M 237.973 95.944 C 238.08 96.375 238.062 96.412 238.407 96.682 L 248.489 94.919 L 249.807 111.473 C 249.911 113.359 250.224 115.396 250.083 117.264 C 248.681 118.947 247.931 121.982 247.035 124.033 L 242.705 133.151 C 237.538 143.365 230.917 152.765 226.311 163.251 L 221.501 174.562 C 221.124 175.481 220.304 178.348 219.499 178.828 C 220.571 173.622 222.296 168.406 223.643 163.256 L 232.363 128.419 L 236.244 109.185 C 236.902 104.827 237.1 100.238 237.973 95.944 Z"/>
  <path fill="#0B2028" d="M 198.204 -14.055 L 201.576 -46.669 L 202.887 -60.163 C 203.123 -62.401 203.216 -64.786 203.686 -66.983 C 204.834 -61.786 205.139 -56.213 205.827 -50.922 L 210.541 -11.079 C 211.058 -6.415 211.105 -1.43 211.996 3.152 L 213.035 14.814 C 213.249 17.032 213.628 19.385 213.62 21.605 C 213.612 24.008 213.257 26.482 213.079 28.883 L 212.023 44.027 C 220.429 47.462 228.884 53.394 235.79 59.231 L 223.733 92.413 L 218.705 105.583 C 217.431 108.734 215.979 111.894 215.076 115.173 L 210.858 133.892 C 210.345 136.134 209.992 138.647 209.131 140.772 C 208.703 144.803 207.573 149.039 206.603 152.979 C 206.137 154.87 205.851 156.928 204.932 158.667 L 204.79 158.666 C 203.055 160.172 201.756 162.829 200.381 164.703 C 198.853 166.785 197.134 168.737 195.384 170.633 L 177.64 124.18 L 187.99 119.265 L 182.898 83.81 L 170.57 12.152 L 166.53 -16.3 C 167.244 -15.015 167.553 -13.506 167.976 -12.104 L 170.302 -4.354 L 177.031 18.673 L 197.023 36.415 L 197.46 36.277 L 195.712 22.178 C 195.405 19.93 194.761 17.435 194.735 15.2 C 194.699 12.05 195.537 8.491 195.914 5.341 L 198.204 -14.055 Z"/>
  <path fill="#5B240F" d="M 197.459 83.298 L 202.286 82.741 L 201.95 89.331 L 201.349 112.865 C 200.692 111.402 200.732 109.269 200.511 107.647 L 198.519 91.357 L 197.459 83.298 Z"/>
  <path fill="#5B240F" d="M 210.93 84.984 L 223.733 92.413 L 218.705 105.583 C 217.431 108.734 215.979 111.894 215.076 115.173 L 210.858 133.892 C 210.345 136.134 209.992 138.647 209.131 140.772 L 210.93 84.984 Z"/>
  <path fill="#387572" d="M 212.023 44.027 C 220.429 47.462 228.884 53.394 235.79 59.231 L 223.733 92.413 L 210.93 84.984 L 212.023 44.027 Z"/>
  <path fill="#02060C" d="M 170.57 12.152 L 166.53 -16.3 C 167.244 -15.015 167.553 -13.506 167.976 -12.104 L 170.302 -4.354 L 177.031 18.673 L 197.023 36.415 L 197.46 36.277 C 198.174 39.576 198.418 43.083 198.95 46.427 C 199.832 51.969 201.033 57.537 201.616 63.115 C 202.289 69.562 202.186 76.261 202.286 82.741 L 197.459 83.298 L 198.519 91.357 L 200.511 107.647 C 200.732 109.269 200.692 111.402 201.349 112.865 L 200.825 140.252 C 200.279 139.617 200.357 138.382 200.278 137.57 L 199.41 129.943 L 195.527 87.729 L 190.263 118.234 L 187.99 119.265 L 182.898 83.81 L 170.57 12.152 Z"/>
  <path fill="#2A555F" d="M 177.031 18.673 L 197.023 36.415 L 197.46 36.277 C 198.174 39.576 198.418 43.083 198.95 46.427 C 199.832 51.969 201.033 57.537 201.616 63.115 C 202.289 69.562 202.186 76.261 202.286 82.741 L 197.459 83.298 C 196.553 79.919 196.918 76.141 196.027 72.769 C 195.471 70.668 194.215 68.424 193.343 66.42 L 187.558 53.237 C 186.568 51.038 185.342 48.841 184.501 46.59 C 183.39 43.613 182.799 40.259 182.014 37.177 L 177.031 18.673 Z"/>
  <path fill="#2A555F" d="M 149.227 -5.831 L 163.583 6.761 C 165.688 8.608 167.809 10.781 170.157 12.304 L 170.57 12.152 L 182.898 83.81 L 187.99 119.265 L 177.64 124.18 L 195.384 170.633 L 190.117 175.343 L 165.967 130.848 L 128.706 129.639 C 130.179 122.09 130.002 114.061 129.527 106.425 C 128.891 105.743 129.688 102.228 129.152 101.018 C 128.74 94.987 127.649 88.868 126.21 83.003 C 123.856 73.41 120.957 64.899 113.745 57.87 C 117.709 52.769 148.605 12.751 148.713 10.963 L 148.982 0.36 C 148.988 -1.431 148.661 -3.998 149.18 -5.692 L 149.227 -5.831 Z"/>
  <path fill="#02060C" d="M 153.84 95.441 L 143.799 62.98 C 145.65 65.394 147.077 68.343 148.608 70.98 L 160.698 92.329 L 182.898 83.81 L 187.99 119.265 L 177.64 124.18 L 195.384 170.633 L 190.117 175.343 L 165.967 130.848 L 128.706 129.639 C 130.179 122.09 130.002 114.061 129.527 106.425 L 129.729 105.544 L 153.84 95.441 Z"/>
  <path fill="#5B240F" d="M 160.698 92.329 L 182.898 83.81 L 187.99 119.265 L 177.64 124.18 L 160.698 92.329 Z"/>
  <path fill="#5B240F" d="M 153.84 95.441 L 162.463 122.898 C 163.469 125.631 164.789 128.193 165.967 130.848 L 128.706 129.639 C 130.179 122.09 130.002 114.061 129.527 106.425 L 129.729 105.544 L 153.84 95.441 Z"/>
  <path fill="#649F91" d="M 37.745 49.363 C 41.822 48.279 46.117 45.968 50.028 44.313 L 75.332 33.668 L 104.516 21.54 C 107.997 20.063 111.993 18.838 115.26 16.966 C 119.118 14.755 122.917 11.725 126.576 9.177 L 148.662 -5.966 L 149.227 -5.831 L 149.18 -5.692 C 148.661 -3.998 148.988 -1.431 148.982 0.36 L 148.713 10.963 C 148.605 12.751 117.709 52.769 113.745 57.87 C 120.957 64.899 123.856 73.41 126.21 83.003 C 127.649 88.868 128.74 94.987 129.152 101.018 L 128.897 101.056 C 127.993 98.995 127.434 96.684 126.672 94.555 C 125.401 91.003 123.673 87.285 121.488 84.198 C 120.108 82.249 118.37 80.411 116.105 79.516 C 113.277 78.399 109.962 78.813 107.241 80.031 C 101.003 82.824 97.999 89.987 93.287 94.55 C 90.214 97.526 86.608 99.443 82.865 101.444 L 79.335 103.974 C 79.652 104.186 79.9 104.272 80.27 104.367 C 81.517 104.689 83.088 104.616 84.378 104.686 C 92.046 105.104 99.282 103.931 105.995 100.067 C 107.206 109.423 107.557 119.867 105.511 129.125 C 104.409 134.213 103.232 139.497 101.257 144.33 L 99.932 148.071 L 97.545 153.835 C 97.131 154.756 96.694 156.22 96.094 156.991 L 93.737 161.76 L 92.359 164.403 L 92.344 164.404 L 90.165 168.204 C 89.965 168.548 88.691 170.908 88.521 170.958 L 82.936 179.68 C 82.591 180.236 81.338 182.693 80.913 182.912 L 79.188 185.613 C 78.169 186.061 77.494 186.921 76.734 187.706 C 75.184 189.308 73.685 191.108 72.006 192.567 C 68.201 192.527 63.844 191.264 60.058 190.631 C 58.476 190.367 56.005 190.284 54.596 189.68 C 53.704 189.297 52.336 187.857 51.54 187.225 L 39.805 177.796 L 35.38 181.472 C 34.473 182.227 33.517 183.206 32.509 183.802 C 31.39 183.338 29.451 183.573 28.208 183.574 L 18.098 183.562 L 12.252 199.954 L 8.486 202.947 L -15.229 220.914 L -14.042 216.971 C -14.435 214.814 -14.074 212.314 -13.888 210.142 L -9.35 168.387 L -8.093 154.639 C -7.911 152.313 -8.022 149.446 -7.442 147.216 C -7.01 145.556 -5.896 143.744 -5.128 142.189 C -3.039 137.963 -0.75 133.886 0.657 129.37 L 15.25 88.55 L -0.179 84.745 L 2.533 65.715 L 30.483 53.192 L 40.736 31.39 L 37.745 49.363 Z"/>
  <path fill="white" d="M 62.695 89.708 C 65.764 80.175 66.767 69.817 73.146 61.673 C 77.89 55.615 84.539 52.253 92.123 51.356 C 100.545 50.36 107.18 52.655 113.745 57.87 C 120.957 64.899 123.856 73.41 126.21 83.003 C 127.649 88.868 128.74 94.987 129.152 101.018 L 128.897 101.056 C 127.993 98.995 127.434 96.684 126.672 94.555 C 125.401 91.003 123.673 87.285 121.488 84.198 C 120.108 82.249 118.37 80.411 116.105 79.516 C 113.277 78.399 109.962 78.813 107.241 80.031 C 101.003 82.824 97.999 89.987 93.287 94.55 C 90.214 97.526 86.608 99.443 82.865 101.444 C 81.16 96.677 80.1 91.865 79.188 86.889 L 77.539 78.901 C 75.453 81.937 72.98 85.33 71.406 88.639 C 68.598 89.387 65.582 89.438 62.695 89.708 Z"/>
  <path fill="#387572" d="M 77.539 78.901 C 79.869 75.143 82.984 73.246 87.273 72.223 L 92.813 71.447 C 92.305 76.218 92.219 80.792 88.131 84.047 C 85.559 86.094 82.394 86.691 79.188 86.889 L 77.539 78.901 Z"/>
  <path fill="#02060C" d="M 81.903 75.998 C 82.561 75.971 83.197 75.96 83.823 76.198 C 84.884 76.603 85.754 77.416 86.174 78.482 C 86.629 79.633 86.419 81.022 85.917 82.125 C 85.44 83.176 84.62 83.797 83.563 84.196 C 82.917 84.259 82.116 84.338 81.48 84.191 C 80.567 83.98 79.824 83.297 79.397 82.488 C 78.748 81.26 78.433 79.654 78.933 78.315 C 79.435 76.969 80.693 76.538 81.903 75.998 Z"/>
  <path fill="#2A555F" d="M 77.539 78.901 L 79.188 86.889 C 80.1 91.865 81.16 96.677 82.865 101.444 L 79.335 103.974 C 79.652 104.186 79.9 104.272 80.27 104.367 C 81.517 104.689 83.088 104.616 84.378 104.686 C 92.046 105.104 99.282 103.931 105.995 100.067 C 107.206 109.423 107.557 119.867 105.511 129.125 L 36.233 129.301 L 42.258 116.249 C 38.64 120.278 35.917 125.156 32.596 129.44 L 21.103 129.443 L 26.457 111.265 C 27.347 108.385 28.667 105.39 29.327 102.48 C 30.016 99.44 30.227 96.144 30.581 93.045 L 55.965 104.334 C 59.039 99.583 61.116 95.148 62.695 89.708 C 65.582 89.438 68.598 89.387 71.406 88.639 C 72.98 85.33 75.453 81.937 77.539 78.901 Z"/>
  <path fill="#02060C" d="M 77.539 78.901 L 79.188 86.889 C 80.1 91.865 81.16 96.677 82.865 101.444 L 79.335 103.974 L 65.618 112.915 C 60.913 115.934 55.915 119.589 50.527 121.227 C 49.164 121.642 47.531 121.95 46.114 121.65 C 45.576 121.536 44.965 121.175 44.695 120.676 C 44.601 120.503 44.613 120.513 44.575 120.352 L 44.484 120.124 C 44.398 119.766 44.552 119.472 44.71 119.165 C 45.898 116.863 47.607 114.807 49.203 112.779 L 55.965 104.334 C 59.039 99.583 61.116 95.148 62.695 89.708 C 65.582 89.438 68.598 89.387 71.406 88.639 C 72.98 85.33 75.453 81.937 77.539 78.901 Z"/>
  <path fill="#CF6429" d="M 62.695 89.708 C 65.582 89.438 68.598 89.387 71.406 88.639 C 70.333 92.915 68.687 97.873 71.107 101.951 L 72.044 103.445 C 67.31 107.491 62.13 111.019 56.798 114.222 C 52.833 116.605 48.953 118.816 44.575 120.352 L 44.484 120.124 C 44.398 119.766 44.552 119.472 44.71 119.165 C 45.898 116.863 47.607 114.807 49.203 112.779 L 55.965 104.334 C 59.039 99.583 61.116 95.148 62.695 89.708 Z"/>
  <path fill="#02060C" d="M 66.317 96.84 L 66.597 96.908 L 66.831 97.384 C 65.921 99.971 64.035 102.223 62.171 104.184 L 61.696 104.133 C 62.098 101.629 64.543 98.572 66.317 96.84 Z"/>
  <path fill="#0B2028" d="M 36.233 129.301 L 105.511 129.125 C 104.409 134.213 103.232 139.497 101.257 144.33 L 99.932 148.071 L 97.545 153.835 C 97.131 154.756 96.694 156.22 96.094 156.991 L 93.737 161.76 L 92.359 164.403 L 92.344 164.404 L 90.165 168.204 C 89.965 168.548 88.691 170.908 88.521 170.958 L 82.936 179.68 C 82.591 180.236 81.338 182.693 80.913 182.912 L 79.188 185.613 C 78.169 186.061 77.494 186.921 76.734 187.706 C 75.184 189.308 73.685 191.108 72.006 192.567 C 68.201 192.527 63.844 191.264 60.058 190.631 C 58.476 190.367 56.005 190.284 54.596 189.68 C 53.704 189.297 52.336 187.857 51.54 187.225 L 39.805 177.796 L 35.38 181.472 C 34.473 182.227 33.517 183.206 32.509 183.802 C 31.39 183.338 29.451 183.573 28.208 183.574 L 18.098 183.562 L 19.036 181.29 L 24.279 167.819 L 24.786 166.425 C 26.471 162.135 27.346 157.398 28.509 152.942 C 30.586 144.992 32.956 136.845 36.233 129.301 Z"/>
  <path fill="#2A555F" d="M 24.786 166.425 C 27.982 166.491 31.813 166.209 34.893 167.133 L 24.279 167.819 L 24.786 166.425 Z"/>
  <path fill="#387572" d="M 92.344 164.404 C 91.422 163.748 84.223 163.924 82.574 163.774 C 80.947 163.627 79.381 163.3 77.794 162.923 C 82.815 161.526 88.544 161.826 93.737 161.76 L 92.359 164.403 L 92.344 164.404 Z"/>
  <path fill="#387572" d="M 80.913 182.912 L 73.009 182.79 C 72.203 182.654 71.988 182.153 71.544 181.539 C 71.502 180.609 71.538 180.562 72.077 179.798 C 73.331 179.317 74.707 179.427 76.031 179.421 C 78.338 179.41 80.645 179.359 82.936 179.68 C 82.591 180.236 81.338 182.693 80.913 182.912 Z"/>
  <path fill="#2A555F" d="M 18.098 183.562 L 19.036 181.29 L 29.484 181.348 C 31.422 181.36 33.456 181.243 35.38 181.472 C 34.473 182.227 33.517 183.206 32.509 183.802 C 31.39 183.338 29.451 183.573 28.208 183.574 L 18.098 183.562 Z"/>
  <path fill="#387572" d="M 88.521 170.958 C 84.689 170.717 80.787 170.883 76.945 170.888 L 55.928 170.818 C 54.484 170.799 51.384 171.113 50.12 170.689 C 49.964 170.637 49.547 170.144 49.402 170.006 C 49.221 169.278 49.181 169.229 49.49 168.555 C 49.712 168.384 49.841 168.271 50.12 168.207 C 51.018 168.002 52.295 168.159 53.233 168.159 L 60.409 168.167 L 90.165 168.204 C 89.965 168.548 88.691 170.908 88.521 170.958 Z"/>
  <path fill="#2A555F" d="M 99.932 148.071 C 97.659 147.419 94.27 147.84 91.848 147.839 L 74.318 147.817 C 70.343 147.783 66.27 147.457 62.318 147.018 C 61.211 146.895 58.387 146.696 57.733 145.879 L 57.852 145.743 C 60.303 143.654 95.998 144.319 101.257 144.33 L 99.932 148.071 Z"/>
  <path fill="#387572" d="M 96.094 156.991 L 51.354 157.069 L 40.481 157.08 C 39.084 157.079 37.237 157.312 35.914 157.007 C 35.202 156.842 35.031 156.426 34.656 155.863 C 34.742 154.997 34.764 154.895 35.319 154.231 C 36.912 153.524 39.707 153.854 41.457 153.852 L 54.84 153.848 L 97.545 153.835 C 97.131 154.756 96.694 156.22 96.094 156.991 Z"/>
  <path fill="#02060C" d="M 30.483 53.192 L 40.736 31.39 L 37.745 49.363 L 30.581 93.045 C 30.227 96.144 30.016 99.44 29.327 102.48 C 28.667 105.39 27.347 108.385 26.457 111.265 L 21.103 129.443 L 32.596 129.44 C 35.917 125.156 38.64 120.278 42.258 116.249 L 36.233 129.301 C 32.956 136.845 30.586 144.992 28.509 152.942 C 27.346 157.398 26.471 162.135 24.786 166.425 L 24.279 167.819 L 19.036 181.29 L 18.098 183.562 L 12.252 199.954 L 8.486 202.947 L -15.229 220.914 L -14.042 216.971 C -14.435 214.814 -14.074 212.314 -13.888 210.142 L -9.35 168.387 L -8.093 154.639 C -7.911 152.313 -8.022 149.446 -7.442 147.216 C -7.01 145.556 -5.896 143.744 -5.128 142.189 C -3.039 137.963 -0.75 133.886 0.657 129.37 L 15.25 88.55 L -0.179 84.745 L 2.533 65.715 L 30.483 53.192 Z"/>
  <path fill="#649F91" d="M 2.533 65.715 L 30.483 53.192 L 15.25 88.55 L -0.179 84.745 L 2.533 65.715 Z"/>
  <path fill="#649F91" d="M 32.596 129.44 C 35.917 125.156 38.64 120.278 42.258 116.249 L 36.233 129.301 C 32.956 136.845 30.586 144.992 28.509 152.942 C 27.346 157.398 26.471 162.135 24.786 166.425 L 24.279 167.819 L 19.036 181.29 L 18.098 183.562 L 12.252 199.954 L 8.486 202.947 L -15.229 220.914 L -14.042 216.971 L -8.568 201.62 C -6.972 195.501 -5.007 189.194 -2.474 183.389 C -0.968 179.938 0.968 176.593 2.726 173.26 L 15.347 149.702 C 15.36 149.494 15.335 149.566 15.424 149.386 C 16.868 146.493 17.525 143.285 18.286 140.155 L 21.103 129.443 L 32.596 129.44 Z"/>
  <path fill="#0B2028" d="M 21.103 129.443 L 32.596 129.44 L 13.617 154.625 C 14.148 153.315 15.507 151.078 15.347 149.702 C 15.36 149.494 15.335 149.566 15.424 149.386 C 16.868 146.493 17.525 143.285 18.286 140.155 L 21.103 129.443 Z"/>
  <path fill="#2A555F" d="M -8.568 201.62 C -7.7 201.102 -7.417 199.986 -6.983 199.073 L -3.661 192.111 L 5.016 173.987 L 12.052 158.735 L 8.486 202.947 L -15.229 220.914 L -14.042 216.971 L -8.568 201.62 Z"/>
  <path fill="#02060C" d="M -59.367 234.404 L -43.4 232.882 L -49.636 249.507 L -57.562 283.747 C -58.069 285.904 -58.349 289.689 -59.566 291.432 L -59.367 234.404 Z"/>
  <path fill="#0B2028" d="M -59.26 183.587 L -59.207 183.791 C -58.667 186.071 -58.988 188.946 -58.991 191.297 C -58.992 191.837 -59.134 192.865 -58.996 193.36 C -58.8 194.065 -57.877 195.165 -57.477 195.872 L -53.433 203.385 L -39.595 231.434 L -43.4 232.882 L -59.367 234.404 L -59.26 183.587 Z"/>
  <path fill="#649F91" d="M -61.48 125.014 L -61.083 124.782 L -57.291 104.215 C -56.48 100.379 -55.278 96.575 -54.573 92.727 C -54.467 92.15 -54.475 91.748 -54.657 91.192 C -56.125 86.694 -57.136 82.041 -58.254 77.444 C -61.83 62.739 -64.148 47.886 -65.522 32.822 C -66.263 24.687 -66.35 16.377 -67.429 8.292 C -65.843 11.929 -65.085 16.494 -64.047 20.337 L -56.826 48.307 L -55.221 55.366 C -54.882 56.975 -54.682 58.765 -53.997 60.266 L -53.907 60.452 L -45.933 100.218 C -45.63 101.962 -45.77 103.746 -45.49 105.472 L -45.103 129.373 L -58.705 129.387 C -59.774 128.051 -59.751 125.724 -61.48 125.014 Z"/>
  <path fill="#387572" d="M -59.287 173.619 C -60.224 169.515 -62.539 165.308 -64.207 161.427 C -64.754 160.156 -65.562 158.668 -65.83 157.309 C -66.192 155.468 -66.232 153.421 -66.401 151.543 L -67.429 139.079 L -70.255 108.986 L -61.48 125.014 C -59.751 125.724 -59.774 128.051 -58.705 129.387 L -58.646 129.567 C -57.679 132.346 -55.72 135.217 -54.331 137.833 C -50.214 145.583 -45.507 153.61 -42.475 161.846 C -41.387 164.802 -40.845 168.007 -40.195 171.079 L -37.487 183.888 L -28.465 227.423 L -34.035 229.403 L -39.595 231.434 L -53.433 203.385 L -57.477 195.872 C -57.877 195.165 -58.8 194.065 -58.996 193.36 C -59.134 192.865 -58.992 191.837 -58.991 191.297 C -58.988 188.946 -58.667 186.071 -59.207 183.791 L -59.26 183.587 L -59.287 173.619 Z"/>
  <path fill="#02060C" d="M -59.287 173.619 C -58.099 175.375 -57.408 177.564 -56.594 179.526 L -52.226 189.946 L -34.035 229.403 L -39.595 231.434 L -53.433 203.385 L -57.477 195.872 C -57.877 195.165 -58.8 194.065 -58.996 193.36 C -59.134 192.865 -58.992 191.837 -58.991 191.297 C -58.988 188.946 -58.667 186.071 -59.207 183.791 L -59.26 183.587 L -59.287 173.619 Z"/>
  <path fill="#0B2028" d="M -3.964 -17.24 L -0.167 -34.412 L 1.048 -22.32 L 5.959 12.191 L 7.161 20.336 C 7.478 22.312 7.975 24.359 7.674 26.351 L 2.533 65.715 L -0.179 84.745 L 15.25 88.55 L 0.657 129.37 C -0.75 133.886 -3.039 137.963 -5.128 142.189 C -5.896 143.744 -7.01 145.556 -7.442 147.216 C -8.022 149.446 -7.911 152.313 -8.093 154.639 L -9.35 168.387 L -13.888 210.142 C -14.074 212.314 -14.435 214.814 -14.042 216.971 L -15.229 220.914 L -18.566 223.433 L -19.07 223.926 L -28.465 227.423 L -37.487 183.888 L -40.195 171.079 C -40.845 168.007 -41.387 164.802 -42.475 161.846 C -45.507 153.61 -50.214 145.583 -54.331 137.833 C -55.72 135.217 -57.679 132.346 -58.646 129.567 L -58.705 129.387 L -45.103 129.373 L -45.49 105.472 C -45.77 103.746 -45.63 101.962 -45.933 100.218 L -53.907 60.452 L -42.391 52.315 C -41.584 48.674 -39.837 44.811 -38.486 41.318 C -32.674 26.29 -25.538 12.331 -16.571 -1.074 C -12.753 -6.782 -8.833 -12.369 -3.964 -17.24 Z"/>
  <path fill="#2A555F" d="M 0.657 129.37 L -5.822 129.388 L -0.179 84.745 L 15.25 88.55 L 0.657 129.37 Z"/>
  <path fill="#02060C" d="M -19.07 223.926 L -31.7 128.741 L -23.333 145.61 C -22.158 147.913 -20.416 150.594 -19.641 153.02 C -19.242 154.268 -19.308 155.901 -19.219 157.209 L -18.695 166.003 L -17.439 201.593 C -17.54 208.868 -18.64 216.185 -18.566 223.433 L -19.07 223.926 Z"/>
  <path fill="#2A555F" d="M -42.391 52.315 C -41.28 51.607 -36.312 47.987 -35.42 48.128 L -11.446 75.577 L -11.673 129.408 L -31.781 129.371 L -44.782 73.057 L -45.49 105.472 C -45.77 103.746 -45.63 101.962 -45.933 100.218 L -53.907 60.452 L -42.391 52.315 Z"/>
  <path fill="#02060C" d="M 246.037 264.043 L 250.288 260.78 C 250.096 261.677 249.8 262.63 249.86 263.55 L 249.526 291.716 C 250.143 291.637 250.769 290.939 251.242 290.531 C 253.149 288.89 254.885 287.101 256.863 285.532 L 259.803 283.117 L 259.728 301.313 C 259.725 302.491 260.045 305.379 259.663 306.325 C 259.376 307.024 258.243 308.104 257.747 308.721 C 255.333 311.726 252.857 315.179 250.186 317.923 L 250.123 317.962 L 249.996 383.149 C 249.989 388.442 249.602 394.009 249.957 399.28 C 249.98 399.625 250.216 399.909 250.231 400.112 C 250.258 400.458 249.908 400.451 250.183 400.807 C 250.558 401.286 250.809 401.721 251.033 402.288 C 249.184 403.907 247.132 405.219 244.948 406.341 C 244.089 406.782 243.175 407.062 242.349 407.578 L 229.086 416.249 C 204.1 432.128 177.944 446.222 151.607 459.709 L 96.692 488.409 L 69.729 473.77 L 12.176 443.833 L -16.755 427.876 L -50.048 406.893 C -52.291 405.506 -55.071 405.013 -57.424 403.649 C -58.116 403.248 -58.862 402.895 -59.214 402.168 L -58.577 401.065 L -59.031 400.383 L -58.638 399.563 L -58.789 399.289 C -59.006 398.872 -58.994 398.529 -59.011 398.072 L -59.315 334.722 C -60.661 333.153 -61.709 330.5 -62.72 328.653 L -70.466 314.262 L -70.466 312.46 C -67.883 312.868 -65.155 315.182 -62.933 316.562 L -59.571 318.318 L -33.312 334.905 L -22.498 342.668 C -20.059 344.453 -17.173 347.129 -14.435 348.324 C -13.878 348.803 -12.03 349.985 -11.79 350.5 L 1.029 350.282 C 3.623 350.171 6.894 349.59 9.413 349.939 C 10.646 350.109 11.813 350.859 12.915 351.394 L 17.431 353.496 L 46.169 367.789 L 51.804 371.519 C 52.193 371.79 53.195 372.661 53.567 372.743 C 54.266 372.896 57.006 371.519 57.8 371.209 L 68.348 367.401 C 71.173 366.389 74.558 364.764 77.58 364.885 L 131.739 372.694 L 148.626 364.046 C 150.757 362.943 153.216 361.977 155.206 360.672 C 155.691 360.355 156.057 359.895 156.379 359.422 L 185.751 317.499 L 186.283 317.009 L 186.549 317.003 L 188.542 314.157 L 232.43 278.594 L 232.395 278.379 C 232.264 276.555 233.239 274.583 233.92 272.922 C 237.731 270.028 241.817 266.256 246.037 264.043 Z"/>
  <path fill="#0B2028" d="M -11.209 350.843 C -8.983 351.081 -7.451 352.364 -5.612 353.551 L 2.873 359.396 L 17.445 370.041 C 18.521 370.873 20.062 371.734 20.987 372.69 C 21.294 373.01 21.496 373.434 21.646 373.846 L 19.75 373.647 L -3.198 357.157 C -4.01 356.824 -4.929 355.963 -5.645 355.434 C -7.573 354.002 -9.481 352.514 -11.209 350.843 Z"/>
  <path fill="#5B240F" d="M 76.533 425.66 C 77.159 425.454 78.297 425.588 78.973 425.578 C 83.55 425.52 87.633 426.43 91.91 428.003 C 88.594 429.214 85.436 429.909 81.92 430.183 C 76.261 430.258 70.996 429.021 65.537 427.706 C 69.094 426.619 72.838 426.025 76.533 425.66 Z"/>
  <path fill="#CF6429" d="M 21.992 373.868 C 27.396 373.594 32.958 374.038 38.375 374.152 C 42.826 374.247 47.615 373.983 52.021 374.489 C 55.171 374.847 58.436 375.996 61.517 376.753 L 72.544 379.524 C 74.194 379.968 76.005 380.31 77.578 380.979 C 73.906 380.705 70.172 379.801 66.521 379.233 L 46.358 376.482 L 30.972 374.834 C 28.071 374.567 24.784 374.616 21.992 373.868 Z"/>
  <path fill="#5B240F" d="M -49.24 372.606 C -42.618 371.999 -36.428 373.007 -30.191 375.229 L -37.346 376.867 C -43.916 377.928 -50.86 376.877 -56.762 373.774 L -49.24 372.606 Z"/>
  <path fill="#5B240F" d="M 5.422 420.491 C 12.968 419.894 20.212 420.651 27.185 423.708 L 19.1 425.461 C 11.541 426.313 4.349 425.037 -2.371 421.362 L 5.422 420.491 Z"/>
  <path fill="#5B240F" d="M 158.37 425.105 C 165.288 424.518 173.501 425.347 179.751 428.554 L 169.525 430.137 C 162.16 430.388 154.476 429.915 147.491 427.36 C 148.335 426.874 149.631 426.636 150.591 426.407 C 153.185 425.79 155.728 425.418 158.37 425.105 Z"/>
  <path fill="#2A555F" d="M 220.557 334.853 C 222.252 335.081 224.262 335.284 225.883 335.845 L 180.487 361.54 C 181.462 360.27 183.14 359.305 184.45 358.391 L 192.451 353.033 L 220.557 334.853 Z"/>
  <path fill="#0B2028" d="M 79.472 384.239 C 79.872 384.167 80.753 383.89 81.116 383.952 C 81.721 384.053 82.6 384.647 83.133 384.951 L 87.449 387.427 L 111.253 401.009 L 122.064 430.232 L 94.268 408.041 L 73.618 419.819 C 70.377 421.692 66.856 424.293 63.423 425.679 C 62.336 426.12 60.93 426.172 59.772 426.345 L 53.457 427.389 L 43.866 429.067 C 41.497 429.511 39.048 430.134 36.638 430.212 L 83.315 394.558 L 53.503 400.666 L 53.261 400.693 L 53.227 400.311 C 53.891 400.262 53.98 400.33 54.47 399.841 C 54.804 399.89 55.064 399.942 55.396 399.857 C 56.224 399.648 57.737 399.596 58.405 399.149 L 58.548 399.025 L 59.092 399.159 C 59.312 399.048 59.491 398.957 59.742 398.94 C 60.24 398.911 60.452 398.852 60.873 398.568 L 60.995 398.483 L 61.539 398.617 C 61.873 398.496 62.131 398.412 62.488 398.395 C 62.901 398.376 63.295 398.428 63.646 398.17 L 63.85 398.004 C 64.286 398.082 64.51 398.102 64.929 397.948 C 66.085 397.527 68.04 397.622 69.008 396.976 L 69.152 396.852 L 69.696 396.982 C 70.289 396.679 70.925 396.711 71.527 396.463 L 71.735 396.372 C 72.198 396.509 73.641 396.189 74.089 395.997 C 75.442 395.416 77.285 395.579 78.669 395.08 C 79.231 394.877 80.058 394.956 80.5 394.633 L 80.708 394.47 L 81.116 394.535 C 81.927 394.189 82.418 394.186 83.291 394.264 L 83.56 394.943 C 82.847 395.602 81.308 397.263 80.471 397.596 C 79.97 397.795 79.374 398.523 78.902 398.868 C 77.2 400.125 75.293 401.45 73.706 402.83 C 72.706 403.701 71.577 404.746 70.413 405.415 C 68.196 406.687 66.355 408.896 64.164 410.13 C 63.322 410.606 62.186 411.409 61.507 412.104 C 60.457 413.175 58.746 414.176 57.508 415.123 C 54.553 417.381 51.695 419.933 48.623 422.005 L 41.951 426.884 C 41.196 427.464 40.176 428.013 39.513 428.669 C 39.184 428.995 38.793 429.269 38.427 429.556 C 38.864 429.599 39.351 429.706 39.763 429.53 C 40.488 429.22 41.479 429.292 42.234 429.08 C 43.288 428.78 44.795 428.842 45.745 428.434 C 46.143 428.264 46.472 428.372 46.857 428.264 C 47.91 427.964 49.418 428.026 50.367 427.618 C 50.765 427.448 51.095 427.556 51.479 427.448 C 53.784 426.789 56.386 426.668 58.752 426.156 C 59.311 426.035 59.88 426.221 60.427 425.986 C 61.487 425.533 62.716 425.852 63.786 425.138 C 64.402 424.73 65.088 424.449 65.701 424.038 L 68.964 422.136 C 70.222 421.297 72.164 419.969 73.529 419.437 C 73.756 419.349 73.921 419.29 74.127 419.15 C 75.686 418.112 77.445 417.224 79.076 416.294 C 79.705 415.939 80.412 415.785 80.943 415.26 C 81.151 415.051 81.246 414.973 81.524 414.868 C 82.015 414.682 82.296 414.398 82.752 414.196 C 83.249 413.974 83.736 413.736 84.19 413.432 L 86.093 412.342 L 87.997 411.256 L 92.61 408.544 L 93.555 407.931 C 95.1 407.829 94.934 408.358 96.138 409.02 C 97.828 409.947 99.336 411.657 100.964 412.76 C 101.284 412.976 101.602 413.55 101.915 413.71 C 102.037 413.772 102.205 413.648 102.323 413.713 C 102.758 413.961 102.887 414.597 103.442 414.836 C 103.959 415.057 104.13 415.524 104.567 415.818 C 105.604 416.519 106.539 417.544 107.595 418.177 C 108.737 418.862 109.686 420.103 110.82 420.716 C 111.419 421.039 111.852 421.666 112.421 421.907 C 112.767 422.057 112.947 422.276 113.203 422.547 C 113.416 422.769 113.58 422.72 113.879 422.756 C 113.897 422.406 113.866 421.858 113.744 421.532 L 113.608 421.258 L 113.637 421.095 L 113.675 420.85 C 113.788 420.217 113.685 420.109 113.474 419.558 C 113.351 419.238 113.311 419.048 113.087 418.778 L 112.93 418.608 C 112.93 417.724 113.228 417.932 113.471 417.25 C 113.703 416.598 113.101 416.157 113.202 415.478 C 113.009 415.025 112.92 414.61 112.859 414.121 C 112.826 413.847 112.831 413.684 112.685 413.442 C 112.443 413.044 112.912 411.84 112.93 411.262 C 112.946 410.773 112.8 410.371 112.658 409.905 L 113.063 409.905 C 113.368 409.657 113.646 409.487 113.746 409.089 L 113.474 408.815 C 113.331 408.012 113.017 406.697 112.539 406.057 C 112.392 405.858 112.415 405.663 112.383 405.415 C 112.231 405.242 112.186 405.183 112.148 404.948 C 112.103 404.677 112.145 404.788 112.02 404.54 C 111.894 404.289 111.796 404.047 111.705 403.783 C 111.502 403.186 110.874 402.187 110.872 401.603 L 110.888 401.473 L 109.325 400.451 C 107.373 399.479 105.596 398.157 103.615 397.188 C 103.033 396.904 102.537 396.489 101.954 396.235 C 100.536 395.618 98.899 394.675 97.565 393.853 C 96.898 393.442 96.341 392.769 95.526 392.766 C 94.949 392.061 94.19 391.836 93.419 391.405 C 91.68 390.443 89.673 389.522 88.049 388.413 C 87.192 387.829 85.835 387.042 84.873 386.634 C 84.257 386.373 83.76 385.773 83.159 385.623 C 82.665 385.496 81.987 385.081 81.619 384.719 L 81.524 384.608 C 80.346 384.605 79.71 384.879 78.669 385.15 C 78.424 385.212 77.977 384.973 77.717 385.016 C 77.508 385.052 77.247 385.385 77.037 385.42 C 76.814 385.463 76.442 385.244 76.221 385.287 C 76.06 385.319 75.846 385.639 75.678 385.695 C 74.591 386.054 73.469 386.089 72.415 386.51 C 72.303 386.553 71.834 386.328 71.735 386.377 C 71.563 386.461 71.499 386.696 71.328 386.781 C 70.895 386.993 70.54 386.67 69.968 387.052 C 69.592 386.997 69.373 386.938 69.007 387.075 C 67.968 387.467 66.088 387.444 65.235 388.015 L 65.074 388.142 C 64.327 388.142 64.055 388.426 63.306 388.279 C 63.027 388.508 62.938 388.553 62.567 388.589 C 62.305 388.615 62.194 388.618 61.929 388.716 L 60.791 389.095 C 59.782 389.447 58.383 389.767 57.324 389.911 C 57.011 389.953 56.772 389.979 56.467 390.074 L 54.334 390.589 C 53.886 390.749 53.609 390.828 53.134 390.854 C 52.839 390.87 52.813 391.043 52.567 391.134 C 51.697 391.458 51.174 390.9 50.391 391.676 C 49.665 391.65 47.61 391.97 47.018 392.365 C 46.598 392.645 46.179 392.345 45.769 392.492 L 43.322 393.308 C 42.617 393.526 41.432 393.295 40.875 393.853 C 40.531 393.84 40.267 393.804 39.944 393.944 C 39.592 394.098 39.088 393.872 38.705 393.781 C 40.07 393.177 41.857 392.9 43.318 392.567 L 51.373 390.723 L 79.472 384.239 Z"/>
  <path fill="#2A555F" d="M 233.18 346.92 L 248.275 349.241 C 244.686 352.109 241.345 355.297 237.942 358.384 C 237.436 358.844 235.873 360.597 235.34 360.744 C 234.615 360.946 233.283 360.783 232.493 360.796 L 216.799 361.037 L 233.18 346.92 Z"/>
  <path fill="#649F91" d="M 256.863 285.532 C 255.605 287.486 253.881 289.147 252.396 290.929 L 243.018 302.383 C 234.77 312.633 227.252 323.523 220.557 334.853 L 192.451 353.033 L 184.45 358.391 C 183.14 359.305 181.462 360.27 180.487 361.54 L 176.012 364.092 L 210.539 331.048 L 249.526 291.716 C 250.143 291.637 250.769 290.939 251.242 290.531 C 253.149 288.89 254.885 287.101 256.863 285.532 Z"/>
  <path fill="#2A555F" d="M 213.698 365.795 L 214.752 365.674 L 230.538 376.078 C 232.501 377.412 234.622 378.6 236.396 380.186 L 205.321 384.846 L 181.964 371.855 L 213.698 365.795 Z"/>
  <path fill="#2A555F" d="M 97.004 433.296 L 97.676 433.221 L 115.461 450.346 L 97.614 449.054 C 93.49 448.78 89.127 448.189 85.004 448.398 C 83.127 448.493 81.228 448.894 79.36 449.12 L 64.634 451.019 L 58.545 451.795 C 57.82 451.88 56.779 452.118 56.078 451.932 C 55.397 451.75 54.196 450.735 53.567 450.33 L 44.631 444.469 L 97.004 433.296 Z"/>
  <path fill="#387572" d="M 256.863 285.532 L 259.803 283.117 L 259.728 301.313 C 259.725 302.491 260.045 305.379 259.663 306.325 C 259.376 307.024 258.243 308.104 257.747 308.721 C 255.333 311.726 252.857 315.179 250.186 317.923 L 250.123 317.962 C 247.944 320.269 246 322.997 243.684 325.141 C 242.193 326.522 239.654 327.667 237.88 328.728 C 233.916 331.097 229.967 333.704 225.883 335.845 C 224.262 335.284 222.252 335.081 220.557 334.853 C 227.252 323.523 234.77 312.633 243.018 302.383 L 252.396 290.929 C 253.881 289.147 255.605 287.486 256.863 285.532 Z"/>
  <path fill="#387572" d="M 53.261 400.693 L 53.503 400.666 L 83.315 394.558 L 36.638 430.212 L 20.14 441.666 L 41.728 403.036 L 53.261 400.693 Z"/>
  <path fill="#E0C796" d="M 149.132 398.898 L 116.195 389.849 C 120.086 388.282 124.235 387.153 128.238 385.897 L 149.046 379.419 L 154.083 377.824 C 154.654 377.641 155.695 377.138 156.267 377.119 C 156.98 377.099 158.237 377.546 158.976 377.709 L 165.507 379.158 L 184.355 383.348 C 188.03 384.164 191.8 384.827 195.403 385.92 C 192.235 387.685 187.52 388.338 183.962 389.333 L 149.132 398.898 Z"/>
  <path fill="#0B2028" d="M 195.403 385.92 L 221.672 410.058 L 202.642 416.353 C 201.11 416.862 195.504 419.075 194.173 418.895 C 193.206 418.765 191.302 417.583 190.305 417.139 L 176.024 410.757 L 156.943 402.403 C 154.591 401.358 152.074 400.454 149.786 399.293 L 149.132 398.898 L 183.962 389.333 C 187.52 388.338 192.235 387.685 195.403 385.92 Z"/>
  <path fill="#387572" d="M -70.466 312.46 C -67.883 312.868 -65.155 315.182 -62.933 316.562 L -59.571 318.318 L -33.312 334.905 L -22.498 342.668 C -20.059 344.453 -17.173 347.129 -14.435 348.324 C -13.878 348.803 -12.03 349.985 -11.79 350.5 L -11.209 350.843 C -9.481 352.514 -7.573 354.002 -5.645 355.434 C -4.929 355.963 -4.01 356.824 -3.198 357.157 L 19.75 373.647 L 13.317 374.27 L 4.304 376.73 C 3.518 376.058 2.499 376.136 1.517 376.003 L -3.962 375.268 L -27.394 372.217 L -31.207 371.76 C -31.522 371.728 -32.33 371.741 -32.59 371.617 C -33.509 371.173 -34.961 369.117 -35.713 368.282 L -43.89 359.373 L -59.315 334.722 C -60.661 333.153 -61.709 330.5 -62.72 328.653 L -70.466 314.262 L -70.466 312.46 Z"/>
  <path fill="#0B2028" d="M -12.455 358.655 C -10.032 360.512 -7.173 361.902 -4.556 363.472 L 13.317 374.27 L 4.304 376.73 C 3.518 376.058 2.499 376.136 1.517 376.003 L -3.962 375.268 L -27.394 372.217 L -31.207 371.76 C -31.522 371.728 -32.33 371.741 -32.59 371.617 C -33.509 371.173 -34.961 369.117 -35.713 368.282 L -43.89 359.373 L -12.455 358.655 Z"/>
  <path fill="#2E150B" d="M 246.037 264.043 L 250.288 260.78 C 250.096 261.677 249.8 262.63 249.86 263.55 L 249.526 291.716 L 210.539 331.048 C 209.946 331.169 209.55 331.237 209.042 331.567 C 204.728 334.367 199.206 335.567 194.997 338.54 C 194.386 338.971 193.693 339.196 192.996 339.448 L 174.387 349.985 C 168.671 353.271 162.696 357.444 156.379 359.422 L 185.751 317.499 L 186.283 317.009 L 186.549 317.003 L 188.542 314.157 L 232.43 278.594 L 232.395 278.379 C 232.264 276.555 233.239 274.583 233.92 272.922 C 237.731 270.028 241.817 266.256 246.037 264.043 Z"/>
  <path fill="#5B240F" d="M 246.037 264.043 L 250.288 260.78 C 250.096 261.677 249.8 262.63 249.86 263.55 C 244.194 269.548 237.197 274.724 232.353 281.404 C 232.46 280.474 232.636 279.521 232.43 278.594 L 232.395 278.379 C 232.264 276.555 233.239 274.583 233.92 272.922 C 237.731 270.028 241.817 266.256 246.037 264.043 Z"/>
  <path fill="#2E150B" d="M 233.92 272.922 C 237.731 270.028 241.817 266.256 246.037 264.043 L 238.871 271.369 C 236.902 273.484 234.826 276.887 232.395 278.379 C 232.264 276.555 233.239 274.583 233.92 272.922 Z"/>
  <path fill="#CF6429" d="M 232.43 278.594 C 232.636 279.521 232.46 280.474 232.353 281.404 L 219.682 307.552 L 196.703 314.147 C 193.467 315.064 189.852 316.549 186.549 317.003 L 188.542 314.157 L 232.43 278.594 Z"/>
  <path fill="#E0C796" d="M 19.75 373.647 L 21.646 373.846 L 21.992 373.868 C 24.784 374.616 28.071 374.567 30.972 374.834 L 46.358 376.482 L 66.521 379.233 C 70.172 379.801 73.906 380.705 77.578 380.979 C 79.535 381.459 81.717 381.841 83.563 382.647 L 95.751 388.661 L 119.735 401.029 L 123.876 403.258 C 124.193 403.43 124.96 403.731 125.184 403.982 C 125.774 404.644 126.269 405.685 126.755 406.446 L 130.09 411.589 L 144.468 434.099 L 145.902 436.602 L 122.064 430.232 L 111.253 401.009 L 87.449 387.427 L 83.133 384.951 C 82.6 384.647 81.721 384.053 81.116 383.952 C 80.753 383.89 79.872 384.167 79.472 384.239 L 51.373 390.723 L 43.318 392.567 C 41.857 392.9 40.07 393.177 38.705 393.781 C 34.761 394.509 30.862 395.475 27.033 396.662 C 24.19 397.544 21.235 398.722 18.321 399.306 C 15.93 399.782 13.295 399.785 10.856 399.981 L -4.963 401.192 L -22.559 402.67 C -25.131 402.879 -27.779 403.284 -30.352 403.3 L -40.472 405.813 C -35.801 399.394 -29.789 393.471 -24.407 387.633 C -23.316 386.448 -21.662 384.083 -20.361 383.254 C -19.901 382.96 -18.922 382.807 -18.385 382.673 L -13.767 381.511 L 4.304 376.73 L 13.317 374.27 L 19.75 373.647 Z"/>
  <path fill="#387572" d="M -30.352 403.3 C -25.871 401.257 -20.889 399.838 -16.262 398.108 L 15.945 386.132 L 22.638 383.629 C 23.692 383.224 25.053 382.523 26.182 382.444 C 27.898 382.327 29.77 382.575 31.495 382.66 L 41.576 383.117 L 79.472 384.239 L 51.373 390.723 L 43.318 392.567 C 41.857 392.9 40.07 393.177 38.705 393.781 C 34.761 394.509 30.862 395.475 27.033 396.662 C 24.19 397.544 21.235 398.722 18.321 399.306 C 15.93 399.782 13.295 399.785 10.856 399.981 L -4.963 401.192 L -22.559 402.67 C -25.131 402.879 -27.779 403.284 -30.352 403.3 Z"/>
  <path fill="white" d="M 82.865 101.444 C 86.608 99.443 90.214 97.526 93.287 94.55 C 97.999 89.987 101.003 82.824 107.241 80.031 C 109.962 78.813 113.277 78.399 116.105 79.516 C 118.37 80.411 120.108 82.249 121.488 84.198 C 123.673 87.285 125.401 91.003 126.672 94.555 C 127.434 96.684 127.993 98.995 128.897 101.056 L 129.152 101.018 C 129.688 102.228 128.891 105.743 129.527 106.425 C 130.002 114.061 130.179 122.09 128.706 129.639 L 165.967 130.848 L 190.117 175.343 L 195.384 170.633 C 197.134 168.737 198.853 166.785 200.381 164.703 C 201.756 162.829 203.055 160.172 204.79 158.666 C 204.114 163.553 203.417 168.635 201.792 173.312 C 199.056 179.881 195.111 184.053 188.784 187.316 C 191.563 187.062 195.356 186.57 197.933 185.476 C 201.957 184.806 206.08 183.137 209.938 181.805 L 207.586 185.152 C 211.417 188.011 214.499 191.538 217.181 195.474 L 224.572 192.912 C 225.856 192.481 228.309 191.117 229.557 191.217 L 229.645 191.938 C 230.553 194.114 230.934 196.511 231.487 198.797 C 232.439 201.565 232.758 204.701 233.308 207.581 C 234.101 211.724 235.119 215.957 235.592 220.141 L 243.638 209.637 C 244.666 208.323 248.185 204.841 248.167 203.294 L 248.429 196.468 L 248.453 203.525 C 253.584 197.419 257.33 189.994 261.941 183.473 L 262.469 182.604 L 262.76 182.663 L 262.097 216.873 L 262.101 228.789 C 262.107 230.899 262.264 233.195 262.048 235.284 C 261.993 235.831 261.771 236.241 261.52 236.717 C 260.378 238.9 259.47 241.289 258.446 243.537 L 253.278 254.517 C 252.314 256.578 251.465 258.848 250.288 260.78 L 246.037 264.043 C 241.817 266.256 237.731 270.028 233.92 272.922 C 233.239 274.583 232.264 276.555 232.395 278.379 L 232.43 278.594 L 188.542 314.157 L 186.549 317.003 L 186.283 317.009 L 185.751 317.499 L 156.379 359.422 C 156.057 359.895 155.691 360.355 155.206 360.672 C 153.216 361.977 150.757 362.943 148.626 364.046 L 131.739 372.694 L 77.58 364.885 C 74.558 364.764 71.173 366.389 68.348 367.401 L 57.8 371.209 C 57.006 371.519 54.266 372.896 53.567 372.743 C 53.195 372.661 52.193 371.79 51.804 371.519 L 46.169 367.789 L 17.431 353.496 L 12.915 351.394 C 11.813 350.859 10.646 350.109 9.413 349.939 C 6.894 349.59 3.623 350.171 1.029 350.282 L -11.79 350.5 C -12.03 349.985 -13.878 348.803 -14.435 348.324 C -17.173 347.129 -20.059 344.453 -22.498 342.668 L -33.312 334.905 L -59.571 318.318 L -59.572 294.189 L -59.566 291.432 C -58.349 289.689 -58.069 285.904 -57.562 283.747 L -49.636 249.507 L -43.4 232.882 L -39.595 231.434 L -34.035 229.403 L -28.465 227.423 L -19.07 223.926 L -18.566 223.433 L -15.229 220.914 L 8.486 202.947 L 12.252 199.954 L 18.098 183.562 L 28.208 183.574 C 29.451 183.573 31.39 183.338 32.509 183.802 C 33.517 183.206 34.473 182.227 35.38 181.472 L 39.805 177.796 L 51.54 187.225 C 52.336 187.857 53.704 189.297 54.596 189.68 C 56.005 190.284 58.476 190.367 60.058 190.631 C 63.844 191.264 68.201 192.527 72.006 192.567 C 73.685 191.108 75.184 189.308 76.734 187.706 C 77.494 186.921 78.169 186.061 79.188 185.613 L 80.913 182.912 C 81.338 182.693 82.591 180.236 82.936 179.68 L 88.521 170.958 C 88.691 170.908 89.965 168.548 90.165 168.204 L 92.344 164.404 L 92.359 164.403 L 93.737 161.76 L 96.094 156.991 C 96.694 156.22 97.131 154.756 97.545 153.835 L 99.932 148.071 L 101.257 144.33 C 103.232 139.497 104.409 134.213 105.511 129.125 C 107.557 119.867 107.206 109.423 105.995 100.067 C 99.282 103.931 92.046 105.104 84.378 104.686 C 83.088 104.616 81.517 104.689 80.27 104.367 C 79.9 104.272 79.652 104.186 79.335 103.974 L 82.865 101.444 Z"/>
  <path fill="#387572" d="M 166.012 281.348 L 189.133 281.042 C 183.721 289.999 171.734 294.897 161.963 297.345 L 161.339 297.456 C 158.578 296.379 155.105 296.216 152.178 295.488 C 143.807 293.409 135.783 290.884 127.834 287.513 C 125.512 286.527 122.962 285.597 120.813 284.275 C 140.56 287.088 160.985 287.885 180.686 284.412 C 175.988 283.107 171.015 282.941 166.31 281.443 L 166.012 281.348 Z"/>
  <path fill="#649F91" d="M 82.865 101.444 C 86.608 99.443 90.214 97.526 93.287 94.55 C 97.999 89.987 101.003 82.824 107.241 80.031 C 109.962 78.813 113.277 78.399 116.105 79.516 C 118.37 80.411 120.108 82.249 121.488 84.198 C 123.673 87.285 125.401 91.003 126.672 94.555 C 127.434 96.684 127.993 98.995 128.897 101.056 L 129.152 101.018 C 129.688 102.228 128.891 105.743 129.527 106.425 C 130.002 114.061 130.179 122.09 128.706 129.639 C 127.015 139.617 124.689 148.916 121.252 158.434 L 119.937 161.677 L 114.511 173.93 L 113.082 177.047 C 111.91 178.626 111.15 180.654 110.308 182.427 L 105.437 193.15 C 111.081 190.286 115.73 185.523 121.224 182.394 L 122.485 185.345 L 130.827 200.869 L 118.679 211.218 L 112.259 217.174 C 111.475 217.89 110.501 219.029 109.614 219.534 L 92.83 235.732 C 92.697 235.848 92.38 236.186 92.232 236.247 C 91.862 236.401 90.269 236.093 89.733 236.051 L 80.635 235.389 C 81.298 221.985 87.385 208.283 92.728 196.191 C 101.169 177.089 111.101 157.614 115.664 137.136 C 117.398 129.35 118.137 121.611 118.219 113.643 C 118.309 104.876 117.605 97.299 114.879 88.944 C 112.619 93.94 110.172 96.637 105.995 100.067 C 99.282 103.931 92.046 105.104 84.378 104.686 C 83.088 104.616 81.517 104.689 80.27 104.367 C 79.9 104.272 79.652 104.186 79.335 103.974 L 82.865 101.444 Z"/>
  <path fill="#5B240F" d="M 105.437 193.15 C 111.081 190.286 115.73 185.523 121.224 182.394 L 122.485 185.345 L 130.827 200.869 L 118.679 211.218 L 112.259 217.174 C 111.475 217.89 110.501 219.029 109.614 219.534 L 98.182 221.264 L 98.06 215.226 C 98.94 207.371 102.13 200.25 105.437 193.15 Z"/>
  <path fill="#0B2028" d="M 128.706 129.639 L 165.967 130.848 L 190.117 175.343 C 187.768 177.097 185.318 178.554 182.481 179.381 C 179.567 180.23 176.378 180.249 173.375 180.614 C 170.849 180.92 168.376 181.546 165.93 182.232 C 154.279 185.5 142.811 191.721 133.253 199.081 L 130.827 200.869 L 122.485 185.345 L 121.224 182.394 C 115.73 185.523 111.081 190.286 105.437 193.15 L 110.308 182.427 C 111.15 180.654 111.91 178.626 113.082 177.047 L 114.511 173.93 L 119.937 161.677 L 121.252 158.434 C 124.689 148.916 127.015 139.617 128.706 129.639 Z"/>
  <path fill="#CF6429" d="M 121.224 182.394 L 121.903 182.046 C 123.927 184.395 125.556 187.419 127.299 190.015 C 129.217 192.869 131.836 195.996 133.253 199.081 L 130.827 200.869 L 122.485 185.345 L 121.224 182.394 Z"/>
  <path fill="#387572" d="M 113.082 177.047 L 114.511 173.93 L 114.679 173.966 C 116.615 174.34 118.93 174.128 120.913 174.142 C 127.101 174.185 133.754 173.825 139.82 175.186 C 131.205 177.416 121.927 176.981 113.082 177.047 Z"/>
  <path fill="#387572" d="M 152.097 149.326 L 167.941 149.418 C 170.209 149.493 172.878 149.378 175.029 150.081 C 173.321 151.63 161.585 151.428 158.946 151.47 L 146.335 151.377 C 142.698 151.31 138.757 151.284 135.208 150.43 C 136.3 150 137.899 149.976 139.074 149.855 C 143.387 149.41 147.765 149.419 152.097 149.326 Z"/>
  <path fill="#387572" d="M 152.871 165.654 L 155.684 165.68 C 158.151 165.744 162.977 165.439 164.807 167.367 C 164.993 168.091 164.962 168.204 164.725 168.918 C 162.437 170.926 156.463 170.617 153.546 170.688 C 150.541 170.711 147.341 170.733 144.374 170.221 C 143.107 170.002 142.222 169.759 141.449 168.683 C 141.428 167.762 141.428 167.707 141.974 166.97 C 144.887 165.524 149.607 165.774 152.871 165.654 Z"/>
  <path fill="#387572" d="M 119.937 161.677 L 121.252 158.434 C 128.886 158.774 174.988 157.116 178.055 159.943 C 177.258 160.733 175.196 160.922 174.066 161.036 C 166.982 161.75 159.643 161.443 152.517 161.477 L 119.937 161.677 Z"/>
  <path fill="#387572" d="M 261.941 183.473 L 262.469 182.604 L 262.76 182.663 L 262.097 216.873 L 262.101 228.789 C 262.107 230.899 262.264 233.195 262.048 235.284 C 261.993 235.831 261.771 236.241 261.52 236.717 C 260.378 238.9 259.47 241.289 258.446 243.537 L 253.278 254.517 C 252.314 256.578 251.465 258.848 250.288 260.78 L 246.037 264.043 C 241.817 266.256 237.731 270.028 233.92 272.922 C 233.239 274.583 232.264 276.555 232.395 278.379 L 232.43 278.594 L 188.542 314.157 L 186.549 317.003 L 186.283 317.009 C 186.303 315.466 185.498 313.958 184.9 312.565 C 189.455 306.782 192.015 298.741 194.651 291.921 L 206.138 259.683 C 207.862 253.27 209.697 246.911 210.861 240.363 C 211.643 235.967 211.973 231.507 212.379 227.064 C 210.198 229.796 207.531 232.467 205.607 235.345 C 202.508 239.981 201.259 246.1 199.644 251.404 C 199.04 253.386 196.168 263.178 194.946 264.099 C 193.918 264.875 191.657 265.433 190.39 265.949 C 180.354 270.028 170.801 272.508 160.037 273.715 C 156.1 274.159 151.956 274.675 147.984 274.57 C 150.618 273.96 153.193 273.017 155.754 272.152 C 165.857 268.739 176.443 263.508 184.818 256.876 C 178.267 256.827 171.304 257.789 164.84 258.77 C 162.144 259.178 159.383 259.84 156.668 260.039 C 157.402 259.174 159.829 258.307 160.889 257.695 L 168.65 252.772 C 178.266 246.219 187.332 239.055 196.229 231.563 L 174.189 236.534 C 185.014 227.675 195.064 218.247 203.4 206.962 C 196.835 208.643 190.503 209.894 183.741 210.396 C 193.621 204.342 200.923 194.396 207.586 185.152 C 211.417 188.011 214.499 191.538 217.181 195.474 L 224.572 192.912 C 225.856 192.481 228.309 191.117 229.557 191.217 L 229.645 191.938 C 230.553 194.114 230.934 196.511 231.487 198.797 C 232.439 201.565 232.758 204.701 233.308 207.581 C 234.101 211.724 235.119 215.957 235.592 220.141 L 243.638 209.637 C 244.666 208.323 248.185 204.841 248.167 203.294 L 248.429 196.468 L 248.453 203.525 C 253.584 197.419 257.33 189.994 261.941 183.473 Z"/>
  <path fill="#5B240F" d="M 224.572 192.912 C 225.856 192.481 228.309 191.117 229.557 191.217 L 229.645 191.938 C 230.553 194.114 230.934 196.511 231.487 198.797 C 232.439 201.565 232.758 204.701 233.308 207.581 C 234.101 211.724 235.119 215.957 235.592 220.141 L 226.56 231.953 C 225.608 233.193 224.504 235.077 223.331 236.077 C 224.592 230.713 225.079 225.735 225.068 220.245 C 224.617 216.835 224.272 213.475 223.437 210.125 C 222.141 204.926 219.852 200.089 217.181 195.474 L 224.572 192.912 Z"/>
  <path fill="#2E150B" d="M 229.645 191.938 C 230.553 194.114 230.934 196.511 231.487 198.797 L 226.585 221.318 C 226.151 217.989 228.059 213.739 226.707 210.505 C 226.61 208.689 227.221 206.358 227.51 204.549 L 229.645 191.938 Z"/>
  <path fill="#CF6429" d="M 224.572 192.912 C 225.856 192.481 228.309 191.117 229.557 191.217 L 229.645 191.938 L 227.51 204.549 C 227.221 206.358 226.61 208.689 226.707 210.505 L 225.874 217.391 C 225.715 218.211 225.624 219.629 225.068 220.245 C 224.617 216.835 224.272 213.475 223.437 210.125 C 222.141 204.926 219.852 200.089 217.181 195.474 L 224.572 192.912 Z"/>
  <path fill="#0B2028" d="M 261.941 183.473 L 262.469 182.604 L 262.76 182.663 L 262.097 216.873 L 262.101 228.789 C 262.107 230.899 262.264 233.195 262.048 235.284 C 261.993 235.831 261.771 236.241 261.52 236.717 C 260.378 238.9 259.47 241.289 258.446 243.537 L 253.278 254.517 C 252.314 256.578 251.465 258.848 250.288 260.78 L 246.037 264.043 C 241.817 266.256 237.731 270.028 233.92 272.922 C 233.239 274.583 232.264 276.555 232.395 278.379 L 232.43 278.594 L 188.542 314.157 C 188.933 313.126 189.522 312.186 190.072 311.237 C 190.476 309.951 191.327 308.593 191.964 307.402 L 195.975 300.154 L 219.367 259.899 L 249.465 207.577 L 258.08 191.718 C 259.382 189.231 261.464 186.241 261.941 183.473 Z"/>
  <path fill="#02060C" d="M 190.072 311.237 C 192.387 310.656 215.368 288.576 219.436 284.964 C 224.08 280.839 228.852 276.519 233.92 272.922 C 233.239 274.583 232.264 276.555 232.395 278.379 L 232.43 278.594 L 188.542 314.157 C 188.933 313.126 189.522 312.186 190.072 311.237 Z"/>
  <path fill="#2A555F" d="M 26.42 251.526 L 31.445 224.73 C 32.133 227.754 36.857 247.644 37.777 248.685 L 46.352 221.483 C 48.586 222.553 50.67 223.998 52.791 225.276 C 53.909 225.951 55.119 226.434 56.174 227.212 C 54.039 232.588 53.166 238.053 52.67 243.794 C 54.605 248.792 58.915 252.984 62.664 256.72 C 68.448 262.487 74.875 267.753 81.345 272.73 C 90.571 279.828 100.506 286.7 111.184 291.422 C 124.339 297.234 138.364 300.171 152.769 298.905 C 155.68 298.65 158.477 297.997 161.339 297.456 L 161.963 297.345 C 171.734 294.897 183.721 289.999 189.133 281.042 L 166.012 281.348 C 158.087 280.307 149.676 277.742 142.073 275.292 L 147.984 274.57 C 151.956 274.675 156.1 274.159 160.037 273.715 C 170.801 272.508 180.354 270.028 190.39 265.949 C 191.657 265.433 193.918 264.875 194.946 264.099 C 196.168 263.178 199.04 253.386 199.644 251.404 C 201.259 246.1 202.508 239.981 205.607 235.345 C 207.531 232.467 210.198 229.796 212.379 227.064 C 211.973 231.507 211.643 235.967 210.861 240.363 C 209.697 246.911 207.862 253.27 206.138 259.683 L 194.651 291.921 C 192.015 298.741 189.455 306.782 184.9 312.565 C 177.57 318.412 167.146 320.622 157.912 319.564 C 153.141 319.016 148.904 317.574 144.607 315.482 C 144.149 315.26 142.054 313.935 141.723 313.942 C 141.147 313.952 122.886 325.876 121.164 326.979 C 120.521 327.39 118.022 329.295 117.462 329.338 L 92.113 343.54 L 68.76 356.417 L 62.003 360.15 C 61.24 360.567 60.101 361.386 59.268 361.579 C 58.61 361.732 56.924 361.116 56.233 360.92 L 55.391 360.642 L 46.268 357.151 C 43.985 356.276 41.493 355.562 39.398 354.299 C 43.769 355.072 48.109 355.088 52.209 353.143 C 55.407 351.626 58.387 348.869 59.588 345.478 C 61.177 340.994 59.693 336.948 57.757 332.846 C 55.733 328.822 53.31 325.461 50.477 321.976 C 48.459 319.555 46.022 317.531 43.579 315.557 C 48.059 309.915 50.637 304.501 51.786 297.358 C 52.064 295.625 52.437 293.634 52.242 291.889 C 52.241 291.621 52.233 291.719 52.258 291.494 C 53.13 283.358 50.197 274.397 46.648 267.205 C 45.203 263.642 42.245 259.605 39.446 256.943 C 35.746 253.424 31.606 251.387 26.42 251.526 Z"/>
  <path fill="#02060C" d="M 55.391 360.642 L 55.873 360.352 C 59.482 358.12 60.829 354.69 61.753 350.745 C 63.537 353.519 65.898 354.964 68.76 356.417 L 62.003 360.15 C 61.24 360.567 60.101 361.386 59.268 361.579 C 58.61 361.732 56.924 361.116 56.233 360.92 L 55.391 360.642 Z"/>
  <path fill="#2E150B" d="M 99.573 325.265 C 99.696 324.459 99.7 323.376 100.284 322.769 L 117.462 329.338 L 92.113 343.54 C 95.866 338.687 98.027 331.165 99.573 325.265 Z"/>
  <path fill="#CF6429" d="M 66.406 315.368 C 65.737 317.097 65.071 318.876 64.698 320.697 C 64.035 323.924 63.648 328.636 65.607 331.485 C 67.091 333.642 69.316 334.69 71.849 335.104 C 77.879 336.099 84.214 334.063 89.104 330.536 C 95.402 325.99 98.691 319.219 99.943 311.739 C 100.433 314.457 100.609 317.577 99.884 320.256 L 98.748 324.981 C 97.777 327.403 96.854 329.85 95.54 332.115 C 92.205 337.858 86.684 342.995 80.557 345.625 C 76.761 347.257 72.911 347.743 69.016 346.193 C 65.046 344.617 62.194 340.828 60.592 336.984 C 59.721 334.895 58.964 332.787 58.803 330.516 C 59.822 325.305 62.982 319.401 66.406 315.368 Z"/>
  <path fill="white" d="M 79.018 305.382 C 84.456 303.747 90.719 302.719 95.958 305.562 C 97.707 306.511 99.07 308.13 99.6 310.052 C 99.754 310.603 99.897 311.165 99.943 311.739 C 98.691 319.219 95.402 325.99 89.104 330.536 C 84.214 334.063 77.879 336.099 71.849 335.104 C 69.316 334.69 67.091 333.642 65.607 331.485 C 63.648 328.636 64.035 323.924 64.698 320.697 C 65.071 318.876 65.737 317.097 66.406 315.368 C 69.587 310.747 73.748 307.343 79.018 305.382 Z"/>
  <path fill="#02060C" d="M 26.42 251.526 L 31.445 224.73 C 32.133 227.754 36.857 247.644 37.777 248.685 L 46.352 221.483 C 48.586 222.553 50.67 223.998 52.791 225.276 C 53.909 225.951 55.119 226.434 56.174 227.212 C 54.039 232.588 53.166 238.053 52.67 243.794 C 51.524 264.125 60.481 285.019 73.841 299.982 L 79.018 305.382 C 73.748 307.343 69.587 310.747 66.406 315.368 C 62.982 319.401 59.822 325.305 58.803 330.516 C 58.016 331.306 58.013 331.776 57.757 332.846 C 55.733 328.822 53.31 325.461 50.477 321.976 C 48.459 319.555 46.022 317.531 43.579 315.557 C 48.059 309.915 50.637 304.501 51.786 297.358 C 52.064 295.625 52.437 293.634 52.242 291.889 C 52.241 291.621 52.233 291.719 52.258 291.494 C 53.13 283.358 50.197 274.397 46.648 267.205 C 45.203 263.642 42.245 259.605 39.446 256.943 C 35.746 253.424 31.606 251.387 26.42 251.526 Z"/>
  <path fill="#CF6429" d="M 35.38 181.472 L 39.805 177.796 L 51.54 187.225 C 52.336 187.857 53.704 189.297 54.596 189.68 C 56.005 190.284 58.476 190.367 60.058 190.631 C 63.844 191.264 68.201 192.527 72.006 192.567 C 73.685 191.108 75.184 189.308 76.734 187.706 C 77.494 186.921 78.169 186.061 79.188 185.613 L 56.174 227.212 C 55.119 226.434 53.909 225.951 52.791 225.276 C 50.67 223.998 48.586 222.553 46.352 221.483 L 37.777 248.685 C 36.857 247.644 32.133 227.754 31.445 224.73 L 26.42 251.526 C 31.606 251.387 35.746 253.424 39.446 256.943 C 42.245 259.605 45.203 263.642 46.648 267.205 C 50.197 274.397 53.13 283.358 52.258 291.494 C 52.233 291.719 52.241 291.621 52.242 291.889 C 52.437 293.634 52.064 295.625 51.786 297.358 C 50.637 304.501 48.059 309.915 43.579 315.557 C 46.022 317.531 48.459 319.555 50.477 321.976 C 53.31 325.461 55.733 328.822 57.757 332.846 C 59.693 336.948 61.177 340.994 59.588 345.478 C 58.387 348.869 55.407 351.626 52.209 353.143 C 48.109 355.088 43.769 355.072 39.398 354.299 C 41.493 355.562 43.985 356.276 46.268 357.151 L 55.391 360.642 L 56.233 360.92 C 56.924 361.116 58.61 361.732 59.268 361.579 C 60.101 361.386 61.24 360.567 62.003 360.15 L 68.76 356.417 L 92.113 343.54 L 117.462 329.338 C 118.022 329.295 120.521 327.39 121.164 326.979 C 122.886 325.876 141.147 313.952 141.723 313.942 C 142.054 313.935 144.149 315.26 144.607 315.482 C 148.904 317.574 153.141 319.016 157.912 319.564 C 167.146 320.622 177.57 318.412 184.9 312.565 C 185.498 313.958 186.303 315.466 186.283 317.009 L 185.751 317.499 L 156.379 359.422 C 156.057 359.895 155.691 360.355 155.206 360.672 C 153.216 361.977 150.757 362.943 148.626 364.046 L 131.739 372.694 L 77.58 364.885 C 74.558 364.764 71.173 366.389 68.348 367.401 L 57.8 371.209 C 57.006 371.519 54.266 372.896 53.567 372.743 C 53.195 372.661 52.193 371.79 51.804 371.519 L 46.169 367.789 L 17.431 353.496 L 12.915 351.394 C 11.813 350.859 10.646 350.109 9.413 349.939 C 6.894 349.59 3.623 350.171 1.029 350.282 L -11.79 350.5 C -12.03 349.985 -13.878 348.803 -14.435 348.324 C -17.173 347.129 -20.059 344.453 -22.498 342.668 L -33.312 334.905 L -59.571 318.318 L -59.572 294.189 L -59.566 291.432 C -58.349 289.689 -58.069 285.904 -57.562 283.747 L -49.636 249.507 L -43.4 232.882 L -39.595 231.434 L -34.035 229.403 L -28.465 227.423 L -19.07 223.926 L -18.566 223.433 L -15.229 220.914 L 8.486 202.947 L 12.252 199.954 L 18.098 183.562 L 28.208 183.574 C 29.451 183.573 31.39 183.338 32.509 183.802 C 33.517 183.206 34.473 182.227 35.38 181.472 Z"/>
  <path fill="#0B2028" d="M 18.098 183.562 L 28.208 183.574 C 29.451 183.573 31.39 183.338 32.509 183.802 L 12.252 199.954 L 18.098 183.562 Z"/>
  <path fill="#5B240F" d="M -37.442 284.706 C -31.523 290.518 -26.086 296.989 -20.629 303.245 C -18.739 305.408 -16.768 308.492 -14.52 310.225 L -8.743 318.814 L -31.975 301.678 C -32.875 299.926 -33.381 297.727 -33.981 295.84 L -37.442 284.706 Z"/>
  <path fill="#5B240F" d="M -31.48 304.296 L -14.109 323.19 L -3.576 335.91 C -0.684 339.441 2.773 343.034 5.149 346.914 L -14.435 348.324 C -14.481 346.617 -15.845 343.964 -16.43 342.326 L -26.85 315.547 L -29.841 308.691 C -30.464 307.265 -31.206 305.836 -31.48 304.296 Z"/>
  <path fill="#2A555F" d="M -18.378 294.235 C -18.311 291.598 -17.916 288.668 -16.966 286.204 C -17.188 289.927 -16.797 292.789 -15.479 296.317 C -13.052 304.439 -5.149 311.948 2.125 315.88 C 6.196 318.08 10.765 319.636 15.411 319.809 C 14.795 322.929 14.757 326.049 15.012 329.214 L 15.81 333.388 C 17.084 338.426 19.907 344.93 23.861 348.497 C 22.396 348.656 20.585 347.837 19.186 347.403 L 18.316 345.892 L -1.946 324.717 L -8.743 318.814 L -14.52 310.225 C -15.637 307.281 -16.89 304.397 -17.587 301.31 C -18.109 299.003 -18.235 296.591 -18.378 294.235 Z"/>
  <path fill="#02060C" d="M -1.946 324.717 C 1.963 326.864 5.852 328.627 10.29 329.38 C 11.534 329.589 12.914 329.873 14.169 329.72 C 14.754 335.62 16.176 340.374 18.316 345.892 L -1.946 324.717 Z"/>
  <path fill="#5B240F" d="M 46.169 367.789 L 98.479 349.541 C 102.698 353.636 105.689 359.004 109.663 363.335 C 103.339 363.204 96.842 363.831 90.509 364.105 L 82.751 364.389 C 81.087 364.447 79.185 364.421 77.58 364.885 C 74.558 364.764 71.173 366.389 68.348 367.401 L 57.8 371.209 C 57.006 371.519 54.266 372.896 53.567 372.743 C 53.195 372.661 52.193 371.79 51.804 371.519 L 46.169 367.789 Z"/>
  <path fill="white" d="M 25.563 310.28 C 32.706 309.99 37.776 311.38 43.579 315.557 C 46.022 317.531 48.459 319.555 50.477 321.976 C 49.595 326.241 47.355 330.245 43.641 332.647 C 40.031 334.98 35.387 335.16 31.289 334.239 C 26.104 333.074 21.896 329.694 19.145 325.213 C 18.206 323.683 17.615 321.996 16.999 320.318 C 16.483 322.958 16.195 325.513 16.065 328.202 C 15.983 329.88 16.101 331.743 15.81 333.388 L 15.012 329.214 C 14.757 326.049 14.795 322.929 15.411 319.809 C 15.884 318.468 16.345 317.13 17.126 315.929 C 19.069 312.947 22.113 311.015 25.563 310.28 Z"/>
  <path fill="#02060C" d="M 98.479 349.541 L 112.407 343.439 C 114.149 342.652 116.222 341.973 117.829 340.958 C 118.813 340.338 119.675 339.219 120.476 338.377 L 124.697 334.099 C 130.487 328.268 136.826 322.554 142.166 316.317 L 149.285 322.557 L 135.702 336.808 L 111.109 362.907 L 109.663 363.335 C 105.689 359.004 102.698 353.636 98.479 349.541 Z"/>
  <path fill="#02060C" d="M -30.508 244.748 C -29.087 248.129 -28.384 252.144 -27.365 255.69 C -26.076 260.17 -24.386 264.715 -23.431 269.264 L -31.882 260.339 L -24.652 278.901 C -22.697 283.972 -20.921 289.431 -18.378 294.235 C -18.235 296.591 -18.109 299.003 -17.587 301.31 C -16.89 304.397 -15.637 307.281 -14.52 310.225 C -16.768 308.492 -18.739 305.408 -20.629 303.245 C -26.086 296.989 -31.523 290.518 -37.442 284.706 L -43.959 264.813 C -45.083 261.328 -46.023 257.138 -47.71 253.932 L -30.508 244.748 Z"/>
  <path fill="#5B240F" d="M 178.765 319.845 C 178.33 321.486 175.598 323.771 174.411 325.171 L 146.937 356.26 L 111.109 362.907 L 135.702 336.808 C 136.975 336.804 138.429 336.008 139.621 335.545 L 149.823 331.42 L 178.765 319.845 Z"/>
  <path fill="#2E150B" d="M -57.562 283.747 L -39.2 297.717 C -36.679 299.727 -33.949 301.678 -31.652 303.927 L -31.48 304.296 C -31.206 305.836 -30.464 307.265 -29.841 308.691 L -26.85 315.547 L -16.43 342.326 C -15.845 343.964 -14.481 346.617 -14.435 348.324 C -17.173 347.129 -20.059 344.453 -22.498 342.668 L -33.312 334.905 L -59.571 318.318 L -59.572 294.189 L -59.566 291.432 C -58.349 289.689 -58.069 285.904 -57.562 283.747 Z"/>
  <path fill="#02060C" d="M -59.572 294.189 C -58.345 295.938 -57.511 297.991 -56.515 299.884 C -53.669 305.288 -51.019 310.936 -47.892 316.177 C -45.911 319.496 -43.076 322.557 -40.645 325.559 C -39.647 326.793 -33.35 334.053 -33.312 334.905 L -59.571 318.318 L -59.572 294.189 Z"/>
  <path fill="white" d="M 26.42 251.526 C 31.606 251.387 35.746 253.424 39.446 256.943 C 42.245 259.605 45.203 263.642 46.648 267.205 C 50.197 274.397 53.13 283.358 52.258 291.494 C 52.233 291.719 52.241 291.621 52.242 291.889 C 52.437 293.634 52.064 295.625 51.786 297.358 C 50.637 304.501 48.059 309.915 43.579 315.557 C 37.776 311.38 32.706 309.99 25.563 310.28 C 22.113 311.015 19.069 312.947 17.126 315.929 C 16.345 317.13 15.884 318.468 15.411 319.809 C 10.765 319.636 6.196 318.08 2.125 315.88 C -5.149 311.948 -13.052 304.439 -15.479 296.317 C -16.797 292.789 -17.188 289.927 -16.966 286.204 C -16.936 285.946 -16.905 285.718 -16.838 285.467 C -15.936 282.089 -13.869 278.617 -10.785 276.816 C -6.678 274.42 -2.486 274.75 1.912 275.892 C 7.306 277.834 10.789 280.294 14.808 284.386 C 13.593 278.013 13.234 271.94 14.836 265.61 C 15.455 262.852 16.527 260.052 18.036 257.662 C 20.128 254.348 22.582 252.388 26.42 251.526 Z"/>
  <path fill="#CF6429" d="M 46.648 267.205 C 50.197 274.397 53.13 283.358 52.258 291.494 C 52.233 291.719 52.241 291.621 52.242 291.889 C 52.437 293.634 52.064 295.625 51.786 297.358 C 50.637 304.501 48.059 309.915 43.579 315.557 C 37.776 311.38 32.706 309.99 25.563 310.28 C 22.113 311.015 19.069 312.947 17.126 315.929 C 16.345 317.13 15.884 318.468 15.411 319.809 C 10.765 319.636 6.196 318.08 2.125 315.88 C -5.149 311.948 -13.052 304.439 -15.479 296.317 C -10.263 301.088 -4.648 304.772 2.524 305.676 C 5.966 306.113 9.648 305.448 12.413 303.245 C 15.946 300.432 16.916 296.438 17.422 292.173 C 17.274 290.554 17.159 288.965 16.678 287.405 C 16.536 286.938 16.816 286.729 16.691 286.152 C 15.495 280.621 15.317 275.605 15.504 269.972 C 17.163 275.106 19.282 280.712 22.751 284.922 C 24.671 287.252 27.151 289.304 30.271 289.581 C 32.93 289.82 35.697 288.7 37.711 286.984 C 43.952 281.665 46.008 275.112 46.648 267.205 Z"/>
  <path fill="#2A555F" d="M 52.242 291.889 C 52.437 293.634 52.064 295.625 51.786 297.358 C 50.637 304.501 48.059 309.915 43.579 315.557 C 37.776 311.38 32.706 309.99 25.563 310.28 C 25.115 305.317 24.166 300.442 22.107 295.876 L 22.392 295.619 C 23.493 296.682 24.352 297.975 25.411 299.084 C 27.717 301.496 30.357 303.225 33.524 304.289 C 37.093 305.487 40.97 305.451 44.365 303.705 C 48.963 301.339 50.785 296.526 52.242 291.889 Z"/>
  <path fill="#5B240F" d="M -13.752 226.709 L -11.13 223.75 C -10.872 223.458 -10.38 222.743 -10.079 222.564 C -8.859 221.841 -6.757 221.465 -5.373 220.964 L 8.873 215.668 L 14.47 253.253 L 16.034 204.349 L 24.879 207.898 L 36.973 182.367 L 47.086 189.899 C 48.05 190.598 50.432 191.88 51.039 192.72 C 51.822 193.803 52.347 195.742 52.883 197.018 L 57.885 209.033 L 72.006 192.567 C 73.685 191.108 75.184 189.308 76.734 187.706 C 77.494 186.921 78.169 186.061 79.188 185.613 L 56.174 227.212 C 55.119 226.434 53.909 225.951 52.791 225.276 C 50.67 223.998 48.586 222.553 46.352 221.483 L 37.777 248.685 C 36.857 247.644 32.133 227.754 31.445 224.73 L 26.42 251.526 C 22.582 252.388 20.128 254.348 18.036 257.662 C 16.527 260.052 15.455 262.852 14.836 265.61 C 13.234 271.94 13.593 278.013 14.808 284.386 C 10.789 280.294 7.306 277.834 1.912 275.892 C -2.486 274.75 -6.678 274.42 -10.785 276.816 C -13.869 278.617 -15.936 282.089 -16.838 285.467 C -16.905 285.718 -16.936 285.946 -16.966 286.204 C -17.916 288.668 -18.311 291.598 -18.378 294.235 C -20.921 289.431 -22.697 283.972 -24.652 278.901 L -31.882 260.339 L -23.431 269.264 C -24.386 264.715 -26.076 260.17 -27.365 255.69 C -28.384 252.144 -29.087 248.129 -30.508 244.748 L -29.201 243.456 L -13.752 226.709 Z"/>
  <path fill="#02060C" d="M 1.912 275.892 C 0.506 273.037 -0.326 269.617 -1.338 266.585 L -7.291 248.427 C -5.755 248.978 -3.643 251.237 -2.253 252.315 L 14.836 265.61 C 13.234 271.94 13.593 278.013 14.808 284.386 C 10.789 280.294 7.306 277.834 1.912 275.892 Z"/>
  <path fill="#02060C" d="M -13.752 226.709 L -9.738 255.598 L -8.459 263.436 C -8.221 264.843 -7.841 266.308 -7.85 267.737 L -29.201 243.456 L -13.752 226.709 Z"/>
</svg>